<?xml version="1.0"?>
<svg width="65" height="47" xmlns="http://www.w3.org/2000/svg" xmlns:svg="http://www.w3.org/2000/svg" version="1.0"
    fill="#507255">
    <g class="layer">
        <title>Layer 1</title>
        <g id="svg_4">
            <path
                d="m44.19,1.89c-0.96,0.05 -2.03,0.24 -2.59,0.46c-0.33,0.13 -0.53,0.14 -0.41,0.02c0.05,-0.05 0.08,-0.15 0.08,-0.23c0,-0.13 -0.03,-0.15 -0.2,-0.15c-0.39,0 -1.52,0.58 -2.03,1.05l-0.23,0.21l0.05,-0.2c0.11,-0.39 0.08,-0.6 -0.08,-0.62c-0.26,-0.03 -1.25,1.11 -1.8,2.08c-0.51,0.91 -0.7,1.74 -0.61,2.73c0.07,0.76 0.17,0.91 0.62,0.84c0.34,-0.06 1.11,-0.43 1.48,-0.72c0.15,-0.12 0.35,-0.21 0.44,-0.21c0.09,0 0.67,-0.18 1.27,-0.42c0.6,-0.23 1.26,-0.46 1.45,-0.51c0.19,-0.05 1,-0.26 1.79,-0.48c4.39,-1.18 5.66,-1.16 9.1,0.12c0.63,0.23 1.39,0.55 1.68,0.7c0.3,0.14 0.57,0.24 0.6,0.21c0.03,-0.03 -0.1,-0.19 -0.28,-0.35c-0.19,-0.16 -0.33,-0.29 -0.31,-0.29c0.01,0 0.17,0.05 0.34,0.1c0.34,0.11 0.91,0.17 0.91,0.09c0,-0.06 -1.32,-1.5 -1.44,-1.57c-0.05,-0.03 -0.55,-0.51 -1.11,-1.07c-0.56,-0.55 -1.11,-1.06 -1.24,-1.12c-1,-0.51 -1.82,-0.64 -3.65,-0.61c-1.14,0.02 -1.38,0 -1.42,-0.08c-0.04,-0.1 -0.62,-0.11 -2.4,0zm1.37,0.36l-0.31,0.16l2.04,-0.05c1.32,-0.03 2.21,-0.03 2.53,0.01c0.7,0.1 1.65,0.37 1.91,0.56c0.13,0.09 0.74,0.69 1.36,1.34c0.62,0.64 1.31,1.32 1.54,1.5c0.22,0.18 0.37,0.35 0.32,0.36c-0.04,0.01 -0.45,-0.14 -0.91,-0.35a23.14,16.63 0 0 0 -1.07,-0.47c-0.24,-0.1 -0.24,-0.1 -0.12,0.03c0.07,0.08 0.25,0.22 0.41,0.32c0.57,0.37 0.27,0.35 -0.72,-0.07c-2.48,-1.01 -3.93,-1.23 -6.02,-0.91c-1.17,0.17 -2.68,0.61 -4.34,1.25c-0.45,0.18 -0.47,0.18 -0.28,0.04c0.61,-0.46 0.95,-0.74 1.09,-0.93l0.15,-0.2l-0.37,0.23c-0.66,0.41 -1.69,0.91 -2.44,1.21c-0.41,0.16 -0.82,0.33 -0.92,0.38c-0.11,0.05 -0.19,0.08 -0.19,0.06c0,-0.03 0.17,-0.26 0.38,-0.52c0.21,-0.26 0.37,-0.49 0.35,-0.51c-0.02,-0.01 -0.33,0.23 -0.68,0.56c-0.82,0.73 -1.37,1.14 -1.92,1.4c-0.64,0.31 -0.68,0.29 -0.64,-0.59c0.06,-1.23 0.48,-2.22 1.49,-3.53c0.13,-0.18 0.26,-0.32 0.29,-0.32c0.02,0 0.01,0.13 -0.02,0.28a18.56,13.34 0 0 0 -0.1,0.55l-0.04,0.27l0.69,-0.68c0.47,-0.47 0.84,-0.76 1.15,-0.93c0.73,-0.4 0.75,-0.39 0.39,0.14c-0.17,0.26 -0.32,0.5 -0.32,0.52c0,0.03 0.1,-0.05 0.23,-0.16c0.58,-0.54 2.96,-1.08 5,-1.12l0.42,-0.01l-0.31,0.17zm-28.79,-0.04c0,0.05 -0.42,0.07 -1.38,0.08c-1.62,0.01 -2.33,0.11 -3.13,0.44c-0.61,0.24 -0.88,0.45 -1.47,1.08c-0.22,0.24 -0.75,0.77 -1.16,1.18c-0.79,0.79 -1.6,1.69 -1.6,1.78c0,0.07 0.67,-0.03 1.05,-0.17l0.31,-0.11l-0.31,0.26c-0.17,0.15 -0.33,0.27 -0.36,0.28c-0.06,0 -0.07,0.2 -0.03,0.2c0.02,0 0.26,-0.12 0.55,-0.27c0.65,-0.35 2.78,-1.18 3.59,-1.41c2.2,-0.63 3.83,-0.5 8.02,0.6c0.46,0.12 0.85,0.2 0.86,0.19c0.1,-0.09 -3.14,-1.1 -4.05,-1.27c-2.58,-0.47 -4.1,-0.26 -6.97,0.99c-0.43,0.19 -0.8,0.34 -0.82,0.32c-0.06,-0.06 0.07,-0.23 0.37,-0.44c0.17,-0.13 0.3,-0.24 0.28,-0.26c-0.02,-0.01 -0.36,0.13 -0.74,0.32c-0.39,0.19 -0.87,0.41 -1.08,0.49l-0.36,0.14l0.74,-0.73c0.4,-0.4 1.12,-1.15 1.6,-1.66c0.49,-0.52 0.97,-0.98 1.11,-1.06c0.14,-0.07 0.55,-0.21 0.92,-0.32l0.66,-0.19l2.34,-0.02c1.28,-0.01 2.32,-0.03 2.3,-0.05a3.2,2.3 0 0 0 -0.3,-0.15l-0.26,-0.12l0.98,0.03c0.54,0.02 1.21,0.06 1.48,0.09c1.09,0.13 2.66,0.59 2.98,0.86c0.22,0.19 0.2,0.1 -0.1,-0.33c-0.13,-0.2 -0.23,-0.38 -0.21,-0.4c0.02,-0.02 0.26,0.08 0.54,0.22c0.47,0.24 1.31,0.93 1.72,1.42c0.13,0.15 0.14,0.15 0.16,0.04c0.01,-0.08 -0.01,-0.31 -0.06,-0.52c-0.05,-0.22 -0.08,-0.41 -0.06,-0.42c0.07,-0.07 0.92,1.09 1.22,1.66c0.39,0.75 0.59,1.35 0.66,1.99c0.06,0.63 0,0.98 -0.17,0.98c-0.38,0 -1.37,-0.63 -2.54,-1.63c-0.63,-0.54 -0.66,-0.47 -0.06,0.19c0.42,0.47 0.45,0.48 -0.85,-0.03c-0.96,-0.37 -1.91,-0.81 -2.46,-1.15c-0.17,-0.11 -0.3,-0.16 -0.3,-0.13c0,0.09 0.7,0.66 1.2,0.97c0.49,0.3 2.7,1.14 3,1.14c0.1,0 0.32,0.1 0.51,0.24c0.44,0.32 1.19,0.64 1.48,0.63c0.43,0 0.47,-0.12 0.47,-1.22c-0.01,-0.94 -0.02,-1 -0.25,-1.56a11.64,8.37 0 0 0 -0.58,-1.1c-0.36,-0.55 -1.19,-1.52 -1.43,-1.67c-0.29,-0.19 -0.44,0.08 -0.27,0.5c0.04,0.1 0.06,0.19 0.04,0.21c-0.02,0.01 -0.2,-0.11 -0.41,-0.28c-0.42,-0.35 -1.55,-0.89 -1.84,-0.89c-0.22,0 -0.28,0.14 -0.14,0.33c0.15,0.2 0.09,0.23 -0.26,0.11c-0.17,-0.06 -0.62,-0.18 -1.01,-0.27c-0.63,-0.14 -0.89,-0.17 -2.41,-0.18c-1.22,-0.01 -1.71,0 -1.71,0.06z"
                id="svg_1" />
            <path
                d="m13.95,5.49c-1.94,0.28 -3.44,0.81 -4.95,1.78c-1.93,1.25 -3.38,3.02 -4.21,5.16c-0.13,0.34 -0.24,0.66 -0.24,0.7c0,0.06 -0.15,0.08 -0.5,0.09c-0.74,0.01 -2.07,0.15 -2.27,0.24c-0.21,0.1 -0.24,0.24 -0.13,0.67c0.08,0.3 0.07,0.35 -0.06,0.58c-0.15,0.24 -0.15,0.24 -0.03,0.72c0.12,0.47 0.12,0.48 -0.02,0.79c-0.17,0.37 -0.18,0.5 -0.03,0.76c0.11,0.19 0.57,0.38 2.29,0.95c0.54,0.18 0.56,0.18 0.65,0.46c0.65,2 1.21,3.04 2.34,4.31c1.42,1.61 3.58,2.88 5.73,3.38c5.14,1.19 10.44,-1.12 12.75,-5.57c0.69,-1.34 1.04,-2.59 1.12,-4.02c0.02,-0.47 0.06,-0.66 0.15,-0.76c0.37,-0.4 0.41,-0.54 0.4,-1.52c-0.01,-0.84 -0.02,-0.94 -0.15,-1.06a0.48,0.35 0 0 0 -0.38,-0.13c-0.13,0 -0.24,-0.02 -0.24,-0.04c0,-0.13 0.44,-0.67 0.6,-0.74c0.1,-0.04 0.47,-0.11 0.81,-0.17c0.34,-0.06 1.03,-0.19 1.52,-0.28c1.37,-0.27 2.51,-0.3 3.78,-0.11c3.08,0.48 3.03,0.46 3.3,0.85c0.21,0.31 0.22,0.39 0.06,0.38c-0.28,-0.02 -0.51,0.09 -0.58,0.26c-0.04,0.11 -0.04,0.52 -0.01,1.11c0.05,0.93 0.05,0.95 0.28,1.21c0.21,0.26 0.23,0.33 0.34,1.26c0.07,0.54 0.2,1.27 0.31,1.6c1.19,4.12 4.92,7.17 9.39,7.67c5.57,0.63 10.71,-2.68 12.17,-7.81c0.09,-0.3 0.17,-0.56 0.17,-0.56c0.01,-0.01 0.52,-0.2 1.13,-0.43c1.56,-0.58 1.66,-0.63 1.76,-0.88c0.08,-0.19 0.07,-0.25 -0.07,-0.62c-0.16,-0.41 -0.16,-0.42 -0.05,-0.87c0.11,-0.45 0.11,-0.46 -0.05,-0.69c-0.14,-0.22 -0.15,-0.26 -0.07,-0.56c0.1,-0.36 0.06,-0.61 -0.12,-0.7c-0.16,-0.08 -1.49,-0.19 -2.2,-0.18l-0.57,0l-0.2,-0.56c-0.28,-0.78 -0.93,-1.96 -1.46,-2.66c-0.57,-0.74 -1.94,-2.02 -2.75,-2.55c-0.34,-0.22 -1,-0.57 -1.46,-0.78c-4.36,-1.96 -9.42,-1.14 -12.77,2.08c-0.86,0.83 -1.54,1.7 -2,2.56l-0.29,0.54l-0.15,-0.41c-0.18,-0.52 -0.28,-0.57 -1.7,-0.79c-2.03,-0.31 -2.53,-0.35 -4.4,-0.3c-1.58,0.05 -1.85,0.07 -3.13,0.29c-0.77,0.14 -1.52,0.28 -1.68,0.32c-0.32,0.09 -0.52,0.32 -0.58,0.74c-0.03,0.13 -0.07,0.25 -0.09,0.25c-0.03,0 -0.15,-0.18 -0.26,-0.41c-0.45,-0.89 -1.48,-2.15 -2.37,-2.9c-1.11,-0.94 -2.75,-1.83 -4.14,-2.24c-1.36,-0.4 -3.44,-0.58 -4.68,-0.41zm3.33,0.8c2.42,0.47 4.63,1.73 6.13,3.52c2.15,2.55 2.82,5.96 1.77,9.06c-1.31,3.84 -4.98,6.53 -9.3,6.82c-1.13,0.07 -2.63,-0.1 -3.74,-0.44c-0.71,-0.22 -1.98,-0.77 -2.52,-1.11c-2.39,-1.48 -4.05,-3.82 -4.56,-6.41c-0.51,-2.58 0.16,-5.4 1.77,-7.51c0.52,-0.67 1.79,-1.85 2.49,-2.3c1.37,-0.89 2.91,-1.47 4.52,-1.7c0.73,-0.1 2.71,-0.05 3.43,0.09zm31.17,-0.4c2.26,0.22 4.49,1.21 6.16,2.75c1.83,1.69 2.92,3.95 3.08,6.37c0.31,4.83 -3.16,9.12 -8.24,10.17c-1.21,0.25 -2.73,0.28 -3.89,0.07c-4.3,-0.76 -7.52,-3.72 -8.4,-7.7c-0.24,-1.05 -0.25,-2.59 -0.04,-3.64c0.33,-1.68 1.07,-3.18 2.23,-4.53c1.56,-1.82 4.22,-3.2 6.67,-3.46c0.74,-0.08 1.73,-0.09 2.43,-0.02zm-14.81,4.48c1.13,0.14 2.42,0.33 2.66,0.4c0.2,0.06 0.23,0.12 0.4,0.64c0.19,0.56 0.19,0.58 0.08,0.88c-0.12,0.34 -0.18,0.38 -0.26,0.18c-0.06,-0.19 -0.37,-0.51 -0.59,-0.61c-0.1,-0.05 -0.65,-0.16 -1.23,-0.24c-3.02,-0.46 -3.47,-0.49 -4.88,-0.26c-2.39,0.4 -3.02,0.51 -3.19,0.59c-0.22,0.11 -0.61,0.52 -0.61,0.65c0,0.23 -0.14,0.13 -0.25,-0.17c-0.12,-0.33 -0.12,-0.35 0.03,-0.89c0.1,-0.38 0.2,-0.58 0.3,-0.64c0.12,-0.08 1.41,-0.31 2.84,-0.51c0.76,-0.11 3.84,-0.11 4.69,-0.02zm-7.02,2.94c0.1,0.09 0.11,0.24 0.1,0.98c-0.01,0.8 -0.03,0.88 -0.17,1.02l-0.16,0.14l0,-0.22c0,-0.12 -0.05,-0.52 -0.12,-0.88c-0.22,-1.27 -0.23,-1.14 0.01,-1.14c0.12,0 0.27,0.04 0.33,0.1zm9.84,-0.01c-0.06,0.16 -0.23,1.37 -0.23,1.64c0,0.31 -0.08,0.39 -0.23,0.19c-0.09,-0.12 -0.11,-0.33 -0.12,-1.02c-0.01,-0.83 0,-0.87 0.14,-0.92c0.22,-0.08 0.48,-0.02 0.44,0.11zm-32.04,0.32c-0.01,0.05 -0.05,0.25 -0.09,0.44l-0.08,0.36l-0.65,0.11a10.23,7.34 0 0 0 -0.85,0.16c-0.39,0.1 -0.03,0.17 0.71,0.16c0.39,-0.01 0.73,0 0.75,0.01c0.01,0.02 0.01,0.15 -0.01,0.29l-0.04,0.26l-0.47,0.05c-0.45,0.05 -1.36,0.3 -1.29,0.36c0.01,0.02 0.42,0.03 0.9,0.02l0.87,-0.01l0.01,0.81l-0.93,0.01c-0.5,0.01 -1.01,0.04 -1.12,0.06c-0.34,0.07 -0.41,-0.01 -0.25,-0.34c0.16,-0.34 0.18,-0.57 0.05,-1.03c-0.06,-0.29 -0.06,-0.36 0.04,-0.58c0.1,-0.21 0.11,-0.3 0.05,-0.58c-0.04,-0.18 -0.07,-0.34 -0.06,-0.34c0.02,-0.02 2.06,-0.28 2.31,-0.3c0.08,0 0.16,0.03 0.16,0.07zm55.14,-0.41c0.56,0.05 1.01,0.1 1.03,0.11c0.01,0.01 -0.01,0.15 -0.05,0.31c-0.06,0.26 -0.06,0.34 0.06,0.59c0.13,0.28 0.13,0.32 0.04,0.69c-0.09,0.36 -0.09,0.42 0.01,0.7c0.24,0.62 0.27,0.57 -0.27,0.53c-0.27,-0.02 -0.8,-0.04 -1.19,-0.04l-0.71,0.01l0,-0.78l0.86,0.03c0.58,0.03 0.87,0.01 0.9,-0.04c0.06,-0.1 -0.73,-0.32 -1.29,-0.37c-0.49,-0.03 -0.54,-0.08 -0.55,-0.46c0,-0.14 0.02,-0.14 0.75,-0.15c0.73,-0.01 1.09,-0.08 0.8,-0.16a8.35,5.99 0 0 0 -0.72,-0.13c-0.91,-0.15 -0.89,-0.14 -0.94,-0.33c-0.15,-0.7 -0.15,-0.69 0.06,-0.65c0.11,0.02 0.65,0.08 1.21,0.13zm-55.29,4.23c0.03,0.2 0.03,0.38 0.02,0.39c-0.03,0.03 -1.98,-0.64 -2.05,-0.7c-0.02,-0.02 0.41,-0.04 0.96,-0.05l1,-0.01l0.05,0.36zm56.01,-0.83c0,0.03 -0.43,0.2 -0.95,0.39c-1.04,0.37 -1.03,0.37 -0.95,-0.13l0.04,-0.29l0.94,-0.01c0.52,0 0.93,0.01 0.93,0.04zm-57.13,13.73c-1.08,0.19 -1.89,0.88 -2.59,2.22c-0.48,0.92 -0.59,1.4 -0.57,2.54c0.01,0.85 0.04,1.05 0.2,1.51c0.3,0.89 0.71,1.54 1.8,2.87c0.97,1.19 2.04,2.03 3.84,3.03c1.31,0.72 2.3,1.13 3.93,1.6c2.08,0.59 3.28,0.79 5.52,0.89c1.67,0.07 2.22,0.04 3.32,-0.23c2.19,-0.52 3.34,-0.91 4.8,-1.62c1.03,-0.5 1.51,-0.82 2.5,-1.65c0.54,-0.45 0.78,-0.61 0.96,-0.64c0.99,-0.17 1.37,-0.34 2.12,-0.91c0.3,-0.24 0.31,-0.24 0.14,-0.06c-0.11,0.12 -0.46,0.4 -0.77,0.62c-0.32,0.22 -0.56,0.42 -0.54,0.43c0.06,0.06 1.19,-0.28 1.56,-0.46l0.38,-0.19l-0.34,0.3l-0.34,0.3l0.28,-0.03c0.2,-0.01 0.28,0 0.26,0.05c-0.05,0.12 0.77,-0.02 1.25,-0.22c0.61,-0.25 0.69,-0.25 0.99,-0.12c0.58,0.27 1.86,0.52 1.73,0.33c-0.03,-0.05 0.03,-0.07 0.18,-0.07l0.23,0l-0.31,-0.25l-0.31,-0.26l0.41,0.19c0.22,0.1 0.46,0.18 0.53,0.18c0.06,0 0.26,0.04 0.44,0.1c0.59,0.18 0.58,0.07 -0.01,-0.32c-0.31,-0.21 -0.57,-0.4 -0.57,-0.41c0,-0.02 0.07,0.02 0.16,0.08c0.61,0.41 0.95,0.53 1.81,0.64c0.19,0.02 0.39,0.14 0.69,0.39c0.85,0.68 1.51,1.16 2.06,1.47c0.94,0.52 2.57,1.15 3.9,1.49c2.01,0.52 2.7,0.64 3.68,0.63c1.71,-0.01 3.98,-0.26 5.21,-0.58c1.33,-0.33 3.02,-0.9 4.02,-1.36c1.55,-0.72 3.16,-1.73 4.22,-2.66c0.54,-0.47 1.6,-1.79 2.19,-2.71c1.13,-1.79 1.2,-3.76 0.19,-5.57c-0.61,-1.09 -1.2,-1.64 -2.08,-1.94c-0.83,-0.29 -1.91,-0.2 -2.73,0.22c-1.14,0.57 -2.18,1.38 -2.49,1.92c-0.13,0.23 -0.12,0.23 0.21,-0.07c0.42,-0.38 1.05,-0.79 1.58,-1.03c0.35,-0.16 0.49,-0.18 1.06,-0.19c1.97,-0.01 3.18,0.79 3.6,2.39c0.16,0.61 0.11,1.77 -0.09,2.4c-0.54,1.68 -2.2,3.47 -4.19,4.53c-1.05,0.56 -2.76,1.03 -4.32,1.2c-1.38,0.15 -2.88,-0.03 -4.24,-0.5c-1.1,-0.39 -1.97,-0.82 -2.73,-1.38l-0.37,-0.27l0.5,-0.32c1.89,-1.19 2.8,-3.75 1.92,-5.41c-0.25,-0.47 -0.77,-1 -1.58,-1.61c-0.78,-0.59 -2.15,-1.24 -3.03,-1.44c-1.07,-0.25 -1.05,-0.2 0.28,0.4c1.41,0.65 1.89,0.95 2.48,1.62c0.63,0.7 0.84,1.31 0.71,2.07c-0.15,0.93 -0.58,1.49 -1.44,1.91c-0.96,0.46 -2.62,0.49 -3.56,0.06c-0.65,-0.3 -1.98,-1.23 -3.43,-2.38c-1,-0.79 -1.51,-1.14 -2,-1.35c-1.46,-0.62 -3.29,-0.43 -4.55,0.49l-0.37,0.27l-0.35,-0.25c-1.59,-1.09 -3.78,-1.07 -5.35,0.06c-0.22,0.15 -0.85,0.65 -1.4,1.1c-1.13,0.92 -2.2,1.71 -2.83,2.08c-0.69,0.4 -1.05,0.48 -2.17,0.49c-0.89,0 -1,-0.01 -1.42,-0.16c-1.29,-0.5 -1.86,-1.27 -1.82,-2.52c0.03,-0.81 0.22,-1.17 1.07,-1.97c0.66,-0.62 0.69,-0.65 1.94,-1.24c0.7,-0.34 1.2,-0.61 1.13,-0.61c-0.08,0 -0.42,0.07 -0.75,0.17c-1.11,0.31 -2.24,0.92 -3.27,1.75c-1.17,0.95 -1.54,1.6 -1.53,2.73c0,0.82 0.14,1.29 0.61,2.17c0.31,0.56 0.46,0.77 0.94,1.21c0.31,0.29 0.72,0.61 0.93,0.71c0.2,0.1 0.35,0.2 0.33,0.24c-0.1,0.16 -1.16,0.85 -1.74,1.13c-2.59,1.29 -4.84,1.5 -7.96,0.74c-1.72,-0.41 -3.3,-1.35 -4.63,-2.72c-1.15,-1.19 -1.67,-2.23 -1.79,-3.65c-0.09,-1.03 0.27,-2.12 0.91,-2.74c0.86,-0.84 2.76,-1.21 3.84,-0.76c0.45,0.19 1.14,0.61 1.53,0.94l0.29,0.23l-0.14,-0.22c-0.32,-0.52 -1.77,-1.51 -2.67,-1.85c-0.39,-0.15 -1.15,-0.29 -1.46,-0.27a6.17,4.43 0 0 0 -0.5,0.06zm1.58,0.38l0.49,0.14l-0.52,0.06c-0.81,0.08 -1.17,0.18 -1.73,0.45c-0.94,0.44 -1.53,1.19 -1.82,2.31c-0.16,0.62 -0.09,1.74 0.17,2.48c0.48,1.41 1.7,2.91 3.3,4.09c2.37,1.75 6.57,2.41 9.38,1.5c0.7,-0.23 1.79,-0.74 2.42,-1.14c0.55,-0.35 1.4,-1.07 1.52,-1.27c0.09,-0.18 0.01,-0.31 -0.21,-0.36c-0.27,-0.06 -0.95,-0.48 -1.27,-0.78c-1.15,-1.14 -1.69,-2.96 -1.22,-4.15c0.12,-0.31 0.63,-1.03 0.72,-1.03c0.03,0 -0.02,0.14 -0.1,0.31c-0.13,0.27 -0.15,0.43 -0.14,1.1c0.01,0.98 0.15,1.36 0.71,1.91c0.73,0.72 1.68,1.06 2.98,1.04c1.56,-0.02 2.13,-0.33 5.19,-2.77c1.75,-1.4 2.13,-1.61 3.23,-1.77c1.09,-0.16 2.46,0.19 3.25,0.83c0.17,0.14 0.33,0.25 0.36,0.25c0.03,0 0.17,-0.09 0.3,-0.19c0.4,-0.31 0.77,-0.52 1.31,-0.72c0.47,-0.17 0.6,-0.19 1.45,-0.2c0.86,-0.01 0.97,0 1.46,0.17c0.56,0.19 1.22,0.61 2.37,1.53c0.36,0.29 1.11,0.84 1.65,1.23c1.79,1.27 2.22,1.45 3.67,1.42c0.8,-0.01 0.96,-0.04 1.42,-0.2c1.21,-0.44 1.89,-1.13 2.13,-2.15c0.11,-0.51 0.05,-1.32 -0.14,-1.71c-0.08,-0.17 -0.12,-0.31 -0.08,-0.31c0.12,0 0.63,0.79 0.74,1.17c0.36,1.13 -0.13,2.79 -1.12,3.82c-0.45,0.46 -1.22,0.97 -1.46,0.97c-0.09,0 -0.12,0.05 -0.12,0.19c0,0.15 0.09,0.27 0.41,0.53c1.53,1.3 3.44,2.1 5.44,2.3c1.63,0.16 3.77,-0.19 5.52,-0.9c1.06,-0.44 1.57,-0.75 2.46,-1.48c1.46,-1.21 2.52,-2.69 2.87,-4.03c0.17,-0.62 0.2,-1.68 0.06,-2.21c-0.18,-0.67 -0.57,-1.37 -0.98,-1.75c-0.62,-0.56 -1.79,-0.99 -2.71,-0.99c-0.21,0 -0.32,-0.02 -0.28,-0.06c0.15,-0.14 0.92,-0.3 1.48,-0.3c0.64,-0.01 1.02,0.1 1.5,0.44c0.5,0.35 1.35,1.6 1.66,2.43c0.19,0.53 0.28,2 0.16,2.71c-0.16,0.96 -0.73,1.93 -1.93,3.31c-0.81,0.92 -1.9,1.89 -2.79,2.46c-0.96,0.62 -3.37,1.69 -4.61,2.05c-2.54,0.73 -4.04,0.96 -6.5,0.99c-1.51,0.01 -1.71,0 -2.19,-0.12a24.96,17.91 0 0 0 -0.97,-0.24c-0.69,-0.16 -2.43,-0.76 -3.39,-1.18c-1.02,-0.44 -1.56,-0.74 -2.18,-1.18c-0.53,-0.37 -1.86,-1.44 -1.91,-1.53c-0.08,-0.11 -0.19,-0.06 -0.14,0.05c0.03,0.06 0.06,0.16 0.09,0.21c0.05,0.12 -0.71,-0.33 -1.18,-0.71c-0.52,-0.42 -0.63,-0.41 -0.31,0.04c0.09,0.13 0.16,0.23 0.13,0.23c-0.07,0 -0.68,-0.42 -0.82,-0.58c-0.16,-0.16 -0.25,-0.17 -0.25,-0.02c0,0.09 -0.02,0.08 -0.16,-0.03c-0.15,-0.13 -0.33,-0.19 -0.32,-0.11c0,0.08 0.25,0.47 0.44,0.71c0.27,0.31 0.12,0.25 -0.5,-0.21c-0.24,-0.18 -0.47,-0.33 -0.5,-0.33c-0.03,0 -0.14,-0.15 -0.25,-0.32c-0.17,-0.32 -0.31,-0.37 -0.31,-0.13c0,0.16 0.31,0.79 0.51,1.05c0.17,0.22 0.1,0.2 -0.31,-0.09c-0.25,-0.18 -0.4,-0.19 -0.4,-0.03c0,0.05 0.11,0.16 0.25,0.26c0.35,0.26 0.25,0.29 -0.22,0.05l-0.39,-0.19l-0.29,0.16c-0.15,0.09 -0.37,0.19 -0.49,0.23c-0.19,0.07 -0.17,0.05 0.12,-0.19c0.31,-0.26 0.42,-0.52 0.22,-0.52c-0.05,0 -0.1,0.02 -0.1,0.06c0,0.06 -0.54,0.47 -0.63,0.47c-0.02,0 0.04,-0.13 0.15,-0.28c0.18,-0.27 0.48,-0.9 0.47,-1.03c0,-0.17 -0.19,-0.03 -0.36,0.26c-0.11,0.18 -0.22,0.31 -0.25,0.3c-0.03,-0.02 -0.08,-0.01 -0.1,0.03c-0.07,0.1 -0.94,0.73 -1.02,0.73c-0.03,0 0.03,-0.11 0.16,-0.24c0.25,-0.28 0.46,-0.66 0.39,-0.73c-0.03,-0.02 -0.15,0.05 -0.27,0.16c-0.14,0.12 -0.2,0.15 -0.17,0.07c0.06,-0.15 -0.1,-0.14 -0.26,0.02c-0.07,0.06 -0.31,0.25 -0.53,0.4l-0.41,0.28l0.22,-0.3c0.3,-0.41 0.22,-0.5 -0.15,-0.18c-0.3,0.26 -1.19,0.86 -1.27,0.86c-0.02,0 -0.01,-0.06 0.03,-0.12c0.17,-0.31 0.01,-0.23 -0.72,0.39c-1.17,0.99 -1.84,1.44 -2.76,1.9c-1.3,0.63 -2.85,1.24 -3.87,1.5c-0.26,0.07 -0.72,0.19 -1,0.26c-0.4,0.1 -0.82,0.15 -1.74,0.18c-3.15,0.12 -6.18,-0.42 -9.19,-1.64c-2.08,-0.84 -2.84,-1.3 -4.25,-2.52c-0.51,-0.45 -1.57,-1.57 -2.01,-2.15c-0.45,-0.58 -0.87,-1.4 -1.05,-2.07c-0.13,-0.48 -0.15,-0.67 -0.12,-1.37c0.04,-1.01 0.12,-1.39 0.45,-2.07c0.48,-0.99 1.21,-1.87 1.78,-2.16c0.55,-0.28 1.42,-0.29 2.26,-0.05z"
                id="svg_2" />
            <path
                d="m27.99,37.23l-0.17,0.05l0.2,0.05c0.22,0.05 0.68,-0.02 0.68,-0.1c0,-0.08 -0.44,-0.08 -0.7,0zm7.25,-0.07c0,0.09 0.2,0.14 0.6,0.14c0.42,-0.01 0.51,-0.1 0.16,-0.17c-0.32,-0.05 -0.77,-0.04 -0.77,0.03zm-2.78,0.45c-0.03,0.04 0,0.09 0.04,0.13c0.27,0.16 1.5,0.61 1.94,0.72c0.53,0.13 2.7,0.27 2.79,0.18c0.02,-0.03 -0.39,-0.1 -0.95,-0.17c-1.26,-0.14 -2.1,-0.31 -2.87,-0.6c-0.33,-0.12 -0.67,-0.26 -0.75,-0.28c-0.09,-0.04 -0.17,-0.03 -0.2,0.01zm-5.48,0.18c-0.44,0.12 -1.69,0.73 -1.63,0.78c0.01,0.01 0.32,-0.1 0.68,-0.24c0.75,-0.3 1.4,-0.45 2.19,-0.53c0.29,-0.03 0.54,-0.08 0.54,-0.11c0,-0.12 -1.28,-0.05 -1.79,0.1zm3.65,0.1c-0.8,0.32 -1.51,0.49 -2.88,0.68l-0.98,0.14l0.85,0c0.89,0 1.69,-0.12 2.36,-0.34c0.55,-0.19 1.53,-0.64 1.53,-0.7c0,-0.1 -0.15,-0.06 -0.88,0.22zm4.54,-0.26c0,0.07 0.21,0.1 1.04,0.17c0.52,0.04 1.14,0.21 2.06,0.56c0.74,0.28 0.67,0.2 -0.18,-0.24c-0.78,-0.39 -1.45,-0.55 -2.27,-0.55c-0.36,0 -0.65,0.03 -0.65,0.06zm9.83,1.64c-1.37,0.59 -2.4,0.84 -3.43,0.85c-0.51,0.01 -0.31,0.14 0.28,0.19l0.48,0.04l-0.98,0.19c-0.54,0.1 -1.19,0.21 -1.44,0.23c-0.85,0.09 -1.74,-0.12 -2.41,-0.56c-0.11,-0.08 -0.25,-0.12 -0.31,-0.1c-0.18,0.03 0.17,0.38 0.59,0.6c0.59,0.3 1.15,0.4 2.03,0.35c0.85,-0.05 1.27,-0.15 2.23,-0.51c0.35,-0.13 0.94,-0.32 1.29,-0.41c0.61,-0.15 1.44,-0.51 2.06,-0.89c0.25,-0.16 0.32,-0.24 0.21,-0.22c-0.03,0.01 -0.31,0.12 -0.62,0.25zm-26.46,0.15c0.07,0.06 0.44,0.26 0.82,0.43c0.87,0.41 1.85,0.64 2.66,0.61c0.86,-0.02 0.86,-0.15 -0.01,-0.19c-0.93,-0.05 -1.41,-0.16 -2.51,-0.56c-1.11,-0.41 -1.14,-0.43 -0.96,-0.29zm7.82,1c-0.87,0.55 -1.73,0.64 -3.3,0.38c-1.48,-0.25 -1.46,-0.25 -1.12,-0.1c0.57,0.26 1.53,0.48 2.25,0.5c1.06,0.04 1.87,-0.18 2.45,-0.68c0.45,-0.38 0.27,-0.44 -0.28,-0.1zm-6.65,0.74c-2.12,1.1 -2.96,1.46 -4.48,1.88c-1.11,0.3 -1.11,0.36 -0.02,0.14c1.27,-0.26 2.26,-0.64 3.86,-1.46c0.85,-0.44 1.49,-0.86 1.31,-0.87c-0.04,0 -0.34,0.14 -0.66,0.31zm24.07,-0.32c0.39,0.31 3.05,1.52 3.85,1.75c0.39,0.11 1.01,0.24 1.37,0.31c0.36,0.06 0.74,0.12 0.83,0.13c0.09,0.02 0.15,0.01 0.13,-0.03c-0.02,-0.04 -0.16,-0.09 -0.3,-0.11c-0.41,-0.06 -1.65,-0.4 -2.21,-0.58c-0.66,-0.22 -1.79,-0.72 -2.82,-1.25c-0.92,-0.47 -1.26,-0.56 -0.84,-0.23zm-23.4,0.81c-0.54,0.25 -1.42,0.75 -1.31,0.75c0.12,0 1.18,-0.45 1.53,-0.64c0.6,-0.35 0.45,-0.42 -0.21,-0.11zm22.7,-0.34c0,0.13 1.93,0.99 2.02,0.89c0.03,-0.02 -1.01,-0.59 -1.51,-0.82c-0.32,-0.15 -0.51,-0.18 -0.51,-0.08zm-20.68,0.77c-0.58,0.38 -2.35,1.21 -3.16,1.49c-0.81,0.27 -1.91,0.48 -3.15,0.59c-0.44,0.04 -0.82,0.09 -0.84,0.12c-0.02,0.03 0.49,0.03 1.15,0c1.87,-0.07 2.72,-0.3 4.67,-1.27c1.13,-0.56 1.82,-0.99 1.82,-1.11c0,-0.12 -0.09,-0.08 -0.48,0.18zm18.71,-0.36c0,0.13 0.84,0.62 1.91,1.13c1.13,0.53 2.03,0.85 2.82,1.02c0.55,0.12 2.98,0.17 3.24,0.08c0.12,-0.05 -0.08,-0.06 -0.77,-0.08c-1.22,-0.04 -2.58,-0.24 -3.47,-0.54c-0.76,-0.24 -2.41,-0.99 -3.12,-1.4c-0.43,-0.26 -0.6,-0.31 -0.6,-0.2z"
                id="svg_3" />
        </g>
    </g>
</svg>