<svg version="1.0" width="128" height="110" stroke-width="3" stroke="#e3b505" viewBox="0 0 128 125"
    xmlns="http://www.w3.org/2000/svg">
    <path
        d="M88.376 2.03c-1.913.154-4.063.684-5.171 1.276-.661.362-1.069.386-.832.066.098-.132.167-.412.166-.653-.003-.354-.074-.427-.412-.423-.773.01-3.045 1.621-4.063 2.917l-.476.584.109-.559c.219-1.082.16-1.677-.165-1.73-.522-.086-2.501 3.105-3.597 5.799-1.024 2.527-1.405 4.84-1.233 7.613.141 2.119.353 2.545 1.239 2.348.675-.159 2.232-1.203 2.973-1.995.292-.32.699-.585.881-.588.184-.002 1.336-.519 2.542-1.167 1.208-.648 2.526-1.28 2.905-1.415.393-.136 1.996-.733 3.581-1.331 8.792-3.277 11.327-3.235 18.205.325 1.258.653 2.783 1.529 3.376 1.949.608.401 1.145.674 1.201.598.07-.075-.201-.519-.569-.96-.384-.442-.667-.811-.625-.811.028-.001.339.125.678.288.677.308 1.819.462 1.818.238-.001-.167-2.632-4.173-2.872-4.375-.113-.072-1.106-1.419-2.228-2.969-1.122-1.548-2.229-2.95-2.482-3.114-2.007-1.408-3.644-1.777-7.304-1.693-2.294.067-2.773.016-2.844-.206-.087-.296-1.241-.3-4.801-.012zm2.751.988l-.63.455 4.096-.146c2.646-.089 4.419-.076 5.068.047 1.409.279 3.301 1.038 3.823 1.552.255.239 1.477 1.918 2.728 3.725 1.249 1.791 2.625 3.67 3.08 4.167.44.516.738.958.639.999-.083.037-.903-.399-1.822-.964a46.276 46.276 0 00-2.147-1.313c-.494-.274-.494-.274-.239.094.141.204.511.61.822.885 1.146 1.026.541.96-1.452-.186-4.958-2.803-7.862-3.417-12.051-2.544-2.348.477-5.367 1.689-8.679 3.479-.898.496-.954.497-.575.12 1.229-1.263 1.915-2.072 2.179-2.597l.306-.562-.742.642c-1.33 1.134-3.377 2.538-4.892 3.377-.814.438-1.641.915-1.852 1.048-.224.15-.391.227-.391.171-.001-.074.345-.712.763-1.442.433-.731.738-1.369.71-1.424-.043-.038-.658.641-1.37 1.545-1.636 2.049-2.74 3.162-3.848 3.901-1.29.873-1.36.799-1.276-1.638.119-3.41.961-6.176 2.98-9.813.264-.487.528-.882.586-.883.042-.001.03.353-.038.783a37.117 37.117 0 00-.202 1.547l-.079.746 1.38-1.898c.937-1.297 1.678-2.125 2.294-2.581 1.471-1.098 1.501-1.079.791.401-.348.73-.639 1.385-.638 1.46 0 .074.21-.133.461-.452 1.159-1.506 5.923-3 10.003-3.127l.844-.029-.63.455zm-57.576-.119c.001.131-.844.199-2.773.223-3.237.022-4.671.301-6.27 1.216-1.221.686-1.766 1.251-2.952 3.016-.445.676-1.493 2.141-2.317 3.287-1.591 2.198-3.208 4.696-3.207 4.957.002.205 1.338-.092 2.109-.457l.632-.304-.629.734c-.349.413-.671.753-.726.772-.114.002-.152.561-.055.559.042 0 .519-.343 1.094-.74 1.304-.967 5.568-3.275 7.197-3.928 4.396-1.749 7.666-1.399 16.046 1.675.931.324 1.705.574 1.734.536.195-.244-6.283-3.066-8.117-3.525-5.16-1.312-8.197-.714-13.947 2.765-.87.533-1.613.933-1.642.897-.128-.184.152-.654.74-1.219.35-.359.599-.679.572-.734-.043-.037-.717.362-1.487.893-.785.531-1.752 1.141-2.161 1.35l-.728.383 1.479-2.031c.81-1.109 2.248-3.193 3.196-4.62.977-1.464 1.938-2.742 2.235-2.952.279-.189 1.107-.591 1.838-.897l1.319-.539 4.674-.041c2.575-.033 4.644-.097 4.616-.152a6.413 6.413 0 00-.608-.421l-.523-.328 1.971.068c1.086.06 2.422.154 2.959.259 2.185.363 5.317 1.626 5.969 2.382.439.532.396.274-.202-.929-.272-.555-.472-1.055-.43-1.112.042-.056.521.218 1.088.601.947.658 2.634 2.573 3.458 3.939.257.424.284.424.325.107.028-.204-.033-.855-.121-1.449-.102-.595-.162-1.134-.12-1.172.139-.187 1.849 3.03 2.449 4.624.787 2.092 1.193 3.763 1.331 5.549.123 1.746.017 2.716-.335 2.721-.761.009-2.743-1.753-5.096-4.532-1.263-1.511-1.317-1.324-.124.523.838 1.309.909 1.329-1.704-.091-1.922-1.017-3.816-2.259-4.919-3.212-.34-.296-.608-.44-.607-.365.001.26 1.405 1.844 2.41 2.705.975.844 5.396 3.17 6.002 3.162.198-.002.649.291 1.018.677.892.88 2.39 1.773 2.967 1.766.873-.012.955-.328.936-3.4-.03-2.625-.045-2.792-.493-4.331a23.285 23.285 0 00-1.172-3.056c-.728-1.535-2.377-4.214-2.858-4.655-.595-.532-.886.216-.54 1.385.085.278.115.538.087.595-.041.037-.409-.311-.82-.772-.851-.956-3.1-2.491-3.677-2.484-.45.006-.572.398-.289.915.298.573.187.631-.534.305-.338-.163-1.254-.505-2.031-.755-1.255-.394-1.776-.463-4.818-.498-2.449-.042-3.42.007-3.419.155z"
        style="transform-origin:-.596px 3.004px" />
    <path
        d="M28.344 12.065c-3.952.773-6.997 2.291-10.063 5.03-3.934 3.528-6.873 8.558-8.553 14.627-.262.964-.481 1.855-.48 1.966.001.167-.294.244-1.012.253-1.506.02-4.206.424-4.613.67-.435.284-.489.691-.271 1.891.16.848.147.977-.129 1.628-.306.67-.306.688-.059 2.034.249 1.33.249 1.366-.042 2.238-.345 1.059-.357 1.431-.07 2.148.214.534 1.16 1.076 4.661 2.695 1.101.504 1.131.523 1.318 1.316 1.315 5.66 2.46 8.605 4.75 12.219 2.885 4.55 7.272 8.154 11.645 9.58 10.452 3.381 21.222-3.174 25.903-15.793 1.399-3.789 2.122-7.349 2.28-11.402.047-1.312.128-1.852.31-2.131.766-1.137.836-1.527.818-4.319-.015-2.384-.046-2.662-.301-2.992a.983.983 0 00-.775-.36c-.269.003-.495-.05-.495-.123-.002-.371.903-1.898 1.226-2.088.212-.112.955-.325 1.645-.483.701-.174 2.093-.525 3.091-.796 2.796-.776 5.092-.861 7.671-.303 6.259 1.345 6.159 1.309 6.701 2.412.428.882.444 1.105.12 1.09-.563-.048-1.04.253-1.179.736-.081.315-.089 1.481-.022 3.144.116 2.626.116 2.681.57 3.433.428.734.471.936.698 3.579.151 1.534.417 3.582.62 4.523 2.411 11.676 9.996 20.327 19.07 21.747 11.314 1.779 21.773-7.583 24.723-22.137.176-.855.341-1.579.354-1.596.029-.038 1.053-.57 2.288-1.214 3.171-1.648 3.368-1.78 3.575-2.485.164-.54.15-.724-.139-1.774-.33-1.161-.33-1.199-.099-2.459.231-1.28.231-1.298-.097-1.959-.286-.625-.299-.737-.15-1.589.204-1.019.115-1.722-.252-1.975-.326-.219-3.03-.535-4.467-.518l-1.153.015-.404-1.585c-.563-2.194-1.88-5.562-2.96-7.526-1.155-2.112-3.937-5.72-5.579-7.215-.693-.619-2.036-1.619-2.97-2.219-8.847-5.546-19.137-3.214-25.936 5.878-1.745 2.354-3.123 4.812-4.065 7.246l-.581 1.543-.303-1.161c-.376-1.474-.573-1.622-3.464-2.231-4.129-.89-5.143-.987-8.943-.848-3.224.134-3.758.196-6.357.821-1.561.39-3.092.799-3.417.912-.646.249-1.05.92-1.183 2.088-.054.388-.136.704-.192.705-.057 0-.299-.515-.528-1.158-.917-2.523-2.995-6.084-4.809-8.224-2.257-2.673-5.581-5.182-8.418-6.348-2.765-1.129-6.991-1.649-9.507-1.156zm6.756 2.262c4.922 1.327 9.405 4.912 12.464 9.978 4.367 7.212 5.723 16.885 3.581 25.642-2.663 10.89-10.106 18.513-18.885 19.309-2.293.214-5.351-.284-7.595-1.254-1.439-.61-4.012-2.188-5.101-3.153-4.854-4.192-8.232-10.805-9.278-18.172-1.031-7.292.327-15.299 3.598-21.259 1.043-1.9 3.628-5.224 5.056-6.519 2.784-2.532 5.914-4.163 9.191-4.814 1.475-.278 5.502-.144 6.969.242zm63.34-1.138c4.594.626 9.116 3.435 12.508 7.794 3.717 4.778 5.939 11.187 6.25 18.044.634 13.695-6.427 25.844-16.742 28.805-2.458.715-5.541.791-7.896.211-8.727-2.163-15.282-10.55-17.07-21.827-.484-2.971-.511-7.336-.08-10.319.675-4.761 2.182-9.014 4.539-12.837 3.176-5.146 8.586-9.06 13.55-9.808 1.507-.222 3.518-.248 4.941-.063zm-30.088 12.68c2.284.398 4.906.937 5.399 1.135.395.161.467.346.814 1.802.376 1.585.39 1.642.157 2.494-.249.948-.375 1.078-.518.507-.132-.535-.755-1.452-1.195-1.742-.212-.127-1.326-.445-2.495-.69-6.146-1.289-7.062-1.37-9.915-.724-4.863 1.117-6.142 1.447-6.479 1.673-.449.302-1.244 1.477-1.242 1.848.004.646-.279.372-.495-.475-.246-.922-.246-.996.068-2.518.205-1.074.398-1.65.595-1.819.251-.224 2.879-.869 5.776-1.443 1.533-.296 7.797-.321 9.53-.048zm-14.265 8.339c.199.257.23.682.201 2.771-.028 2.276-.055 2.5-.334 2.89l-.321.411-.003-.628c-.003-.351-.109-1.479-.243-2.493-.444-3.601-.455-3.232.036-3.238.242-.003.536.122.664.287zm19.989-.031c-.123.443-.467 3.87-.463 4.645.006.888-.175 1.094-.475.544-.186-.331-.231-.94-.243-2.883-.015-2.347-.001-2.458.293-2.61.45-.228.985-.049.888.304zm-65.1.903c-.014.129-.095.703-.19 1.257l-.163 1.022-1.335.312a20.79 20.79 0 00-1.73.448c-.786.269-.066.482 1.439.445.803-.03 1.478 0 1.52.034.029.056.033.425-.022.834l-.08.739-.942.142c-.928.141-2.767.847-2.626 1.013.029.057.859.082 1.829.052l1.776-.023.014 2.293-1.873.024c-1.013.031-2.054.099-2.279.16-.702.21-.831-.028-.513-.975.331-.946.356-1.614.109-2.905-.132-.813-.133-1.034.087-1.629.208-.594.22-.853.102-1.647-.087-.498-.145-.941-.131-.96.041-.056 4.189-.792 4.696-.836.169-.002.311.088.312.2zm112.047-1.169c1.126.133 2.057.288 2.087.324.027.017-.027.426-.108.889-.136.723-.122.945.124 1.663.271.793.272.903.08 1.96-.189 1.037-.188 1.204.026 1.995.492 1.753.546 1.604-.552 1.488-.536-.067-1.619-.109-2.408-.099l-1.451.019-.014-2.218 1.747.087c1.169.078 1.76.033 1.83-.098.124-.278-1.498-.923-2.625-1.058-.986-.098-1.099-.225-1.106-1.298-.002-.388.04-.406 1.518-.425 1.478-.019 2.208-.232 1.63-.465a16.96 16.96 0 00-1.466-.369c-1.847-.421-1.806-.385-1.893-.938-.308-1.976-.308-1.957.129-1.833.227.053 1.325.224 2.452.376zM8.676 45.882c.061.574.078 1.073.049 1.11-.056.076-4.023-1.817-4.151-1.981-.042-.055.829-.121 1.957-.135l2.041-.026.104 1.032zm113.815-2.354c0 .091-.87.584-1.936 1.116-2.119 1.061-2.09 1.061-1.931-.384l.079-.814 1.901-.023c1.042-.013 1.886.031 1.887.105zM6.425 82.42c-2.192.527-3.84 2.489-5.268 6.298-.968 2.621-1.185 3.973-1.15 7.192.028 2.403.089 2.975.405 4.266.608 2.525 1.45 4.365 3.654 8.127 1.98 3.379 4.149 5.755 7.812 8.574 2.658 2.057 4.679 3.196 7.981 4.524 4.22 1.684 6.66 2.246 11.207 2.52 3.394.214 4.52.109 6.754-.641 4.453-1.463 6.784-2.565 9.756-4.582 2.102-1.413 3.067-2.314 5.08-4.669 1.09-1.271 1.58-1.723 1.96-1.8 2.01-.47 2.795-.944 4.305-2.591.601-.673.643-.691.281-.17-.224.337-.937 1.124-1.566 1.76-.643.618-1.133 1.18-1.091 1.216.127.164 2.416-.79 3.159-1.318l.772-.526-.698.841-.699.86.576-.082c.394-.042.563-.008.521.142-.096.334 1.562-.076 2.532-.624 1.233-.701 1.402-.722 2.011-.323 1.172.762 3.767 1.451 3.525.936-.073-.129.054-.204.365-.208l.463-.006-.637-.712-.639-.734.834.546c.452.29.932.524 1.074.522.127-.002.521.123.888.285 1.185.521 1.171.207-.034-.925-.637-.603-1.147-1.131-1.147-1.169-.001-.055.14.055.325.218 1.231 1.15 1.938 1.492 3.671 1.823.382.067.791.395 1.416 1.109 1.714 1.938 3.06 3.29 4.191 4.164 1.896 1.474 5.229 3.242 7.925 4.225 4.077 1.483 5.488 1.818 7.486 1.792 3.463-.044 8.075-.751 10.59-1.633 2.695-.942 6.135-2.557 8.155-3.859 3.141-2.037 6.431-4.908 8.567-7.525 1.09-1.326 3.263-5.073 4.444-7.675 2.292-5.06 2.426-10.647.381-15.781-1.244-3.091-2.437-4.648-4.23-5.494-1.681-.81-3.89-.562-5.543.607-2.312 1.619-4.425 3.904-5.061 5.446-.264.651-.249.651.42-.21.853-1.083 2.14-2.246 3.219-2.925.717-.453.997-.513 2.166-.528 3.997-.032 6.461 2.249 7.306 6.768.32 1.735.228 5.009-.183 6.81-1.098 4.747-4.472 9.84-8.508 12.832-2.13 1.58-5.598 2.92-8.778 3.384-2.798.425-5.856-.091-8.608-1.425-2.245-1.099-4.001-2.335-5.544-3.923l-.75-.768 1.021-.901c3.85-3.359 5.691-10.633 3.902-15.325-.514-1.325-1.564-2.827-3.208-4.547-1.588-1.662-4.36-3.513-6.15-4.082-2.187-.695-2.129-.564.57 1.139 2.868 1.832 3.846 2.707 5.04 4.597 1.279 1.982 1.698 3.696 1.445 5.863-.308 2.63-1.17 4.231-2.923 5.42-1.962 1.318-5.327 1.397-7.235.164-1.315-.852-4.034-3.481-6.968-6.754-2.041-2.248-3.061-3.215-4.064-3.813-2.967-1.774-6.681-1.228-9.24 1.375l-.755.769-.724-.712c-3.241-3.104-7.674-3.047-10.865.175-.447.431-1.734 1.852-2.853 3.106-2.292 2.618-4.474 4.847-5.763 5.9-1.401 1.127-2.131 1.358-4.398 1.387-1.801.003-2.04-.03-2.876-.462-2.625-1.41-3.779-3.614-3.689-7.13.057-2.294.445-3.316 2.162-5.595 1.34-1.754 1.411-1.829 3.947-3.508 1.416-.961 2.44-1.731 2.285-1.729-.155.002-.858.212-1.531.48-2.249.88-4.546 2.611-6.642 4.968-2.376 2.693-3.112 4.534-3.105 7.732.014 2.312.275 3.66 1.234 6.161.616 1.602.929 2.172 1.895 3.417.624.824 1.474 1.72 1.884 2.009.41.274.707.584.665.677-.207.447-2.363 2.415-3.527 3.209-5.257 3.653-9.828 4.248-16.176 2.091-3.484-1.176-6.696-3.818-9.395-7.703-2.344-3.372-3.389-6.319-3.64-10.329-.187-2.92.54-6 1.838-7.755 1.745-2.37 5.61-3.417 7.815-2.133.902.525 2.303 1.728 3.098 2.66l.582.659-.286-.625c-.643-1.453-3.588-4.283-5.424-5.239-.792-.415-2.329-.803-2.975-.757a12.54 12.54 0 00-1.014.18zm3.203 1.086l.988.414-1.054.161c-1.646.242-2.377.51-3.511 1.265-1.907 1.245-3.105 3.387-3.705 6.557-.327 1.76-.179 4.923.34 7.023.982 3.981 3.457 8.241 6.716 11.585 4.818 4.952 13.346 6.839 19.059 4.25 1.431-.646 3.633-2.099 4.921-3.242 1.106-.977 2.852-3.014 3.076-3.591.193-.5.023-.887-.429-1.011-.55-.16-1.937-1.345-2.576-2.206-2.343-3.226-3.445-8.388-2.48-11.749.247-.872 1.277-2.919 1.46-2.921.055-.001-.041.389-.206.871-.264.762-.303 1.206-.277 3.111.017 2.774.306 3.843 1.441 5.419 1.478 2.052 3.412 3.008 6.058 2.955 3.168-.059 4.33-.923 10.553-7.845 3.55-3.966 4.319-4.549 6.569-5.003 2.208-.455 5.002.546 6.604 2.355.339.385.666.695.736.694.071-.001.337-.244.602-.525.812-.897 1.567-1.462 2.663-2.032.967-.492 1.22-.532 2.951-.573 1.746-.022 1.986.011 2.961.48 1.143.54 2.487 1.743 4.812 4.322.737.822 2.252 2.393 3.358 3.489 3.64 3.615 4.517 4.102 7.457 4.03 1.619-.041 1.943-.118 2.883-.574 2.456-1.233 3.852-3.191 4.325-6.084.231-1.445.104-3.738-.282-4.841-.157-.479-.244-.866-.16-.868.238-.002 1.267 2.24 1.513 3.31.737 3.208-.261 7.9-2.285 10.81-.921 1.308-2.473 2.75-2.966 2.757-.184.002-.253.151-.251.54.004.425.189.756.827 1.506 3.105 3.678 6.977 5.958 11.048 6.518 3.325.456 7.668-.543 11.218-2.566 2.16-1.249 3.197-2.114 5-4.189 2.962-3.421 5.105-7.61 5.84-11.411.341-1.762.393-4.759.118-6.271-.364-1.9-1.15-3.888-2.003-4.968-1.249-1.592-3.635-2.801-5.508-2.796-.421.005-.647-.067-.564-.159.307-.392 1.867-.839 3.007-.853 1.296-.034 2.072.29 3.036 1.237 1.004.987 2.745 4.534 3.364 6.875.389 1.492.57 5.671.33 7.689-.335 2.722-1.486 5.476-3.926 9.372-1.645 2.608-3.865 5.356-5.673 6.97-1.945 1.745-6.838 4.783-9.352 5.814-5.168 2.083-8.204 2.731-13.215 2.815-3.055.039-3.478.007-4.436-.333a50.724 50.724 0 00-1.976-.678c-1.397-.445-4.94-2.156-6.89-3.35-2.064-1.251-3.166-2.089-4.413-3.331-1.077-1.058-3.784-4.074-3.898-4.332-.157-.294-.382-.181-.281.151.057.184.13.442.187.589.101.351-1.443-.943-2.392-2.004-1.064-1.207-1.289-1.166-.619.103.186.366.315.66.271.66-.139.002-1.386-1.202-1.671-1.624-.326-.459-.508-.493-.506-.067.002.259-.042.24-.325-.088-.312-.366-.665-.529-.664-.305.001.239.502 1.341.901 2.002.539.881.256.7-1.004-.597-.482-.511-.948-.931-1.02-.931-.07.002-.297-.421-.499-.917-.357-.922-.639-1.065-.635-.361.003.46.619 2.247 1.032 2.981.341.626.202.57-.621-.252-.509-.509-.819-.543-.816-.081.001.13.227.46.511.733.709.749.498.826-.449.154l-.792-.544-.588.451c-.309.244-.758.546-.997.64-.379.19-.351.135.251-.556.642-.749.863-1.471.441-1.466-.114.002-.212.075-.211.168.001.184-1.103 1.327-1.287 1.329-.055.001.083-.353.306-.799.376-.763.969-2.545.966-2.915-.003-.482-.394-.088-.74.748-.223.521-.446.894-.516.839-.071-.053-.169-.016-.21.095-.14.28-1.902 2.059-2.071 2.062-.071 0 .067-.298.318-.671.503-.783.933-1.879.791-2.063-.057-.054-.295.133-.546.433-.28.355-.406.432-.351.207.124-.426-.213-.403-.522.045-.139.187-.613.712-1.076 1.141l-.839.789.444-.84c.6-1.153.456-1.411-.297-.494-.602.746-2.407 2.433-2.59 2.436-.042.001-.015-.166.069-.352.346-.892.023-.646-1.472 1.11-2.375 2.804-3.733 4.097-5.598 5.379-2.634 1.79-5.792 3.514-7.856 4.263-.534.19-1.461.535-2.037.746-.801.288-1.658.427-3.529.525-6.404.341-12.551-1.191-18.668-4.644-4.224-2.388-5.766-3.68-8.632-7.141-1.036-1.262-3.18-4.452-4.079-6.086-.91-1.634-1.755-3.973-2.134-5.873-.275-1.346-.306-1.902-.25-3.881.082-2.867.244-3.943.908-5.855.967-2.805 2.445-5.303 3.609-6.113 1.108-.773 2.894-.832 4.587-.151z"
        style="transform-origin:-.596px 3.004px" />
    <path
        d="M55.974 100.365l-.351.136.395.143c.451.142 1.365-.056 1.363-.297-.001-.223-.889-.211-1.407.018zm14.498-.206c.002.261.397.387 1.213.377.831-.011 1.012-.274.321-.452-.648-.158-1.535-.11-1.534.075zm-5.566 1.246c-.058.093.001.26.099.351.538.44 2.995 1.712 3.871 2.017 1.071.359 5.409.733 5.591.487.055-.074-.79-.288-1.903-.459-2.536-.378-4.215-.859-5.74-1.657-.664-.346-1.341-.711-1.511-.783-.196-.109-.352-.088-.407.044zm-10.951.493c-.898.347-3.393 2.018-3.266 2.184.028.036.646-.269 1.376-.671 1.501-.837 2.793-1.264 4.383-1.47.591-.082 1.082-.219 1.081-.311-.002-.316-2.563-.136-3.574.268zm7.309.279c-1.614.897-3.034 1.361-5.773 1.898l-1.956.38 1.703-.004c1.789-.005 3.392-.323 4.725-.954 1.11-.517 3.058-1.772 3.057-1.938-.002-.28-.311-.165-1.756.618zm9.076-.712c.001.187.422.274 2.086.457 1.057.116 2.284.586 4.12 1.548 1.483.782 1.355.56-.356-.665-1.555-1.098-2.91-1.546-4.542-1.525-.718.009-1.309.091-1.308.185zm19.664 4.552c-2.748 1.635-4.8 2.332-6.869 2.376-1.026.013-.63.381.567.534l.973.117-1.967.528c-1.084.293-2.377.588-2.883.651-1.702.246-3.493-.346-4.839-1.576-.212-.203-.494-.328-.62-.29-.351.097.345 1.075 1.192 1.66 1.189.842 2.316 1.105 4.061.972 1.702-.134 2.545-.404 4.467-1.417.716-.363 1.882-.879 2.597-1.13 1.223-.427 2.878-1.434 4.125-2.492.504-.436.656-.66.432-.62-.071.019-.618.324-1.236.687zm-52.926.436c.141.165.89.713 1.639 1.207 1.739 1.15 3.7 1.777 5.334 1.7 1.73-.06 1.728-.412-.019-.522-1.873-.142-2.818-.446-5.022-1.572-2.217-1.144-2.287-1.182-1.932-.813zm15.642 2.777c-1.737 1.531-3.466 1.794-6.61 1.053-2.974-.706-2.932-.707-2.254-.288 1.146.711 3.076 1.321 4.514 1.395 2.126.122 3.741-.495 4.915-1.886.896-1.075.541-1.238-.565-.274zm-13.304 2.052c-4.232 3.07-5.915 4.058-8.963 5.215-2.22.829-2.232 1.015-.054.391 2.544-.721 4.522-1.77 7.733-4.044 1.708-1.234 2.982-2.404 2.616-2.417-.086.001-.674.38-1.332.855zm48.153-.879c.779.865 6.107 4.222 7.703 4.853.774.306 2.016.681 2.749.858.734.158 1.494.316 1.664.371.183.053.294.014.253-.078-.044-.111-.326-.239-.607-.31-.817-.176-3.301-1.093-4.416-1.6-1.328-.615-3.588-2.001-5.653-3.463-1.84-1.317-2.53-1.569-1.693-.631zm-46.794 2.239c-1.093.702-2.844 2.102-2.632 2.099.252-.003 2.356-1.239 3.057-1.789 1.205-.965.908-1.183-.425-.31zm45.393-.955c.002.372 3.877 2.76 4.057 2.497.055-.054-2.037-1.648-3.028-2.286-.635-.403-1.031-.49-1.029-.211zm-41.359 2.15c-1.162 1.058-4.696 3.374-6.322 4.158-1.615.746-3.822 1.334-6.298 1.644-.886.105-1.644.263-1.687.32-.056.075.987.081 2.294.007 3.759-.196 5.443-.832 9.341-3.526 2.272-1.574 3.642-2.746 3.64-3.1-.002-.316-.185-.221-.968.497zm37.425-.982c.002.354 1.687 1.728 3.82 3.134 2.262 1.479 4.069 2.368 5.65 2.831 1.1.322 5.957.482 6.476.215.253-.133-.156-.183-1.55-.24-2.437-.118-5.17-.679-6.95-1.495-1.524-.667-4.83-2.748-6.246-3.903-.877-.715-1.202-.858-1.2-.542z"
        style="transform-origin:-.596px 3.004px" />
</svg>