<svg viewBox="0 0 850 600" xmlns="http://www.w3.org/2000/svg" className="h-full w-full" strokeWidth={10}
    strokeLinecap="round" fill="none" stroke="#000">
    <path
        d="M637.857 549.511c-7.249.518-14.978 1.359-22.245 1.383-3.871.013-3.559-3.718-8.208-1.35M310.19 575.133c3.658 3.135 10.265 4.413 14.557 6.033 9.716 3.668 19.403 7.424 29.017 11.353M352.242 524.752c-9.55-.392-19.133.899-28.629 1.845-1.842.184-8.792-.121-10.3 1.638-2.039 2.379 1.233 7.338 1.421 9.753.282 3.629-3.044 5.433-3.392 8.638-.394 3.623 2.012 7.412 2.436 10.973.63 5.288-7.055 12.173-1.816 16.327 2.263 1.794 8.769-.368 11.419-.486 8.684-.388 16.806.145 25.273 1.106" />
    <path
        d="M430.659 413.445c-5.554 4.769-11.014 9.716-16.887 14.085a157.206 157.206 0 0 0-5.108 3.986c-.799.648-1.598 1.298-2.425 1.91-.432.32-1.854 1.094-1.388.824 22.976-13.307 49.843-25.286 76.497-28.151 30.184-3.244 70.812 8.012 97.731 20.931m62.644 21.189c-13.46 3.913-29.563-14.319-37.56-22.693-3-3.142-7.341-6.982-8.455-11.395m18.221 22.115c-6.523-.121-12.745-3.878-18.646-6.251-10.62-4.27-19.974-8.31-29.398-14.885-3.843-2.681-7.581-7.71-11.692-9.73m33.942-25.156c-15.444-11.744-41.343-11.599-59.613-12.497-1.568-.077-16.881-.687-17.34-.157-.819.946 2.279 1.042 3.457 1.465 1.351.486 2.704.967 4.056 1.448 5.334 1.899 10.655 3.844 16.053 5.556m-13.719-3.599c-3.773-2.83-15.531-1.573-20.568-1.755-20.171-.728-44.259-1.669-61.121 11.716m202.293 65.448c.443-24.056-2.017-38.415-16.817-58.372-.867-1.169-10.782-14.392-12.46-14.514-.795-.058.048 1.601.209 2.382.455 2.202.913 3.938 1.484 6.222 1.51 6.036 3.512 12.061 4.093 18.28m-1.336-5.135c-1.673-10.156-15.039-18.378-23.276-22.743-.436-.231-10.883-6.592-12.267-4.963-1.37 1.613 1.957 3.771 3.194 5.489 3.689 5.121 8.467 9.991 10.936 15.865m-140.664-16.132c-11.325 1.805-19.02 12.835-26.138 20.628-10.779 11.802-23.721 22.788-33.273 35.57m2.499-1.579c12.277-5.981 20.601-7.245 33.273-15.777" />
    <path
        d="M432.288 415.342c-1.707 1.465-3.413 2.954-5.133 4.444 17.176-7.952 35.627-14.165 53.926-16.173 15.366-1.621 33.488.399 50.923 4.455a248.695 248.695 0 0 1 25.518 7.425 242.3 242.3 0 0 1 10.127 3.797 100.091 100.091 0 0 1-3.194-2.13c-2.098-1.489-4.142-3.538-6.044-5.356-.95-.909-1.845-1.739-2.767-2.483-.916-.738-3.021-1.995-3.021-1.995a2.5 2.5 0 0 1 .519-4.297 2.495 2.495 0 0 1 2.481.301s8.137 7.328 11.692 9.73c9.205 6.452 18.31 10.358 28.901 14.615 3.794 1.537 7.471 3.543 11.132 4.819-1.896-1.954-3.582-3.764-4.993-5.242-1.458-1.528-3.352-3.328-5.041-5.339-1.691-2.014-3.52-6.174-3.52-6.174a2.49 2.49 0 1 1 4.064-2.883s.065.125 0 0c0 0 .831 2.291 1.37 3.2.542.916 1.161 1.744 1.915 2.641 1.509 1.798 3.286 3.489 4.828 5.103 4.021 4.211 9.913 10.715 16.439 15.692 5.82 4.438 11.447 7.621 16.744 6.794a193.363 193.363 0 0 0-.009-6.984c-.053-2.702-.167-5.24-.364-7.718-.392-4.947-1.086-9.398-2.257-13.818-2.344-8.843-6.429-17.004-13.716-26.8-.512-.691-3.78-5.295-6.569-8.941.076.302.155.613.235.936 1.484 5.945 3.518 12.157 4.157 18.653a2.5 2.5 0 1 1-4.978.466 43.347 43.347 0 0 0-.52-3.827 2.35 2.35 0 0 1-.607-.516s-.052-.136 0 0c0 0-.661-2.641-1.143-3.714-.485-1.079-1.051-2.038-1.797-3.084-1.502-2.106-3.367-3.999-5.57-5.861-4.415-3.731-9.582-6.742-13.656-8.9-.281-.151-2.976-1.781-5.723-3.151l-.254-.125.103.132c3.567 4.976 8.483 10.092 11.212 16.357a2.5 2.5 0 0 1-4.61 1.938c-1.249-3.102-3.277-5.929-5.493-8.753a2.496 2.496 0 0 1-.774-.225s-.048-.032 0 0c0 0-2.02-1.452-3.014-2.066a39.644 39.644 0 0 0-3.045-1.701c-2.134-1.077-4.32-1.972-6.689-2.773-4.746-1.604-9.778-2.668-15.042-3.428-10.533-1.522-21.457-1.709-30.632-2.159a304.25 304.25 0 0 1-3.681-.245c3.592 1.279 7.174 2.532 10.786 3.677a2.5 2.5 0 0 1-1.512 4.766c-3.88-1.231-7.715-2.579-11.525-3.937a2.493 2.493 0 0 1-1.846.422s-2.557-1.188-4.097-1.443c-1.581-.261-3.376-.364-5.344-.395-3.941-.06-8.166.204-10.809.114-14.507-.523-30.611-1.296-44.477 3.186-.091.073-.187.14-.289.2 0 0-.11.036 0 0 0 0-.404.09-.973.225-3.429 1.201-6.71 2.74-9.785 4.704a42.996 42.996 0 0 0-3.057 2.624c-4.091 3.828-7.735 8.454-11.353 12.42-8.272 9.046-17.681 17.503-25.829 26.558.314-.132.606-.253.869-.359 2.728-1.103 5.31-2.086 7.881-3.139 5.144-2.108 10.169-4.436 16.336-8.606a2.5 2.5 0 0 1 2.812 4.135 2.904 2.904 0 0 1-.218.211zm-34.967 16.581a2.502 2.502 0 0 1-4.006-2.994c9.745-12.986 22.765-24.067 33.43-35.759 3.097-3.386 6.399-7.523 10.144-11.262a2.487 2.487 0 0 1 .897-1.465c4.664-3.601 9.83-6.205 15.278-8.075.042-.034.025-.019 0 0l.027-.009a2.448 2.448 0 0 1 1.011-.337c14.967-4.853 31.936-4.359 46.449-3.835 1.87.072 4.826-.079 8.003-.118-.034-.655.425-1.667.738-2.136 1.454-.96 17.773-.78 19.353-.703 9.095.448 20.256.637 31.101 2.204 5.424.784 10.905 1.942 15.929 3.641 1.142.386 2.448.946 3.784 1.58-.346-.499-.676-1.083-.841-1.626-.282-.928.108-2.568.74-3.642.822-.607 2.146-1.177 2.922-1.142.634.028 1.478.214 2.171.432 1.321.414 2.951 1.145 4.416 1.876 2.931 1.461 5.678 3.127 5.834 3.207 5.17 2.742 12.923 10.883 18.039 16.639-.38-1.396-.76-2.803-1.116-4.226-.567-2.268-1.037-4.055-1.508-6.323-.012-.167-.259-.712-.433-1.381-.097-.37-.218-1.159-.109-1.734.079-.416.541-1.315 1.014-1.686.44-.345 1.439-.548 1.95-.579 2.587.619 13.415 14.344 14.286 15.518 7.513 10.161 12.058 19.158 14.533 28.497 1.238 4.672 2.002 9.569 2.409 14.704.203 2.563.324 5.249.378 8.015.048 2.43.003 7.236-.009 8.358a2.501 2.501 0 0 1-1.714 3.058c-7.624 1.881-16.137-1.885-23.043-7.152a84.664 84.664 0 0 1-5.631-4.729c-7.095-.343-13.712-4.156-19.397-6.424-4.413-1.775-8.646-3.531-12.776-5.455a2.5 2.5 0 0 1-3.509 2.455s-3.435-1.616-5.202-2.399a205.158 205.158 0 0 0-5.423-2.315 242.564 242.564 0 0 0-36.569-11.663c-17.154-3.99-34.438-5.976-49.256-4.353-25.856 2.719-51.803 14.203-74.404 27.19a24.037 24.037 0 0 1-1.228.713l-.116.06a3.257 3.257 0 0 1-.247.105c-.154.056-1.591.225-2.351-.339-.33-.245-.834-.987-.938-1.41-.088-.357-.052-1.018.022-1.279.087-.309.345-.745.452-.879.106-.133.291-.309.356-.363.147-.122.357-.25.437-.296.374-.217.75-.433 1.126-.649l.027-.021c.782-.577 1.538-1.194 2.338-1.843a161.327 161.327 0 0 1 5.484-4.268c-1.726.684-3.456 1.356-5.223 2.07a154.422 154.422 0 0 0-4.097 1.717c-1.408.615-4.435 2.045-4.435 2.045.02-.009 0 0 0 0a2.51 2.51 0 0 1-1.054.194c-.149.196-.297.393-.443.591zm155.302-24.597s.075.056 0 0zm-32.002-32.419s-.17-.041 0 0zM396.88 426.529c-.021.009 0 0 0 0z" />
    <path
        d="M642.05 560.379c-.259 0 6.649-3.793 7.176-4.382 2.9-3.237 4.907-5.773 5.077-10.142.139-3.588.074-7.195.104-10.786.021-2.523 1.533-10.598-1.082-13.087-3.231-3.075-10.583-.375-14.258-.283M639.739 561.093c-5.545-.962-15.926-4.038-21.104-2.499-1.829.544-2.293 3.235-3.932 4.153-1.911 1.071-4.547-.002-6.519-.028" />
    <path
        d="M-825.414-591.212s-1.761-.239-2.663-.344c-.906-.105-1.829-.201-2.763-.288-1.868-.175-3.78-.316-5.693-.426-3.825-.22-7.652-.318-11.128-.327-2.006.03-2.87.947-3.812 1.558-.447.287-1.07.659-1.821.673-.661.012-1.556-.29-2.63-.91" />
    <path
        d="M-1138.372-615.123c3.694-3.126 10.237-4.401 14.557-6.033a1633.273 1633.273 0 0 0 24.549-9.524M-1096.321-564.74c-9.549.397-19.135-.897-28.629-1.845-1.844-.184-8.789.121-10.3-1.639-2.039-2.376 1.234-7.34 1.423-9.752.285-3.63-3.045-5.434-3.394-8.639-.394-3.621 2.015-7.41 2.436-10.971.625-5.285-7.051-12.177-1.816-16.328 2.262-1.794 8.772.367 11.421.485 8.686.388 16.806-.184 25.272-1.104" />
    <path
        d="M-826.089-607.53c-.061.005-.119-.01-.095.006-.019-.042-.047-.014-.007.001-.074 0 .004.029.012.012-.003.01.017.021.04.04.033.031.093.076.179.141.165.124.415.3.725.515.62.43 1.476 1.011 2.355 1.609 1.757 1.195 3.596 2.444 3.88 2.76 2.892 3.228 4.894 5.75 5.078 10.145.142 3.587.074 7.191.104 10.78.008 1.232.435 3.794.549 6.361.115 2.57-.263 5.354-1.64 6.734-1.668 1.513-4.279 1.623-6.953 1.325-1.352-.152-2.716-.402-3.973-.621-1.227-.214-3.323-.427-3.323-.427" />
    <path
        d="M-823.177-612.163c-5.534.959-15.941 4.038-21.12 2.492l.451.135-.277-.096c-1.035-.359-1.687-1.185-2.196-1.97-.533-.832-1.063-1.711-1.894-2.215-2.012-1.008-6.456.063-6.456.063" />
    <path
        d="M762.466 521.086s-19.814-11.483-24.134-13.728c-5.459-2.838-20.462-8.866-38.069-8.621-17.662.246-29.553.492-44.439 10.001-15.395 9.834-19.179 14.249-19.179 6.724 0-9.983 4.102-12.874 12.888-17.615 14.303-7.719 71.506-13.511 95.679-1.242 20.786 10.55 15.852 24.693 17.254 24.481z" />
    <ellipse cx="225" cy="0" rx="150" ry="150" />
    <ellipse cx="625" cy="0" rx="150" ry="150" />
    <path
        d="M798.431 399.698c-1.707-1.414-3.413-2.85-5.132-4.288 17.173 7.672 35.622 13.667 53.919 15.604 15.363 1.564 33.483-.385 50.916-4.298a255.61 255.61 0 0 0 25.514-7.164 247.264 247.264 0 0 0 10.127-3.663 99.192 99.192 0 0 0-3.194 2.055c-2.098 1.436-4.142 3.413-6.043 5.167-.951.877-1.845 1.678-2.767 2.396-.916.712-3.021 1.925-3.021 1.925a2.374 2.374 0 0 0-.98 2.218c.107.855.678 1.59 1.499 1.927a2.567 2.567 0 0 0 2.48-.29s8.137-7.07 11.691-9.388c9.204-6.224 18.308-9.993 28.898-14.1 3.793-1.483 7.47-3.418 11.131-4.649-1.896 1.885-3.583 3.631-4.993 5.057-1.458 1.474-3.352 3.211-5.04 5.151-1.692 1.943-3.52 5.957-3.52 5.957a2.33 2.33 0 0 0-.238 2.397 2.486 2.486 0 0 0 2.035 1.393 2.523 2.523 0 0 0 2.267-1.009s.064-.12 0 0c0 0 .83-2.21 1.37-3.087.541-.884 1.16-1.683 1.914-2.548 1.509-1.735 3.286-3.366 4.828-4.923 4.02-4.063 9.911-10.338 16.436-15.14 5.82-4.282 11.446-7.353 16.742-6.555a186.355 186.355 0 0 1-.008 6.738 119.99 119.99 0 0 1-.365 7.447c-.392 4.772-1.085 9.067-2.257 13.331-2.343 8.532-6.427 16.406-13.713 25.857-.513.666-3.78 5.108-6.569 8.626.076-.291.156-.591.235-.903 1.484-5.736 3.517-11.729 4.157-17.996.128-1.327-.883-2.503-2.256-2.627-1.375-.124-2.594.851-2.721 2.177a41.125 41.125 0 0 1-.52 3.692c-.228.13-.434.297-.607.498 0 0-.052.131 0 0 0 0-.661 2.548-1.144 3.583-.485 1.041-1.05 1.967-1.796 2.976-1.502 2.032-3.367 3.858-5.57 5.655-4.414 3.599-9.58 6.504-13.654 8.586-.28.146-2.975 1.719-5.722 3.04l-.254.121.103-.127c3.566-4.801 8.482-9.737 11.211-15.782.534-1.228-.063-2.642-1.337-3.158-1.272-.517-2.738.06-3.273 1.289-1.249 2.992-3.277 5.72-5.492 8.444a2.566 2.566 0 0 0-.774.218s-.048.03 0 0c0 0-2.02 1.4-3.014 1.993a39.801 39.801 0 0 1-3.045 1.641c-2.133 1.039-4.319 1.903-6.688 2.675-4.744 1.548-9.776 2.574-15.04 3.308-10.532 1.468-21.454 1.649-30.627 2.083-.435.02-1.862.114-3.681.236 3.592-1.234 7.173-2.443 10.784-3.548 1.316-.402 2.044-1.758 1.627-3.028-.417-1.27-1.822-1.972-3.138-1.57-3.88 1.188-7.714 2.488-11.524 3.799a2.554 2.554 0 0 0-1.846-.407s-2.556 1.146-4.096 1.392c-1.581.252-3.376.351-5.343.381-3.941.058-8.165-.197-10.808-.11-14.505.504-30.607 1.25-44.472-3.074a2.41 2.41 0 0 0-.288-.193s-.11-.035 0 0c0 0-.404-.087-.973-.217-3.428-1.159-6.709-2.644-9.784-4.538a42.348 42.348 0 0 1-3.056-2.532c-4.091-3.693-7.735-8.157-11.352-11.983-8.271-8.728-17.679-16.887-25.826-25.623.314.127.606.244.87.346 2.727 1.064 5.309 2.013 7.879 3.029 5.143 2.034 10.168 4.28 16.334 8.303 1.145.744 2.699.451 3.47-.654.766-1.099.47-2.587-.658-3.336a2.812 2.812 0 0 0-.218-.203zM763.468 383.7c-.827-1.067-2.394-1.285-3.499-.488-1.106.798-1.332 2.31-.506 3.377 9.744 12.529 22.762 23.22 33.426 34.5 3.096 3.267 6.397 7.259 10.142 10.866.113.539.416 1.045.897 1.413 4.664 3.475 9.828 5.987 15.276 7.791.042.033.025.018 0 0l.027.009c.313.181.659.29 1.011.325 14.965 4.682 31.932 4.206 46.443 3.7 1.87-.069 4.825.076 8.002.114-.034.632.425 1.608.738 2.061 1.454.926 17.77.752 19.351.678 9.093-.432 20.253-.615 31.096-2.127 5.424-.756 10.904-1.873 15.927-3.512 1.142-.373 2.448-.913 3.784-1.525-.346.482-.676 1.045-.841 1.569-.282.895.108 2.478.74 3.514.822.585 2.145 1.135 2.921 1.102.634-.027 1.478-.207 2.171-.417 1.321-.4 2.951-1.105 4.416-1.81 2.93-1.41 5.677-3.017 5.833-3.094 5.169-2.646 12.922-10.5 18.037-16.054-.38 1.347-.76 2.705-1.116 4.078-.567 2.188-1.038 3.912-1.508 6.1-.012.161-.259.687-.433 1.332-.097.357-.218 1.119-.109 1.673.079.402.541 1.269 1.013 1.627.44.333 1.44.529 1.95.559 2.587-.597 13.414-13.839 14.285-14.972 7.512-9.803 12.056-18.484 14.531-27.494 1.238-4.508 2.002-9.232 2.408-14.186.204-2.473.324-5.065.378-7.733.049-2.345.003-6.982-.008-8.064.358-1.267-.403-2.582-1.714-2.95-7.624-1.815-16.135 1.818-23.04 6.9a84.455 84.455 0 0 0-5.631 4.562c-7.094.331-13.71 4.01-19.394 6.198-4.412 1.713-8.645 3.407-12.774 5.263a2.33 2.33 0 0 0-.211-1.142c-.559-1.218-2.036-1.767-3.298-1.226 0 0-3.435 1.559-5.201 2.314a205.016 205.016 0 0 1-5.423 2.234 249.126 249.126 0 0 1-36.564 11.252c-17.152 3.85-34.433 5.766-49.25 4.2-25.853-2.623-51.796-13.703-74.394-26.233a23.95 23.95 0 0 0-1.228-.688l-.116-.058a3.415 3.415 0 0 0-.247-.101c-.154-.054-1.591-.217-2.351.327-.33.236-.833.952-.938 1.36-.087.345-.052.983.023 1.234.086.298.345.719.452.848.105.129.29.299.355.351.148.117.357.241.437.285.375.21.751.418 1.126.626l.027.021c.783.556 1.538 1.152 2.338 1.778a163.132 163.132 0 0 0 5.19 3.907l.294.211c-1.726-.66-3.456-1.309-5.223-1.998a157.583 157.583 0 0 1-4.096-1.656c-1.408-.594-4.434-1.973-4.434-1.973.019.008 0 0 0 0a2.59 2.59 0 0 0-1.055-.187c-.149-.189-.297-.38-.443-.571zm155.282 23.732s.075-.054 0 0zm-31.998 31.278s-.17.039 0 0zm-123.725-49.805c-.021-.009 0 0 0 0z" />
    <path
        d="M443.53 405.461c7.881-2.743 15.984-5.035 24.238-6.261 4.759-.707 15.377 5.07 18.102 6.745 23.226 14.275 22.144 17.694 48.051 38.514 6.747 5.422 12.989 12.147 21.125 15.1 13.876 5.036 39.518 5.316 50.79-7.83 22.592-26.347.398-57.442-25.681-70.069-8.267-4.003-17.392-4.201-25.901-7.099-1.032-.352-2.053-1.573-1.912-2.654.663-5.071 10.352-.844 15.341.28 8.125 1.831 22.589 7.369 28.298 10.192 22.457 11.104 38.729 34.868 36.443 60.404-1.206 13.468-7.825 26.927-15.794 37.463-3.431 4.535-8.182 7.961-12.801 11.277-1.891 1.358-7.963.706-6.511 2.525 6.934 8.688 26.649 17.493 36.563 21.529 55.702 22.675 118.687-3.07 151.12-50.593 6.727-9.857 9.667-28.428 10.749-37.798 3.372-29.213-23.561-51.161-51.49-44.553-16.618 3.932-25.463 16.822-34.8 30.026-2.067 2.923-3.423 6.365-5.817 9.026-1.779 1.977-5.267.993-3.862-2.381 4.843-11.628 25.367-34.878 33.801-45.006 4.108-4.933 10.096-11.885 17.116-13.015 45.547-7.331 67.754 36.475 64.235 76.032-.711 7.988-.599 16.297-3.372 23.822-20.569 55.818-79.352 89.903-133.784 104.068-21.777 5.667-29.896 8.798-51.92 9.407-28.568.79-52.565-4.875-78.854-15.419-3.129-1.255-25.167-10.532-31.301-14.772-18.296-12.646-25.325-22.969-46.928-27.374-2.634-.537-5.373-.423-8.007-.961-2.83-.578-7.957-5.242-8.334-2.378-.289 2.2 13.101 6.066 14.804 7.296 1.603 1.157 2.553 5.234-1.484 4.445-3.534-.691-6.696-2.651-10.048-3.964-.277-.109-17.355-3.201-20.377-4.203a57.066 57.066 0 0 1-6.702-2.695c-1.339-.641-2.35-3.098-3.699-2.479-3.44 1.577-6.587 3.827-10.168 5.051-2.403.821-4.874 1.442-7.358 1.969-8.135 1.726-13.079 2.498-20.863 5.378-1.27.47-4.168 2.182-5.075-.646-1-3.12 10.029-6.586 12.244-7.89 1.257-.74 5.18-2.299 3.721-2.302-2.805-.006-5.349 1.73-8.097 2.292-9.91 2.026-22.964 2.709-31.311 9.417-17.93 14.409-17.946 17.164-33.857 24.673-39.773 18.77-80.077 30.23-124.395 22.201-63.966-11.589-137.295-45.865-161.322-111.077-2.777-7.536-2.666-15.856-3.378-23.856-3.528-39.651 18.759-83.505 64.392-76.157 7.004 1.128 13.107 8.097 17.173 13.055 9.908 12.082 27.283 30.199 33.51 44.998 1.156 2.748-1.552 4.824-3.725 2.611-1.249-1.272-1.766-3.102-2.758-4.583-4.154-6.203-7.178-10.16-12.343-16.788-11.679-14.988-24.515-19.809-43.807-18.139-6.571.569-13.075 4.075-18.11 7.967-20.335 15.72-15.29 42.608-9.131 64.26 5.279 18.558 21.872 32.95 36.915 43.683 31.648 22.581 62.531 27.3 101.265 22.957 9.059-1.016 27.942-10.077 35.416-14.417 5.553-3.224 10.651-7.175 15.938-10.819.882-.608 2.949-.933 2.567-1.934-.479-1.256-2.638-.665-3.81-1.324-3.28-1.845-6.554-3.769-9.471-6.147-5.203-4.242-12.282-15.525-14.602-19.961-13.09-25.032-7.344-58.467 15.995-75.563 12.667-9.279 27.042-14.756 41.991-18.707 1.174-.31 14.775-4.643 15.326-.264.462 3.672-6.378 3.203-8.18 3.545-6.833 1.298-15.155 2.91-20.959 7.059-18.719 13.382-42.776 31.363-31.247 58.069 1.711 3.963 4.149 7.644 6.959 10.92 11.241 13.107 36.836 12.821 50.663 7.801 8.123-2.949 14.353-9.666 21.089-15.08 18.026-14.489 35.945-35.278 58.666-43.739 11.063-4.12 20.326.714 31.859 4.726.627.218 11.765 7.283 13.635 8.463 1.63 1.028 3.111 3.804 4.896 3.076 3.703-1.511 11.545-9.056 18.35-11.425zM430.66 510.39c1.93.911 3.952 1.612 5.945 2.376.383.147 1.513.595 1.179.356-.929-.667-12.815-6.281-9.018-10.127 1.889-1.914 5.655 2.59 6.941 3.425 1.235.802 4.278 3.697 3.76 2.319-1.14-3.03-4.179-4.985-5.814-7.779-1.417-2.423-2.196-5.166-3.275-7.757-.442-1.062-1.966-2.4-1.182-3.242.972-1.044 2.937-2.274 4.05-1.382 2.835 2.273 2.867 6.678 4.282 10.025.43 1.016 2.649.565 3.082.754 3.784 1.651 6.338 8.131 11.635 9.276.735.159-1.282-.838-1.741-1.434-2.36-3.064-7.126-6.471-5.741-10.082 1.491-3.887 3.347.199 4.455.481.738.188 1.129-3.843 4.069-1.28 4.023 3.507 7.276 12.119 13.409 12.938 1.66.222-2.314-2.425-3.397-3.703-.847-1-6.668-7.334-2.271-8.588 2.593-.739 4.305 4.084 5.642 5.49 6.524 6.864 7.324 7.54 14.894 12.425.383.247-.866-.515-.978-.957-.273-1.076-.846-2.498-.109-3.329.7-.789 2.172-.476 3.163-.115 4.463 1.625 7.696 8.823 11.666 11.43 8.823 5.794 12.787 11.757 22.673 18.456 19.312 13.086 54.751 25.628 77.578 28.618 58.827 7.706 133.416-18.349 175.892-58.709 28.09-26.69 45.003-57.197 37.775-96.984-4.242-23.351-18.679-46.338-44.347-48.087-8.016-.546-16.004.03-22.147 5.665-2.138 1.961-3.875 4.321-5.769 6.519-.835.969-3.689 2.85-2.417 2.981 5.649.583 10.982-3.411 16.659-3.566 11.926-.326 22.402 1.915 32.055 9.444 22.478 17.533 17.683 45.874 10.802 70.244-3.107 11.004-17.405 27.759-22.787 33.382-18.544 19.377-50.493 36.376-77.702 37.043-32.24.79-52.505-.227-79.51-15.901-5.713-3.316-10.932-7.418-16.401-11.122-1.973-1.336-4.836-2.835-5.262-5.453-.826-5.078 7.05-5.416 9.48-7.157 4.126-2.956 8.333-6.061 11.372-10.126 17.623-23.572 20.614-52.461.545-74.876-5.03-5.618-9.665-11.039-16.812-14.208-2.293-1.017 3.89 3.173 5.741 4.867 6.814 6.235 13.622 13.869 15.927 23.205 4.521 18.309-3.999 42.416-23.687 48.109-13.139 3.799-28.581 4.369-41.504-.289-10.649-3.838-48.9-39.055-52.926-42.286-5.024-4.033-23.449-19.281-33.109-17.78-7.43 1.155-14.734 3.207-21.816 5.734-6.871 2.452-13.278 12.201-20.736 11.952-3.451-.115-9.833-5.617-12.325-7.165-10.507-6.527-23.816-14.074-36.399-9.311-22.103 8.367-39.605 28.843-57.185 42.892-7.133 5.7-13.755 12.748-22.344 15.844-9.217 3.323-19.466 2.692-29.263 2.76-25.674.179-41.493-27.238-35.771-50.417 2.291-9.28 9.084-16.978 15.892-23.151 2.18-1.977 9.509-6.724 6.757-5.681-7.409 2.808-12.924 9.171-17.996 14.836-15.629 17.456-18.901 40.933-7.758 62.263 2.219 4.248 8.72 14.541 13.578 18.561 2.004 1.658 14.539 5.905 15.49 9.849.795 3.298-3.031 5.447-5.157 6.924-5.42 3.766-10.68 7.8-16.388 11.113-61.868 35.909-135.777 13.323-174.632-43.59-7.165-10.495-10.204-30.283-11.353-40.199-2.619-22.598 13.403-47.39 37.071-49.488 5.164-.458 10.366-.469 15.548-.328 3.463.094 11.297 3.629 13.346 3.356 1.427-.19-1.789-2.256-2.729-3.347-1.9-2.204-3.642-4.569-5.787-6.536-6.17-5.657-14.182-6.241-22.235-5.694-25.723 1.747-40.203 24.793-44.455 48.192-10.602 58.342 32.843 101.689 79.923 127.255 39.235 21.306 89.298 34.429 133.88 28.588 23.196-3.039 46.719-13.449 67.688-23.33 19.047-8.976 28.134-23.026 44.302-35.213.843-.635 2.466-.664 3.163.128.734.834-1.011 3.994-.122 3.329 2.92-2.184 6.067-4.093 8.76-6.551 3.495-3.189 4.884-9.582 9.52-10.527 3.625-.739 2.596 3.746 1.266 5.35-1.976 2.384-9.074 6.289-6.068 7.033 5.911 1.463 10.189-10.747 14.2-13.71 2.449-1.809 3.032 1.824 3.645 1.658 1.282-.347 2.512-2.395 3.621-1.663 3.489 2.303-2.47 8.181-5.021 11.492-.452.586-2.436 1.573-1.713 1.413 5.147-1.142 7.314-5.471 11.221-8.413 1.008-.759 2.953-.406 3.445-1.568.981-2.319 1.962-4.637 2.927-6.963.411-.992 1.696-4.705 3.396-3.972 7.159 3.087-8.587 19.227-8.174 21.015.727 3.15 7.571-8.333 10.484-5.819 3.715 3.205-4.064 6.73-8.804 10.196-.328.24.788-.205 1.166-.352 3.042-1.181 15.536-3.029 17.177-2.254zm24.702-39.81c8.219 2.59 16.791 3.922 25.276 5.429 5.243.932 22.052-2.191 22.219 2.232.192 5.084-9.909 2.83-14.996 2.835-11.322.012-23.52-2.769-33.844-6.003-7.578-2.374-14.591-6.273-21.862-9.464-2.973-1.305 13.957 2.057 23.207 4.971zm13.718-11.035c7.983.401 15.456 2.72 23.213 4.193.59.112-1.094-.493-1.652-.715-1.014-.403-2.021-.83-3.061-1.157-2.023-.637-4.041-1.319-6.121-1.733-4.703-.937-20.554.225-20.551-3.759.004-4.694 17.32-1.683 21.431-.861 2.074.415 10.832 2.303 12.928 4.443.771.787 1.445 1.96 1.276 3.048-.127.819-2.672 1.039-1.983 1.501 5.847 3.92 12.616 6.263 18.74 9.733 2.308 1.308 11.315 6.735 10.778 10.254-.859 5.633-12.735-6.078-13.337-6.389-7.634-3.94-15.316-7.863-23.343-10.922-6.961-2.653-22.762-7.859-18.318-7.636zm62.039 45.827c6.182-.798 24.265-4.255 18.06-4.849-2.377-.228-4.772.333-7.159.27-.429-.011-6.446.372-7.477-1.748-.912-1.875.441-3.163 2.105-3.425 3.28-.516 7.625.672 10.979.308 14.722-1.597 18.666-3.417 35.283-10.584 6.665-2.874 11.8-8.608 18.376-11.68.957-.447 2.517-.414 3.138.44 2.868 3.947-17.136 14.335-19.531 15.464-22.861 10.776-46.57 23.179-72.63 20.455-10.737-1.122-14.123-2.313-21.658-7.352-1.509-1.009-7.716-5-5.5-7.805 1.958-2.478 30.276 12.537 46.014 10.506zm12.829 16.218c5.68 3.501 11.107 7.517 17.196 10.244 12.582 5.635 25.558 10.398 38.636 14.762 15.426 5.147 32.499 1.499 48.699 2.918 1.078.094 2.272 1.206 2.302 2.287.03 1.084-1.088 2.393-2.172 2.423-12.928.359-25.869-.504-38.778-1.286-16.774-1.016-38.89-11.615-50.689-16.891-2.002-.895-21.071-10.771-25.513-16.003-4.089-4.816 7.852.026 10.319 1.546zm39.992 3.166c4.508 2.152 9.274 3.727 14.001 5.341 3.161 1.079 9.448 1.278 8.915 4.575-.544 3.365-6.999 1.029-10.225-.07-13.237-4.508-16.371-5.934-28.219-13.464-3.847-2.445-10.82-4.404-10.348-8.937.279-2.683 22.57 10.977 25.876 12.555zm-14.288-20.353c2.216 1.294 4.387 2.666 6.63 3.913 4.509 2.506 8.715 5.756 13.624 7.344 26.005 8.411 52.739 14.419 78.83 22.558 1.041.325 2.068 1.554 1.936 2.636-.13 1.069-1.461 2.302-2.505 2.038-1.111-.281-83.136-16.869-103.598-36.215-4.308-4.073 4.134-2.828 5.083-2.274zm-148.347-40.571c-4.515 4.671-11.652 5.778-17.677 8.208-17.289 6.972-19.946 6.601-41.369 8.909-1.305.141-15.163 1.279-14.988-2.847.172-4.051 13.39-1.7 14.924-1.864 8.435-.902 16.919-1.681 25.212-3.466 9.147-1.969 37.144-12.298 33.898-8.94zm-79.022 12.141c-6.977 3.748-13.092 13.137-15.906 9.651-2.879-3.566 8.353-10.422 13.585-13.68 4.869-3.032 10.672-4.399 15.456-7.562.652-.431-1.746-.653-1.862-1.426-.163-1.091.212-2.571 1.186-3.09 7.481-3.985 12.778-4.617 20.47-5.417 1.535-.16 16.601-2.889 13.709 2.899-1.125 2.251-5.732 1.239-7.622 1.362-7.983.522-15.555 1.14-22.965 4.689-2.166 1.037 4.612-1.382 6.977-1.797 5.213-.914 10.466-1.601 15.726-2.184 6.516-.722-24.272 8.775-38.754 16.555zm22.366 22.114c-3.337 3.283-7.123 6.305-11.407 8.193-4.824 2.125-10.153 3.068-15.396 3.616-6.436.672-12.989.801-19.412.02-17.293-2.104-40.821-14.433-56.536-22.299-2.449-1.226-16.808-8.321-16.546-12.322.14-2.148 1.937-2.427 3.482-1.791 5.259 2.167 10.107 7.423 15.246 9.999 16.635 8.338 27.346 11.197 45.884 12.317 1.352.082 10.604.935 3.866 4.368-3.88 1.976-8.715-.111-13.062.136-.6.034 1.105.484 1.686.641 5.506 1.485 10.904 3.59 16.565 4.28 8.8 1.072 23.912.467 32.608-3.358 4.606-2.026 17.095-7.808 13.022-3.8zm-56.165 27.389c-5.799 3.574-11.339 7.676-17.557 10.457-28.524 12.756-41.869 16.856-70.053 18.32-.708.037-21.643 1.645-21.529-2.578.102-3.794 10.323-2.066 11.878-2.064 12.579.013 27.031.884 39.095-3.141 13.068-4.36 26.034-9.118 38.606-14.749 9.295-4.163 19.624-6.284 19.56-6.245zm-16.94-11.618c-2.778 2.98-6.465 4.975-9.897 7.17-12.93 8.272-13.887 8.211-28.191 13.451-1.857.68-7.715 3.362-9.58 1.272-3.549-3.976 6.774-5.23 8.269-5.777 9.43-3.451 18.699-7.613 27.187-12.979 3.867-2.444 16.447-7.679 12.212-3.137zm-8.848-5.517c-3.906 2.567-19.216 10.947-20.615 11.462-19.533 7.184-39.438 13.33-59.329 19.451-2.064.635-11.929 2.279-15.589 2.844-1.673.258-7.33 2.045-7.726-1.386-.405-3.507 21.41-5.756 22.477-6.084 19.531-6.003 39.074-12.031 58.251-19.082 8.503-3.126 25.99-9.479 22.531-7.205z" />
</svg>