<?xml version="1.0" standalone="no"?>
<!DOCTYPE svg PUBLIC "-//W3C//DTD SVG 20010904//EN"
 "http://www.w3.org/TR/2001/REC-SVG-20010904/DTD/svg10.dtd">
<svg version="1.0" xmlns="http://www.w3.org/2000/svg"
 width="200.000000pt" height="200.000000pt" viewBox="0 0 200.000000 200.000000"
 preserveAspectRatio="xMidYMid meet">

<g transform="translate(0.000000,200.000000) scale(0.100000,-0.100000)"
fill="#000000" stroke="none">
<path d="M320 1854 c-244 -66 -381 -336 -291 -574 41 -109 140 -208 251 -252
78 -31 232 -31 310 0 153 61 264 208 277 367 9 116 49 165 133 165 84 0 124
-49 133 -165 13 -159 124 -306 277 -367 78 -31 232 -31 310 0 110 44 208 142
252 252 17 44 22 76 22 155 0 116 -20 178 -82 260 -166 218 -485 233 -670 30
-25 -27 -56 -74 -69 -102 -14 -29 -26 -53 -28 -53 -2 0 -20 11 -40 24 -51 35
-115 43 -170 22 -24 -10 -49 -24 -55 -32 -20 -23 -27 -17 -53 39 -85 184 -306
285 -507 231z m291 -96 c259 -137 254 -519 -8 -651 -26 -14 -74 -30 -105 -36
-153 -32 -327 59 -396 207 -24 50 -27 69 -27 162 0 95 3 110 28 158 39 75 87
124 156 161 108 57 244 57 352 -1z m1130 0 c69 -36 117 -86 156 -160 25 -48
28 -63 28 -158 0 -93 -3 -112 -27 -162 -69 -148 -243 -239 -396 -207 -204 42
-327 215 -300 422 33 247 314 385 539 265z"/>
<path d="M675 822 c-76 -38 -150 -102 -260 -224 -89 -100 -137 -138 -172 -138
-29 0 -46 25 -39 54 7 30 35 40 69 25 31 -14 67 3 67 32 0 33 -28 78 -60 94
-66 34 -182 9 -228 -50 -36 -45 -55 -121 -50 -194 18 -245 264 -374 555 -291
117 34 267 111 391 202 l53 39 37 -29 c54 -43 208 -134 280 -166 230 -101 436
-94 572 20 95 80 135 237 90 357 -32 85 -92 127 -180 127 -62 0 -105 -20 -125
-60 -32 -62 -8 -102 49 -82 41 15 64 7 72 -24 7 -29 -11 -54 -39 -54 -35 0
-83 38 -173 138 -114 127 -185 188 -262 224 -57 28 -71 30 -136 26 -56 -4 -86
-12 -129 -35 l-57 -31 -57 31 c-46 25 -71 31 -132 34 -68 4 -82 1 -136 -25z
m231 -81 c21 -12 51 -30 67 -39 25 -16 29 -16 55 0 73 45 109 60 158 65 98 10
175 -44 385 -274 95 -104 176 -136 249 -98 55 29 76 108 45 170 l-15 30 29
-31 c70 -76 45 -226 -51 -308 -76 -66 -212 -86 -349 -51 -89 22 -267 113 -374
190 -49 36 -97 65 -105 65 -8 0 -55 -29 -105 -65 -107 -77 -285 -168 -374
-190 -221 -56 -404 28 -435 198 -11 61 3 126 35 161 l29 31 -15 -30 c-31 -62
-10 -141 45 -170 72 -37 151 -6 247 97 219 236 285 283 384 275 30 -3 73 -15
95 -26z"/>
<path d="M1142 688 c-32 -32 -5 -68 53 -68 68 0 147 -63 269 -212 39 -48 62
-58 84 -36 23 23 11 51 -63 138 -81 95 -127 135 -192 169 -47 23 -131 29 -151
9z"/>
<path d="M1022 630 c-24 -23 -28 -50 -10 -68 18 -18 42 -14 66 11 50 53 -3
106 -56 57z"/>
</g>
</svg>
