<?xml version="1.0" encoding="utf-8"?>
<svg viewBox="0 0 850 600" xmlns="http://www.w3.org/2000/svg">
  <g stroke-linecap="round" fill="none" stroke="#000"
    transform="matrix(1, 0, 0, 1.060322999954, 21.598297119141, -0.443161966683)"
    style="transform-origin: -21.5984px 0.443077px;">
    <g transform="matrix(1.025965, 0, 0, 1.001838, -308.175293, -350.679749)"
      style="transform-origin: 254.13px 320.688px;">
      <path
        d="M 637.857 549.511 C 630.608 550.029 622.879 550.87 615.612 550.894 C 611.741 550.907 612.053 547.176 607.404 549.544"
        style="stroke-width: 5px;" stroke-linejoin="round" />
      <path
        d="M 310.19 575.133 C 313.848 578.268 320.455 579.546 324.747 581.166 C 334.463 584.834 344.15 588.59 353.764 592.519"
        style="stroke-width: 5px;" stroke-linejoin="round" />
      <path
        d="M 352.242 524.752 C 342.692 524.36 333.109 525.651 323.613 526.597 C 321.771 526.781 314.821 526.476 313.313 528.235 C 311.274 530.614 314.546 535.573 314.734 537.988 C 315.016 541.617 311.69 543.421 311.342 546.626 C 310.948 550.249 313.354 554.038 313.778 557.599 C 314.408 562.887 306.723 569.772 311.962 573.926 C 314.225 575.72 320.731 573.558 323.381 573.44 C 332.065 573.052 340.187 573.585 348.654 574.546"
        style="stroke-width: 5px;" stroke-linejoin="round" />
      <path
        d="M 430.659 413.445 C 425.105 418.214 419.645 423.161 413.772 427.53 C 412.037 428.821 410.344 430.155 408.664 431.516 C 407.865 432.164 407.066 432.814 406.239 433.426 C 405.807 433.746 404.385 434.52 404.851 434.25 C 427.827 420.943 454.694 408.964 481.348 406.099 C 511.532 402.855 552.16 414.111 579.079 427.03 M 641.723 448.219 C 628.263 452.132 612.16 433.9 604.163 425.526 C 601.163 422.384 596.822 418.544 595.708 414.131 M 613.929 436.246 C 607.406 436.125 601.184 432.368 595.283 429.995 C 584.663 425.725 575.309 421.685 565.885 415.11 C 562.042 412.429 558.304 407.4 554.193 405.38 M 588.135 380.224 C 572.691 368.48 546.792 368.625 528.522 367.727 C 526.954 367.65 511.641 367.04 511.182 367.57 C 510.363 368.516 513.461 368.612 514.639 369.035 C 515.99 369.521 517.343 370.002 518.695 370.483 C 524.029 372.382 529.35 374.327 534.748 376.039 M 521.029 372.44 C 517.256 369.61 505.498 370.867 500.461 370.685 C 480.29 369.957 456.202 369.016 439.34 382.401 M 641.633 447.849 C 642.076 423.793 639.616 409.434 624.816 389.477 C 623.949 388.308 614.034 375.085 612.356 374.963 C 611.561 374.905 612.404 376.564 612.565 377.345 C 613.02 379.547 613.478 381.283 614.049 383.567 C 615.559 389.603 617.561 395.628 618.142 401.847 M 616.806 396.712 C 615.133 386.556 601.767 378.334 593.53 373.969 C 593.094 373.738 582.647 367.377 581.263 369.006 C 579.893 370.619 583.22 372.777 584.457 374.495 C 588.146 379.616 592.924 384.486 595.393 390.36 M 454.729 374.228 C 443.404 376.033 435.709 387.063 428.591 394.856 C 417.812 406.658 404.87 417.644 395.318 430.426 M 397.817 428.847 C 410.094 422.866 418.418 421.602 431.09 413.07"
        style="stroke-width: 5px; stroke: none;" stroke-linejoin="round" />
      <path
        d="M 432.288 415.342 C 430.581 416.807 428.875 418.296 427.155 419.786 C 444.331 411.834 462.782 405.621 481.081 403.613 C 496.447 401.992 514.569 404.012 532.004 408.068 C 540.722 410.096 549.397 412.651 557.522 415.493 C 560.985 416.705 564.383 417.98 567.649 419.29 C 566.584 418.609 565.52 417.9 564.455 417.16 C 562.357 415.671 560.313 413.622 558.411 411.804 C 557.461 410.895 556.566 410.065 555.644 409.321 C 554.728 408.583 552.623 407.326 552.623 407.326 C 551.909 406.79 551.535 405.914 551.642 405.027 C 551.749 404.141 552.321 403.379 553.142 403.029 C 553.964 402.678 554.91 402.793 555.623 403.33 C 555.623 403.33 563.76 410.658 567.315 413.06 C 576.52 419.512 585.625 423.418 596.216 427.675 C 600.01 429.212 603.687 431.218 607.348 432.494 C 605.452 430.54 603.766 428.73 602.355 427.252 C 600.897 425.724 599.003 423.924 597.314 421.913 C 595.623 419.899 593.794 415.739 593.794 415.739 C 593.275 415.013 593.184 414.065 593.556 413.254 C 593.927 412.443 594.703 411.892 595.592 411.81 C 596.48 411.727 597.345 412.127 597.858 412.856 C 597.858 412.856 597.923 412.981 597.858 412.856 C 597.858 412.856 598.689 415.147 599.228 416.056 C 599.77 416.972 600.389 417.8 601.143 418.697 C 602.652 420.495 604.429 422.186 605.971 423.8 C 609.992 428.011 615.884 434.515 622.41 439.492 C 628.23 443.93 633.857 447.113 639.154 446.286 C 639.166 445.342 639.178 444.182 639.18 443.444 C 639.182 442.024 639.172 440.654 639.145 439.302 C 639.092 436.6 638.978 434.062 638.781 431.584 C 638.389 426.637 637.695 422.186 636.524 417.766 C 634.18 408.923 630.095 400.762 622.808 390.966 C 622.296 390.275 619.028 385.671 616.239 382.025 C 616.315 382.327 616.394 382.638 616.474 382.961 C 617.958 388.906 619.992 395.118 620.631 401.614 C 620.76 402.989 619.749 404.208 618.375 404.336 C 617 404.465 615.781 403.454 615.653 402.08 C 615.54 400.801 615.361 399.526 615.133 398.253 C 614.906 398.119 614.7 397.945 614.526 397.737 C 614.526 397.737 614.474 397.601 614.526 397.737 C 614.526 397.737 613.865 395.096 613.383 394.023 C 612.898 392.944 612.332 391.985 611.586 390.939 C 610.084 388.833 608.219 386.94 606.016 385.078 C 601.601 381.347 596.434 378.336 592.36 376.178 C 592.079 376.027 589.384 374.397 586.637 373.027 C 586.552 372.985 586.467 372.943 586.383 372.902 C 586.418 372.946 586.452 372.99 586.486 373.034 C 590.053 378.01 594.969 383.126 597.698 389.391 C 598.233 390.664 597.635 392.13 596.362 392.665 C 595.089 393.2 593.623 392.602 593.088 391.329 C 591.839 388.227 589.811 385.4 587.595 382.576 C 587.33 382.544 587.069 382.469 586.821 382.351 C 586.821 382.351 586.773 382.319 586.821 382.351 C 586.821 382.351 584.801 380.899 583.807 380.285 C 582.813 379.67 581.828 379.122 580.762 378.584 C 578.628 377.507 576.442 376.612 574.073 375.811 C 569.327 374.207 564.295 373.143 559.031 372.383 C 548.498 370.861 537.574 370.674 528.399 370.224 C 527.965 370.203 526.538 370.106 524.718 369.979 C 528.31 371.258 531.892 372.511 535.504 373.656 C 536.82 374.073 537.548 375.479 537.131 376.795 C 536.714 378.111 535.308 378.839 533.992 378.422 C 530.112 377.191 526.277 375.843 522.467 374.485 C 521.95 374.849 521.295 375.018 520.621 374.907 C 520.621 374.907 518.064 373.719 516.524 373.464 C 514.943 373.203 513.148 373.1 511.18 373.069 C 507.239 373.009 503.014 373.273 500.371 373.183 C 485.864 372.66 469.76 371.887 455.894 376.369 C 455.803 376.442 455.707 376.509 455.605 376.569 C 455.605 376.569 455.495 376.605 455.605 376.569 C 455.605 376.569 455.201 376.659 454.632 376.794 C 451.203 377.995 447.922 379.534 444.847 381.498 C 443.812 382.299 442.803 383.174 441.79 384.122 C 437.699 387.95 434.055 392.576 430.437 396.542 C 422.165 405.588 412.756 414.045 404.608 423.1 C 404.922 422.968 405.214 422.847 405.477 422.741 C 408.205 421.638 410.787 420.655 413.358 419.602 C 418.502 417.494 423.527 415.166 429.694 410.996 C 430.839 410.225 432.393 410.528 433.164 411.674 C 433.93 412.813 433.635 414.355 432.506 415.131 C 432.438 415.204 432.365 415.275 432.288 415.342 Z M 397.321 431.923 C 396.494 433.029 394.927 433.255 393.821 432.429 C 392.715 431.602 392.489 430.035 393.315 428.929 C 403.06 415.943 416.08 404.862 426.745 393.17 C 429.842 389.784 433.144 385.647 436.889 381.908 C 437.001 381.349 437.304 380.825 437.786 380.443 C 442.45 376.842 447.616 374.238 453.064 372.368 C 453.106 372.334 453.089 372.349 453.064 372.368 C 453.073 372.365 453.082 372.362 453.091 372.359 C 453.404 372.171 453.75 372.058 454.102 372.022 C 469.069 367.169 486.038 367.663 500.551 368.187 C 502.421 368.259 505.377 368.108 508.554 368.069 C 508.52 367.414 508.979 366.402 509.292 365.933 C 510.746 364.973 527.065 365.153 528.645 365.23 C 537.74 365.678 548.901 365.867 559.746 367.434 C 565.17 368.218 570.651 369.376 575.675 371.075 C 576.817 371.461 578.123 372.021 579.459 372.655 C 579.113 372.156 578.783 371.572 578.618 371.029 C 578.336 370.101 578.726 368.461 579.358 367.387 C 580.18 366.78 581.504 366.21 582.28 366.245 C 582.914 366.273 583.758 366.459 584.451 366.677 C 585.772 367.091 587.402 367.822 588.867 368.553 C 591.798 370.014 594.545 371.68 594.701 371.76 C 599.871 374.502 607.624 382.643 612.74 388.399 C 612.36 387.003 611.98 385.596 611.624 384.173 C 611.057 381.905 610.587 380.118 610.116 377.85 C 610.104 377.683 609.857 377.138 609.683 376.469 C 609.586 376.099 609.465 375.31 609.574 374.735 C 609.653 374.319 610.115 373.42 610.588 373.049 C 611.028 372.704 612.027 372.501 612.538 372.47 C 615.125 373.089 625.953 386.814 626.824 387.988 C 634.337 398.149 638.882 407.146 641.357 416.485 C 642.595 421.157 643.359 426.054 643.766 431.189 C 643.969 433.752 644.09 436.438 644.144 439.204 C 644.192 441.634 644.147 446.44 644.135 447.562 C 644.493 448.875 643.733 450.238 642.421 450.62 C 634.797 452.501 626.284 448.735 619.378 443.468 C 617.432 441.984 615.544 440.376 613.747 438.739 C 606.652 438.396 600.035 434.583 594.35 432.315 C 589.937 430.54 585.704 428.784 581.574 426.86 C 581.601 427.253 581.535 427.658 581.364 428.044 C 580.804 429.306 579.327 429.875 578.065 429.315 C 578.065 429.315 574.63 427.699 572.863 426.916 C 571.096 426.131 569.297 425.363 567.44 424.601 C 563.724 423.076 559.873 421.613 555.871 420.213 C 547.864 417.412 539.448 414.934 530.871 412.938 C 513.717 408.948 496.433 406.962 481.615 408.585 C 455.759 411.304 429.812 422.788 407.211 435.775 C 406.944 435.941 406.657 436.111 406.444 436.232 C 406.255 436.34 406.076 436.439 405.983 436.488 C 405.953 436.504 405.902 436.531 405.867 436.548 C 405.832 436.565 405.711 436.62 405.62 436.653 C 405.466 436.709 404.029 436.878 403.269 436.314 C 402.939 436.069 402.435 435.327 402.331 434.904 C 402.243 434.547 402.279 433.886 402.353 433.625 C 402.44 433.316 402.698 432.88 402.805 432.746 C 402.911 432.613 403.096 432.437 403.161 432.383 C 403.308 432.261 403.518 432.133 403.598 432.087 C 403.972 431.87 404.348 431.654 404.724 431.438 C 404.734 431.43 404.743 431.423 404.751 431.417 C 405.533 430.84 406.289 430.223 407.089 429.574 C 408.782 428.203 410.517 426.836 412.28 425.524 C 412.377 425.452 412.475 425.379 412.573 425.306 C 410.847 425.99 409.117 426.662 407.35 427.376 C 406.008 427.918 404.659 428.478 403.253 429.093 C 401.845 429.708 398.818 431.138 398.818 431.138 C 398.838 431.129 398.818 431.138 398.818 431.138 C 398.479 431.28 398.119 431.344 397.764 431.332 C 397.615 431.528 397.467 431.725 397.321 431.923 Z M 552.623 407.326 C 552.623 407.326 552.698 407.382 552.623 407.326 Z M 520.621 374.907 C 520.621 374.907 520.451 374.866 520.621 374.907 Z M 396.88 426.529 C 396.859 426.538 396.88 426.529 396.88 426.529 Z"
        style="fill: rgb(0, 0, 0); stroke: none;" />
      <path
        d="M 642.05 560.379 C 641.791 560.379 648.699 556.586 649.226 555.997 C 652.126 552.76 654.133 550.224 654.303 545.855 C 654.442 542.267 654.377 538.66 654.407 535.069 C 654.428 532.546 655.94 524.471 653.325 521.982 C 650.094 518.907 642.742 521.607 639.067 521.699"
        style="stroke-width: 5px;" stroke-linejoin="round" />
      <path
        d="M 639.739 561.093 C 634.194 560.131 623.813 557.055 618.635 558.594 C 616.806 559.138 616.342 561.829 614.703 562.747 C 612.792 563.818 610.156 562.745 608.184 562.719"
        style="stroke-width: 5px;" stroke-linejoin="round" />
      <path
        d="M -825.414 -591.212 C -825.414 -591.212 -827.175 -591.451 -828.077 -591.556 C -828.983 -591.661 -829.906 -591.757 -830.84 -591.844 C -832.708 -592.019 -834.62 -592.16 -836.533 -592.27 C -840.358 -592.49 -844.185 -592.588 -847.661 -592.597 C -849.667 -592.567 -850.531 -591.65 -851.473 -591.039 C -851.92 -590.752 -852.543 -590.38 -853.294 -590.366 C -853.955 -590.354 -854.85 -590.656 -855.924 -591.276"
        stroke-linejoin="round" style="stroke-width: 5px; transform-origin: -32.979px -20.852px;"
        transform="matrix(-1, 0, 0, -1, 0.000001, -0.000038)" />
      <path
        d="M -1138.372 -615.123 C -1134.678 -618.249 -1128.135 -619.524 -1123.815 -621.156 C -1115.604 -624.257 -1107.426 -627.447 -1099.266 -630.68"
        stroke-linejoin="round" style="stroke-width: 5px; transform-origin: -24.281px -19.994px;"
        transform="matrix(-1, 0, 0, -1, 0.000044, 0)" />
      <path
        d="M -1096.321 -564.74 C -1105.87 -564.343 -1115.456 -565.637 -1124.95 -566.585 C -1126.794 -566.769 -1133.739 -566.464 -1135.25 -568.224 C -1137.289 -570.6 -1134.016 -575.564 -1133.827 -577.976 C -1133.542 -581.606 -1136.872 -583.41 -1137.221 -586.615 C -1137.615 -590.236 -1135.206 -594.025 -1134.785 -597.586 C -1134.16 -602.871 -1141.836 -609.763 -1136.601 -613.914 C -1134.339 -615.708 -1127.829 -613.547 -1125.18 -613.429 C -1116.494 -613.041 -1108.374 -613.613 -1099.908 -614.533"
        stroke-linejoin="round" style="stroke-width: 5px; transform-origin: -24.281px -19.994px;"
        transform="matrix(-1, 0, 0, -1, 0.000044, 0)" />
      <path
        d="M -826.089 -607.53 C -826.15 -607.525 -826.208 -607.54 -826.184 -607.524 C -826.203 -607.566 -826.231 -607.538 -826.191 -607.523 C -826.265 -607.523 -826.187 -607.494 -826.179 -607.511 C -826.182 -607.501 -826.162 -607.49 -826.139 -607.471 C -826.106 -607.44 -826.046 -607.395 -825.96 -607.33 C -825.795 -607.206 -825.545 -607.03 -825.235 -606.815 C -824.615 -606.385 -823.759 -605.804 -822.88 -605.206 C -821.123 -604.011 -819.284 -602.762 -819 -602.446 C -816.108 -599.218 -814.106 -596.696 -813.922 -592.301 C -813.78 -588.714 -813.848 -585.11 -813.818 -581.521 C -813.81 -580.289 -813.383 -577.727 -813.269 -575.16 C -813.154 -572.59 -813.532 -569.806 -814.909 -568.426 C -816.577 -566.913 -819.188 -566.803 -821.862 -567.101 C -823.214 -567.253 -824.578 -567.503 -825.835 -567.722 C -827.062 -567.936 -829.158 -568.149 -829.158 -568.149"
        stroke-linejoin="round" style="stroke-width: 5px; transform-origin: -33.777px -23.224px;"
        transform="matrix(-1, 0, 0, -1, 0.000012, 0)" />
      <path
        d="M -823.177 -612.163 C -828.711 -611.204 -839.118 -608.125 -844.297 -609.671 L -843.846 -609.536 L -844.123 -609.632 C -845.158 -609.991 -845.81 -610.817 -846.319 -611.602 C -846.852 -612.434 -847.382 -613.313 -848.213 -613.817 C -850.225 -614.825 -854.669 -613.754 -854.669 -613.754"
        stroke-linejoin="round" style="stroke-width: 5px; transform-origin: -31.373px -25.535px;"
        transform="matrix(-1, 0, 0, -1, 0.000013, -0.000041)" />
      <path
        d="M 762.466 521.086 C 762.466 521.086 742.652 509.603 738.332 507.358 C 732.873 504.52 717.87 498.492 700.263 498.737 C 682.601 498.983 670.71 499.229 655.824 508.738 C 640.429 518.572 636.645 522.987 636.645 515.462 C 636.645 505.479 640.747 502.588 649.533 497.847 C 663.836 490.128 721.039 484.336 745.212 496.605 C 765.998 507.155 761.064 521.298 762.466 521.086 Z"
        style="stroke: rgb(0, 0, 0); stroke-width: 5px; stroke-linecap: butt; stroke-linejoin: round;" />
      <ellipse style="stroke: rgb(0, 0, 0); stroke-width: 4.78873px;" cx="495.315" cy="553.463" rx="146.204"
        ry="141.207" />
      <ellipse style="stroke: rgb(0, 0, 0); stroke-width: 4.78873px;" cx="904.685" cy="553.463" rx="146.204"
        ry="141.207" />
      <path
        d="M 798.431 399.698 C 796.724 398.284 795.018 396.848 793.299 395.41 C 810.472 403.082 828.921 409.077 847.218 411.014 C 862.581 412.578 880.701 410.629 898.134 406.716 C 906.851 404.759 915.525 402.294 923.648 399.552 C 927.111 398.383 930.509 397.153 933.775 395.889 C 932.71 396.546 931.645 397.23 930.581 397.944 C 928.483 399.38 926.439 401.357 924.538 403.111 C 923.587 403.988 922.693 404.789 921.771 405.507 C 920.855 406.219 918.75 407.432 918.75 407.432 C 918.036 407.949 917.663 408.794 917.77 409.65 C 917.877 410.505 918.448 411.24 919.269 411.577 C 920.091 411.916 921.037 411.805 921.749 411.287 C 921.749 411.287 929.886 404.217 933.44 401.899 C 942.644 395.675 951.748 391.906 962.338 387.799 C 966.131 386.316 969.808 384.381 973.469 383.15 C 971.573 385.035 969.886 386.781 968.476 388.207 C 967.018 389.681 965.124 391.418 963.436 393.358 C 961.744 395.301 959.916 399.315 959.916 399.315 C 959.397 400.015 959.306 400.93 959.678 401.712 C 960.049 402.495 960.825 403.026 961.713 403.105 C 962.602 403.186 963.466 402.8 963.98 402.096 C 963.98 402.096 964.044 401.976 963.98 402.096 C 963.98 402.096 964.81 399.886 965.35 399.009 C 965.891 398.125 966.51 397.326 967.264 396.461 C 968.773 394.726 970.55 393.095 972.092 391.538 C 976.112 387.475 982.003 381.2 988.528 376.398 C 994.348 372.116 999.974 369.045 1005.27 369.843 C 1005.282 370.754 1005.294 371.873 1005.296 372.585 C 1005.298 373.955 1005.288 375.277 1005.262 376.581 C 1005.209 379.188 1005.094 381.637 1004.897 384.028 C 1004.505 388.8 1003.812 393.095 1002.64 397.359 C 1000.297 405.891 996.213 413.765 988.927 423.216 C 988.414 423.882 985.147 428.324 982.358 431.842 C 982.434 431.551 982.514 431.251 982.593 430.939 C 984.077 425.203 986.11 419.21 986.75 412.943 C 986.878 411.616 985.867 410.44 984.494 410.316 C 983.119 410.192 981.9 411.167 981.773 412.493 C 981.659 413.727 981.48 414.957 981.253 416.185 C 981.025 416.315 980.819 416.482 980.646 416.683 C 980.646 416.683 980.594 416.814 980.646 416.683 C 980.646 416.683 979.985 419.231 979.502 420.266 C 979.017 421.307 978.452 422.233 977.706 423.242 C 976.204 425.274 974.339 427.1 972.136 428.897 C 967.722 432.496 962.556 435.401 958.482 437.483 C 958.202 437.629 955.507 439.202 952.76 440.523 C 952.675 440.564 952.59 440.604 952.506 440.644 C 952.541 440.601 952.575 440.559 952.609 440.517 C 956.175 435.716 961.091 430.78 963.82 424.735 C 964.354 423.507 963.757 422.093 962.483 421.577 C 961.211 421.06 959.745 421.637 959.21 422.866 C 957.961 425.858 955.933 428.586 953.718 431.31 C 953.453 431.341 953.192 431.414 952.944 431.528 C 952.944 431.528 952.896 431.558 952.944 431.528 C 952.944 431.528 950.924 432.928 949.93 433.521 C 948.937 434.114 947.952 434.643 946.885 435.162 C 944.752 436.201 942.566 437.065 940.197 437.837 C 935.453 439.385 930.421 440.411 925.157 441.145 C 914.625 442.613 903.703 442.794 894.53 443.228 C 894.095 443.248 892.668 443.342 890.849 443.464 C 894.441 442.23 898.022 441.021 901.633 439.916 C 902.949 439.514 903.677 438.158 903.26 436.888 C 902.843 435.618 901.438 434.916 900.122 435.318 C 896.242 436.506 892.408 437.806 888.598 439.117 C 888.081 438.765 887.427 438.602 886.752 438.71 C 886.752 438.71 884.196 439.856 882.656 440.102 C 881.075 440.354 879.28 440.453 877.313 440.483 C 873.372 440.541 869.148 440.286 866.505 440.373 C 852 440.877 835.898 441.623 822.033 437.299 C 821.943 437.229 821.847 437.164 821.745 437.106 C 821.745 437.106 821.635 437.071 821.745 437.106 C 821.745 437.106 821.341 437.019 820.772 436.889 C 817.344 435.73 814.063 434.245 810.988 432.351 C 809.953 431.578 808.944 430.734 807.932 429.819 C 803.841 426.126 800.197 421.662 796.58 417.836 C 788.309 409.108 778.901 400.949 770.754 392.213 C 771.068 392.34 771.36 392.457 771.624 392.559 C 774.351 393.623 776.933 394.572 779.503 395.588 C 784.646 397.622 789.671 399.868 795.837 403.891 C 796.982 404.635 798.536 404.342 799.307 403.237 C 800.073 402.138 799.777 400.65 798.649 399.901 C 798.581 399.831 798.508 399.762 798.431 399.698 Z M 763.468 383.7 C 762.641 382.633 761.074 382.415 759.969 383.212 C 758.863 384.01 758.637 385.522 759.463 386.589 C 769.207 399.118 782.225 409.809 792.889 421.089 C 795.985 424.356 799.286 428.348 803.031 431.955 C 803.144 432.494 803.447 433 803.928 433.368 C 808.592 436.843 813.756 439.355 819.204 441.159 C 819.246 441.192 819.229 441.177 819.204 441.159 C 819.213 441.162 819.222 441.165 819.231 441.168 C 819.544 441.349 819.89 441.458 820.242 441.493 C 835.207 446.175 852.174 445.699 866.685 445.193 C 868.555 445.124 871.51 445.269 874.687 445.307 C 874.653 445.939 875.112 446.915 875.425 447.368 C 876.879 448.294 893.195 448.12 894.776 448.046 C 903.869 447.614 915.029 447.431 925.872 445.919 C 931.296 445.163 936.776 444.046 941.799 442.407 C 942.941 442.034 944.247 441.494 945.583 440.882 C 945.237 441.364 944.907 441.927 944.742 442.451 C 944.46 443.346 944.85 444.929 945.482 445.965 C 946.304 446.55 947.627 447.1 948.403 447.067 C 949.037 447.04 949.881 446.86 950.574 446.65 C 951.895 446.25 953.525 445.545 954.99 444.84 C 957.92 443.43 960.667 441.823 960.823 441.746 C 965.992 439.1 973.745 431.246 978.86 425.692 C 978.48 427.039 978.1 428.397 977.744 429.77 C 977.177 431.958 976.706 433.682 976.236 435.87 C 976.224 436.031 975.977 436.557 975.803 437.202 C 975.706 437.559 975.585 438.321 975.694 438.875 C 975.773 439.277 976.235 440.144 976.707 440.502 C 977.147 440.835 978.147 441.031 978.657 441.061 C 981.244 440.464 992.071 427.222 992.942 426.089 C 1000.454 416.286 1004.998 407.605 1007.473 398.595 C 1008.711 394.087 1009.475 389.363 1009.881 384.409 C 1010.085 381.936 1010.205 379.344 1010.259 376.676 C 1010.308 374.331 1010.262 369.694 1010.251 368.612 C 1010.609 367.345 1009.848 366.03 1008.537 365.662 C 1000.913 363.847 992.402 367.48 985.497 372.562 C 983.551 373.994 981.664 375.545 979.866 377.124 C 972.772 377.455 966.156 381.134 960.472 383.322 C 956.06 385.035 951.827 386.729 947.698 388.585 C 947.725 388.206 947.658 387.815 947.487 387.443 C 946.928 386.225 945.451 385.676 944.189 386.217 C 944.189 386.217 940.754 387.776 938.988 388.531 C 937.221 389.289 935.423 390.03 933.565 390.765 C 929.85 392.236 925.999 393.648 921.997 394.998 C 913.992 397.701 905.577 400.091 897.001 402.017 C 879.849 405.867 862.568 407.783 847.751 406.217 C 821.898 403.594 795.955 392.514 773.357 379.984 C 773.09 379.824 772.804 379.66 772.59 379.543 C 772.401 379.439 772.222 379.343 772.129 379.296 C 772.099 379.281 772.048 379.255 772.013 379.238 C 771.979 379.222 771.857 379.169 771.766 379.137 C 771.612 379.083 770.175 378.92 769.415 379.464 C 769.085 379.7 768.582 380.416 768.477 380.824 C 768.39 381.169 768.425 381.807 768.5 382.058 C 768.586 382.356 768.845 382.777 768.952 382.906 C 769.057 383.035 769.242 383.205 769.307 383.257 C 769.455 383.374 769.664 383.498 769.744 383.542 C 770.119 383.752 770.495 383.96 770.87 384.168 C 770.881 384.176 770.889 384.183 770.897 384.189 C 771.68 384.745 772.435 385.341 773.235 385.967 C 774.928 387.289 776.663 388.608 778.425 389.874 C 778.522 389.944 778.62 390.014 778.719 390.085 C 776.993 389.425 775.263 388.776 773.496 388.087 C 772.154 387.564 770.805 387.024 769.4 386.431 C 767.992 385.837 764.966 384.458 764.966 384.458 C 764.985 384.466 764.966 384.458 764.966 384.458 C 764.626 384.321 764.266 384.259 763.911 384.271 C 763.762 384.082 763.614 383.891 763.468 383.7 Z M 918.75 407.432 C 918.75 407.432 918.825 407.378 918.75 407.432 Z M 886.752 438.71 C 886.752 438.71 886.582 438.749 886.752 438.71 Z M 763.027 388.905 C 763.006 388.896 763.027 388.905 763.027 388.905 Z"
        style="fill: rgb(0, 0, 0); stroke: none; transform-box: fill-box; transform-origin: 50% 50%;"
        transform="matrix(-1, 0, 0, -1, 0.000105, -0.000028)" />
    </g>
  </g>
  <path
    d="M 443.53 405.461 C 451.411 402.718 459.514 400.426 467.768 399.2 C 472.527 398.493 483.145 404.27 485.87 405.945 C 509.096 420.22 508.014 423.639 533.921 444.459 C 540.668 449.881 546.91 456.606 555.046 459.559 C 568.922 464.595 594.564 464.875 605.836 451.729 C 628.428 425.382 606.234 394.287 580.155 381.66 C 571.888 377.657 562.763 377.459 554.254 374.561 C 553.222 374.209 552.201 372.988 552.342 371.907 C 553.005 366.836 562.694 371.063 567.683 372.187 C 575.808 374.018 590.272 379.556 595.981 382.379 C 618.438 393.483 634.71 417.247 632.424 442.783 C 631.218 456.251 624.599 469.71 616.63 480.246 C 613.199 484.781 608.448 488.207 603.829 491.523 C 601.938 492.881 595.866 492.229 597.318 494.048 C 604.252 502.736 623.967 511.541 633.881 515.577 C 689.583 538.252 752.568 512.507 785.001 464.984 C 791.728 455.127 794.668 436.556 795.75 427.186 C 799.122 397.973 772.189 376.025 744.26 382.633 C 727.642 386.565 718.797 399.455 709.46 412.659 C 707.393 415.582 706.037 419.024 703.643 421.685 C 701.864 423.662 698.376 422.678 699.781 419.304 C 704.624 407.676 725.148 384.426 733.582 374.298 C 737.69 369.365 743.678 362.413 750.698 361.283 C 796.245 353.952 818.452 397.758 814.933 437.315 C 814.222 445.303 814.334 453.612 811.561 461.137 C 790.992 516.955 732.209 551.04 677.777 565.205 C 656 570.872 647.881 574.003 625.857 574.612 C 597.289 575.402 573.292 569.737 547.003 559.193 C 543.874 557.938 521.836 548.661 515.702 544.421 C 497.406 531.775 490.377 521.452 468.774 517.047 C 466.14 516.51 463.401 516.624 460.767 516.086 C 457.937 515.508 452.81 510.844 452.433 513.708 C 452.144 515.908 465.534 519.774 467.237 521.004 C 468.84 522.161 469.79 526.238 465.753 525.449 C 462.219 524.758 459.057 522.798 455.705 521.485 C 455.428 521.376 438.35 518.284 435.328 517.282 C 433.043 516.524 430.797 515.628 428.626 514.587 C 427.287 513.946 426.276 511.489 424.927 512.108 C 421.487 513.685 418.34 515.935 414.759 517.159 C 412.356 517.98 409.885 518.601 407.401 519.128 C 399.266 520.854 394.322 521.626 386.538 524.506 C 385.268 524.976 382.37 526.688 381.463 523.86 C 380.463 520.74 391.492 517.274 393.707 515.97 C 394.964 515.23 398.887 513.671 397.428 513.668 C 394.623 513.662 392.079 515.398 389.331 515.96 C 379.421 517.986 366.367 518.669 358.02 525.377 C 340.09 539.786 340.074 542.541 324.163 550.05 C 284.39 568.82 244.086 580.28 199.768 572.251 C 135.802 560.662 62.473 526.386 38.446 461.174 C 35.669 453.638 35.78 445.318 35.068 437.318 C 31.54 397.667 53.827 353.813 99.46 361.161 C 106.464 362.289 112.567 369.258 116.633 374.216 C 126.541 386.298 143.916 404.415 150.143 419.214 C 151.299 421.962 148.591 424.038 146.418 421.825 C 145.169 420.553 144.652 418.723 143.66 417.242 C 139.506 411.039 136.482 407.082 131.317 400.454 C 119.638 385.466 106.802 380.645 87.51 382.315 C 80.939 382.884 74.435 386.39 69.4 390.282 C 49.065 406.002 54.11 432.89 60.269 454.542 C 65.548 473.1 82.141 487.492 97.184 498.225 C 128.832 520.806 159.715 525.525 198.449 521.182 C 207.508 520.166 226.391 511.105 233.865 506.765 C 239.418 503.541 244.516 499.59 249.803 495.946 C 250.685 495.338 252.752 495.013 252.37 494.012 C 251.891 492.756 249.732 493.347 248.56 492.688 C 245.28 490.843 242.006 488.919 239.089 486.541 C 233.886 482.299 226.807 471.016 224.487 466.58 C 211.397 441.548 217.143 408.113 240.482 391.017 C 253.149 381.738 267.524 376.261 282.473 372.31 C 283.647 372 297.248 367.667 297.799 372.046 C 298.261 375.718 291.421 375.249 289.619 375.591 C 282.786 376.889 274.464 378.501 268.66 382.65 C 249.941 396.032 225.884 414.013 237.413 440.719 C 239.124 444.682 241.562 448.363 244.372 451.639 C 255.613 464.746 281.208 464.46 295.035 459.44 C 303.158 456.491 309.388 449.774 316.124 444.36 C 334.15 429.871 352.069 409.082 374.79 400.621 C 385.853 396.501 395.116 401.335 406.649 405.347 C 407.276 405.565 418.414 412.63 420.284 413.81 C 421.914 414.838 423.395 417.614 425.18 416.886 C 428.883 415.375 436.725 407.83 443.53 405.461 Z M 430.66 510.39 C 432.59 511.301 434.612 512.002 436.605 512.766 C 436.988 512.913 438.118 513.361 437.784 513.122 C 436.855 512.455 424.969 506.841 428.766 502.995 C 430.655 501.081 434.421 505.585 435.707 506.42 C 436.942 507.222 439.985 510.117 439.467 508.739 C 438.327 505.709 435.288 503.754 433.653 500.96 C 432.236 498.537 431.457 495.794 430.378 493.203 C 429.936 492.141 428.412 490.803 429.196 489.961 C 430.168 488.917 432.133 487.687 433.246 488.579 C 436.081 490.852 436.113 495.257 437.528 498.604 C 437.958 499.62 440.177 499.169 440.61 499.358 C 444.394 501.009 446.948 507.489 452.245 508.634 C 452.98 508.793 450.963 507.796 450.504 507.2 C 448.144 504.136 443.378 500.729 444.763 497.118 C 446.254 493.231 448.11 497.317 449.218 497.599 C 449.956 497.787 450.347 493.756 453.287 496.319 C 457.31 499.826 460.563 508.438 466.696 509.257 C 468.356 509.479 464.382 506.832 463.299 505.554 C 462.452 504.554 456.631 498.22 461.028 496.966 C 463.621 496.227 465.333 501.05 466.67 502.456 C 473.194 509.32 473.994 509.996 481.564 514.881 C 481.947 515.128 480.698 514.366 480.586 513.924 C 480.313 512.848 479.74 511.426 480.477 510.595 C 481.177 509.806 482.649 510.119 483.64 510.48 C 488.103 512.105 491.336 519.303 495.306 521.91 C 504.129 527.704 508.093 533.667 517.979 540.366 C 537.291 553.452 572.73 565.994 595.557 568.984 C 654.384 576.69 728.973 550.635 771.449 510.275 C 799.539 483.585 816.452 453.078 809.224 413.291 C 804.982 389.94 790.545 366.953 764.877 365.204 C 756.861 364.658 748.873 365.234 742.73 370.869 C 740.592 372.83 738.855 375.19 736.961 377.388 C 736.126 378.357 733.272 380.238 734.544 380.369 C 740.193 380.952 745.526 376.958 751.203 376.803 C 763.129 376.477 773.605 378.718 783.258 386.247 C 805.736 403.78 800.941 432.121 794.06 456.491 C 790.953 467.495 776.655 484.25 771.273 489.873 C 752.729 509.25 720.78 526.249 693.571 526.916 C 661.331 527.706 641.066 526.689 614.061 511.015 C 608.348 507.699 603.129 503.597 597.66 499.893 C 595.687 498.557 592.824 497.058 592.398 494.44 C 591.572 489.362 599.448 489.024 601.878 487.283 C 606.004 484.327 610.211 481.222 613.25 477.157 C 630.873 453.585 633.864 424.696 613.795 402.281 C 608.765 396.663 604.13 391.242 596.983 388.073 C 594.69 387.056 600.873 391.246 602.724 392.94 C 609.538 399.175 616.346 406.809 618.651 416.145 C 623.172 434.454 614.652 458.561 594.964 464.254 C 581.825 468.053 566.383 468.623 553.46 463.965 C 542.811 460.127 504.56 424.91 500.534 421.679 C 495.51 417.646 477.085 402.398 467.425 403.899 C 459.995 405.054 452.691 407.106 445.609 409.633 C 438.738 412.085 432.331 421.834 424.873 421.585 C 421.422 421.47 415.04 415.968 412.548 414.42 C 402.041 407.893 388.732 400.346 376.149 405.109 C 354.046 413.476 336.544 433.952 318.964 448.001 C 311.831 453.701 305.209 460.749 296.62 463.845 C 287.403 467.168 277.154 466.537 267.357 466.605 C 241.683 466.784 225.864 439.367 231.586 416.188 C 233.877 406.908 240.67 399.21 247.478 393.037 C 249.658 391.06 256.987 386.313 254.235 387.356 C 246.826 390.164 241.311 396.527 236.239 402.192 C 220.61 419.648 217.338 443.125 228.481 464.455 C 230.7 468.703 237.201 478.996 242.059 483.016 C 244.063 484.674 256.598 488.921 257.549 492.865 C 258.344 496.163 254.518 498.312 252.392 499.789 C 246.972 503.555 241.712 507.589 236.004 510.902 C 174.136 546.811 100.227 524.225 61.372 467.312 C 54.207 456.817 51.168 437.029 50.019 427.113 C 47.4 404.515 63.422 379.723 87.09 377.625 C 92.254 377.167 97.456 377.156 102.638 377.297 C 106.101 377.391 113.935 380.926 115.984 380.653 C 117.411 380.463 114.195 378.397 113.255 377.306 C 111.355 375.102 109.613 372.737 107.468 370.77 C 101.298 365.113 93.286 364.529 85.233 365.076 C 59.51 366.823 45.03 389.869 40.778 413.268 C 30.176 471.61 73.621 514.957 120.701 540.523 C 159.936 561.829 209.999 574.952 254.581 569.111 C 277.777 566.072 301.3 555.662 322.269 545.781 C 341.316 536.805 350.403 522.755 366.571 510.568 C 367.414 509.933 369.037 509.904 369.734 510.696 C 370.468 511.53 368.723 514.69 369.612 514.025 C 372.532 511.841 375.679 509.932 378.372 507.474 C 381.867 504.285 383.256 497.892 387.892 496.947 C 391.517 496.208 390.488 500.693 389.158 502.297 C 387.182 504.681 380.084 508.586 383.09 509.33 C 389.001 510.793 393.279 498.583 397.29 495.62 C 399.739 493.811 400.322 497.444 400.935 497.278 C 402.217 496.931 403.447 494.883 404.556 495.615 C 408.045 497.918 402.086 503.796 399.535 507.107 C 399.083 507.693 397.099 508.68 397.822 508.52 C 402.969 507.378 405.136 503.049 409.043 500.107 C 410.051 499.348 411.996 499.701 412.488 498.539 C 413.469 496.22 414.45 493.902 415.415 491.576 C 415.826 490.584 417.111 486.871 418.811 487.604 C 425.97 490.691 410.224 506.831 410.637 508.619 C 411.364 511.769 418.208 500.286 421.121 502.8 C 424.836 506.005 417.057 509.53 412.317 512.996 C 411.989 513.236 413.105 512.791 413.483 512.644 C 416.525 511.463 429.019 509.615 430.66 510.39 Z M 455.362 470.58 C 463.581 473.17 472.153 474.502 480.638 476.009 C 485.881 476.941 502.69 473.818 502.857 478.241 C 503.049 483.325 492.948 481.071 487.861 481.076 C 476.539 481.088 464.341 478.307 454.017 475.073 C 446.439 472.699 439.426 468.8 432.155 465.609 C 429.182 464.304 446.112 467.666 455.362 470.58 Z M 469.08 459.545 C 477.063 459.946 484.536 462.265 492.293 463.738 C 492.883 463.85 491.199 463.245 490.641 463.023 C 489.627 462.62 488.62 462.193 487.58 461.866 C 485.557 461.229 483.539 460.547 481.459 460.133 C 476.756 459.196 460.905 460.358 460.908 456.374 C 460.912 451.68 478.228 454.691 482.339 455.513 C 484.413 455.928 493.171 457.816 495.267 459.956 C 496.038 460.743 496.712 461.916 496.543 463.004 C 496.416 463.823 493.871 464.043 494.56 464.505 C 500.407 468.425 507.176 470.768 513.3 474.238 C 515.608 475.546 524.615 480.973 524.078 484.492 C 523.219 490.125 511.343 478.414 510.741 478.103 C 503.107 474.163 495.425 470.24 487.398 467.181 C 480.437 464.528 464.636 459.322 469.08 459.545 Z M 531.119 505.372 C 537.301 504.574 555.384 501.117 549.179 500.523 C 546.802 500.295 544.407 500.856 542.02 500.793 C 541.591 500.782 535.574 501.165 534.543 499.045 C 533.631 497.17 534.984 495.882 536.648 495.62 C 539.928 495.104 544.273 496.292 547.627 495.928 C 562.349 494.331 566.293 492.511 582.91 485.344 C 589.575 482.47 594.71 476.736 601.286 473.664 C 602.243 473.217 603.803 473.25 604.424 474.104 C 607.292 478.051 587.288 488.439 584.893 489.568 C 562.032 500.344 538.323 512.747 512.263 510.023 C 501.526 508.901 498.14 507.71 490.605 502.671 C 489.096 501.662 482.889 497.671 485.105 494.866 C 487.063 492.388 515.381 507.403 531.119 505.372 Z M 543.948 521.59 C 549.628 525.091 555.055 529.107 561.144 531.834 C 573.726 537.469 586.702 542.232 599.78 546.596 C 615.206 551.743 632.279 548.095 648.479 549.514 C 649.557 549.608 650.751 550.72 650.781 551.801 C 650.811 552.885 649.693 554.194 648.609 554.224 C 635.681 554.583 622.74 553.72 609.831 552.938 C 593.057 551.922 570.941 541.323 559.142 536.047 C 557.14 535.152 538.071 525.276 533.629 520.044 C 529.54 515.228 541.481 520.07 543.948 521.59 Z M 583.94 524.756 C 588.448 526.908 593.214 528.483 597.941 530.097 C 601.102 531.176 607.389 531.375 606.856 534.672 C 606.312 538.037 599.857 535.701 596.631 534.602 C 583.394 530.094 580.26 528.668 568.412 521.138 C 564.565 518.693 557.592 516.734 558.064 512.201 C 558.343 509.518 580.634 523.178 583.94 524.756 Z M 569.652 504.403 C 571.868 505.697 574.039 507.069 576.282 508.316 C 580.791 510.822 584.997 514.072 589.906 515.66 C 615.911 524.071 642.645 530.079 668.736 538.218 C 669.777 538.543 670.804 539.772 670.672 540.854 C 670.542 541.923 669.211 543.156 668.167 542.892 C 667.056 542.611 585.031 526.023 564.569 506.677 C 560.261 502.604 568.703 503.849 569.652 504.403 Z M 421.305 463.832 C 416.79 468.503 409.653 469.61 403.628 472.04 C 386.339 479.012 383.682 478.641 362.259 480.949 C 360.954 481.09 347.096 482.228 347.271 478.102 C 347.443 474.051 360.661 476.402 362.195 476.238 C 370.63 475.336 379.114 474.557 387.407 472.772 C 396.554 470.803 424.551 460.474 421.305 463.832 Z M 342.283 475.973 C 335.306 479.721 329.191 489.11 326.377 485.624 C 323.498 482.058 334.73 475.202 339.962 471.944 C 344.831 468.912 350.634 467.545 355.418 464.382 C 356.07 463.951 353.672 463.729 353.556 462.956 C 353.393 461.865 353.768 460.385 354.742 459.866 C 362.223 455.881 367.52 455.249 375.212 454.449 C 376.747 454.289 391.813 451.56 388.921 457.348 C 387.796 459.599 383.189 458.587 381.299 458.71 C 373.316 459.232 365.744 459.85 358.334 463.399 C 356.168 464.436 362.946 462.017 365.311 461.602 C 370.524 460.688 375.777 460.001 381.037 459.418 C 387.553 458.696 356.765 468.193 342.283 475.973 Z M 364.649 498.087 C 361.312 501.37 357.526 504.392 353.242 506.28 C 348.418 508.405 343.089 509.348 337.846 509.896 C 331.41 510.568 324.857 510.697 318.434 509.916 C 301.141 507.812 277.613 495.483 261.898 487.617 C 259.449 486.391 245.09 479.296 245.352 475.295 C 245.492 473.147 247.289 472.868 248.834 473.504 C 254.093 475.671 258.941 480.927 264.08 483.503 C 280.715 491.841 291.426 494.7 309.964 495.82 C 311.316 495.902 320.568 496.755 313.83 500.188 C 309.95 502.164 305.115 500.077 300.768 500.324 C 300.168 500.358 301.873 500.808 302.454 500.965 C 307.96 502.45 313.358 504.555 319.019 505.245 C 327.819 506.317 342.931 505.712 351.627 501.887 C 356.233 499.861 368.722 494.079 364.649 498.087 Z M 308.484 525.476 C 302.685 529.05 297.145 533.152 290.927 535.933 C 262.403 548.689 249.058 552.789 220.874 554.253 C 220.166 554.29 199.231 555.898 199.345 551.675 C 199.447 547.881 209.668 549.609 211.223 549.611 C 223.802 549.624 238.254 550.495 250.318 546.47 C 263.386 542.11 276.352 537.352 288.924 531.721 C 298.219 527.558 308.548 525.437 308.484 525.476 Z M 291.544 513.858 C 288.766 516.838 285.079 518.833 281.647 521.028 C 268.717 529.3 267.76 529.239 253.456 534.479 C 251.599 535.159 245.741 537.841 243.876 535.751 C 240.327 531.775 250.65 530.521 252.145 529.974 C 261.575 526.523 270.844 522.361 279.332 516.995 C 283.199 514.551 295.779 509.316 291.544 513.858 Z M 282.696 508.341 C 278.79 510.908 263.48 519.288 262.081 519.803 C 242.548 526.987 222.643 533.133 202.752 539.254 C 200.688 539.889 190.823 541.533 187.163 542.098 C 185.49 542.356 179.833 544.143 179.437 540.712 C 179.032 537.205 200.847 534.956 201.914 534.628 C 221.445 528.625 240.988 522.597 260.165 515.546 C 268.668 512.42 286.155 506.067 282.696 508.341 Z"
    style="fill: rgb(0, 0, 0);" />
  <path
    d="M 435.6 410.914 C 438.066 409.355 441.167 407.338 443.771 405.899 C 450.963 401.943 459.324 399.095 467.729 399.698 C 470.215 399.907 472.756 400.424 475.138 401.217 C 478.848 402.478 482.36 404.462 485.617 406.376 C 491.629 409.909 497.383 414.005 502.886 418.284 C 513.595 426.615 523.414 436.041 533.594 444.837 C 540.311 450.642 546.892 456.911 554.861 460.024 C 563.565 463.555 573.036 463.46 582.41 462.539 C 586.373 462.155 590.021 461.48 593.784 460.234 C 595.415 459.707 597.34 458.709 598.785 457.863 C 601.514 456.27 604.089 454.393 606.205 452.067 C 609.33 448.682 611.658 445.267 613.289 440.945 C 614.717 437.237 615.705 433.303 616.066 429.226 C 616.422 425.149 616.161 421.271 614.898 417.536 C 613.99 414.746 612.121 411.23 610.931 408.928 C 609.591 406.321 608.65 404.896 606.901 402.629 C 605.319 400.541 601.019 396.946 600.123 396.124 C 596.284 392.599 592.334 389.621 588.056 386.535 C 585.986 385.041 583.91 383.578 581.813 382.132 C 581.243 381.739 580.829 381.411 580.367 381.207 C 579.584 380.839 578.744 380.537 577.872 380.221 L 577.809 380.198 L 577.749 380.193 C 577.59 380.181 577.506 380.17 577.351 380.106 C 577.351 380.106 577.35 380.105 577.349 380.105 C 577.349 380.105 577.349 380.105 577.349 380.105 C 577.349 380.105 577.349 380.105 577.349 380.105 C 577.349 380.105 577.349 380.105 577.349 380.105 C 577.349 380.105 577.349 380.105 577.349 380.105 C 577.349 380.105 577.349 380.105 577.349 380.105 C 577.349 380.105 577.349 380.105 577.349 380.105 C 577.349 380.105 577.349 380.105 577.349 380.105 L 577.31 380.088 C 577.31 380.088 575.526 379.387 574.636 379.041 C 573.745 378.695 572.862 378.355 571.971 378.025 C 570.191 377.364 568.441 376.761 566.656 376.254 C 562.69 375.118 558.546 374.678 554.325 374.066 C 553.814 374.017 553.475 373.767 553.181 373.359 C 552.886 372.949 552.766 372.52 552.838 371.972 C 552.909 371.425 553.132 371.051 553.519 370.742 C 553.904 370.435 554.289 370.293 554.792 370.39 C 558.956 370.994 563.311 371.478 567.547 372.668 C 569.408 373.198 571.271 373.837 573.079 374.507 L 573.117 374.521 L 573.155 374.528 C 574.165 374.726 575.106 375.091 575.95 375.456 C 576.824 375.751 577.698 376.046 578.571 376.343 C 584.308 378.3 590.145 380.205 595.769 382.832 C 600.501 385.054 605.207 387.844 609.223 391.483 C 610.743 392.873 616.067 398.704 616.666 399.367 C 618.316 401.191 620.356 403.546 621.866 405.602 C 624.103 408.674 625.957 412.106 627.554 415.491 C 629.116 418.812 630.362 422.048 631.126 425.787 C 632.181 431.121 632.441 437.33 631.926 442.734 C 631.385 448.147 629.917 453.533 628.189 458.531 C 625.41 466.517 621.539 473.486 616.244 479.928 C 612.734 484.179 608.663 488.437 603.602 491.078 C 601.468 492.144 599.261 492.726 597.326 493.507 C 597.261 493.533 597.194 493.558 597.128 493.585 L 596.331 493.911 L 597.009 494.441 C 597.188 494.581 597.397 494.726 597.634 494.894 C 598.311 495.373 599.14 495.856 599.951 496.452 C 605.205 500.373 610.36 504.114 615.951 507.31 C 621.702 510.605 627.598 513.476 633.687 516.038 C 639.531 518.501 645.406 520.512 651.547 521.796 C 665.206 524.69 679.262 524.105 693.201 522.723 C 698.182 522.232 703.059 521.362 708.018 520.369 C 711.81 519.611 715.516 518.671 719.161 517.413 C 726.433 514.924 733.189 511.148 739.964 507.188 C 745.547 503.926 747.969 502.41 753.29 498.743 C 758.671 495.036 763.906 491.232 768.616 486.741 C 775.199 480.488 780.953 473.26 785.437 465.229 C 787.314 461.883 788.923 458.377 790.425 454.787 C 794.213 445.767 796.434 436.995 796.25 427.178 C 796.19 422.969 795.7 418.813 795.067 414.592 C 794.834 413.028 794.229 409.379 793.827 407.843 C 793.107 405.07 792.342 402.142 790.918 399.887 C 788.266 395.504 785.262 392.668 781.076 389.766 C 777.324 387.152 773.493 384.787 769.343 383.186 C 766.615 382.104 765.691 381.988 762.675 381.691 C 759.789 381.406 754.635 380.872 751.354 381.01 C 748.745 381.105 746.811 381.509 744.144 382.147 C 740.815 382.94 736.933 383.644 733.908 385.139 C 730.387 386.798 727.38 389.45 724.666 392.438 C 724.278 392.903 723.87 393.392 723.436 393.911 C 722.155 395.443 720.869 396.969 719.604 398.497 C 719.486 398.646 719.377 398.783 719.264 398.925 C 719.244 398.946 719.232 398.959 719.211 398.979 L 719.193 398.996 L 719.173 399.02 C 718.89 399.364 718.606 399.71 718.326 400.056 C 713.805 405.609 713.18 406.438 709.05 412.373 C 706.968 415.366 704.945 418.309 703.206 421.442 C 702.962 421.925 702.61 422.164 702.145 422.292 C 701.68 422.42 701.273 422.395 700.842 422.102 C 700.385 421.846 700.156 421.47 700.032 420.97 C 699.907 420.469 699.935 420.014 700.218 419.548 C 702.048 416.268 704.171 413.164 706.26 410.161 C 710.431 404.168 711.14 403.228 715.701 397.621 C 715.927 397.346 716.15 397.072 716.374 396.798 L 716.396 396.773 L 716.413 396.745 C 716.503 396.599 716.585 396.481 716.652 396.39 C 716.856 396.171 717.058 395.943 717.247 395.727 C 718.001 394.775 718.752 393.821 719.507 392.864 C 721.519 390.318 723.531 387.768 725.547 385.22 C 728.332 381.702 731.084 378.111 733.968 374.616 C 735.172 373.158 738.282 369.331 740.185 367.634 C 741.672 366.346 743.887 365.039 745.442 364.207 C 747.047 363.351 748.975 362.373 750.85 361.759 C 755.619 360.286 760.664 360.481 765.309 361.018 C 769.265 361.478 773.456 362.166 777.358 363.408 C 781.349 364.697 785.316 366.59 788.825 368.992 C 792.338 371.39 795.606 374.458 798.248 377.941 C 801.546 382.345 804.078 387.299 806.348 392.202 C 807.606 394.918 808.691 397.356 809.764 400.212 C 811.244 404.177 812.418 408.327 813.138 412.549 C 813.888 417.033 813.997 420.202 814.288 424.903 C 814.541 429.036 814.539 433.2 814.433 437.302 C 814.225 445.217 813.441 453.285 811.083 460.989 C 807.632 472.004 800.959 481.625 794.752 490.678 C 792.477 493.993 790.014 497.239 787.359 500.259 C 783.205 504.969 778.531 509.175 774.113 513.4 C 769.584 517.731 765.031 522.269 760.036 526.219 C 751.038 533.308 741.064 538.933 731.142 544.177 C 721.653 549.19 711.907 554.238 701.739 557.89 C 697.626 559.349 696.29 559.57 691.748 560.831 C 687.048 562.129 682.345 563.427 677.644 564.723 C 668.616 567.211 659.558 569.934 650.244 571.633 C 642.165 573.099 633.968 573.764 625.836 574.112 C 615.632 574.547 605.266 574.563 595.042 573.16 C 586.125 571.92 577.56 569.448 569.07 566.666 C 561.705 564.253 554.402 561.594 547.188 558.728 C 540.11 555.917 533.096 552.856 526.232 549.485 C 522.083 547.447 519.683 546.303 515.966 543.996 C 509.374 539.887 503.315 534.922 497.599 529.694 C 496.102 528.324 494.622 526.933 493.154 525.527 L 493.095 525.47 L 493.02 525.435 C 489.787 523.918 486.542 522.352 483.359 520.63 L 483.303 520.6 L 483.246 520.586 C 483.2 520.575 483.159 520.566 483.147 520.562 C 481.452 520.142 479.19 519.536 477.23 518.932 C 474.404 518.351 471.651 517.556 468.944 516.577 L 468.879 516.553 L 468.809 516.548 C 466.158 516.361 463.506 516.093 460.861 515.595 C 458.049 515.046 455.301 514.238 452.607 513.239 L 448.534 511.73 L 452.157 514.125 C 454.736 515.83 457.469 517.325 460.294 518.588 C 460.549 518.695 460.723 518.832 460.897 519.041 L 460.972 519.132 L 461.09 519.179 C 463.067 519.966 465.058 520.732 467.063 521.473 C 467.557 521.631 467.846 521.952 468.058 522.415 C 468.27 522.881 468.325 523.336 468.132 523.85 C 467.979 524.375 467.674 524.684 467.238 524.904 C 466.805 525.123 466.401 525.181 465.927 524.98 C 462.554 523.731 459.214 522.413 455.898 521.024 L 455.85 521.004 L 455.8 520.994 C 455.748 520.984 455.708 520.976 455.666 520.963 C 451.591 519.864 447.154 519.574 442.788 518.762 C 441.187 518.458 436.954 517.266 435.477 516.805 C 433.224 516.1 430.947 515.266 428.863 514.147 C 427.82 513.587 426.748 512.91 425.777 512.163 C 425.617 512.041 425.445 511.896 425.255 511.731 L 424.946 511.461 L 424.621 511.713 C 423.709 512.418 422.763 513.07 421.85 513.678 C 419.57 515.15 416.858 515.979 414.61 516.682 C 413.136 517.144 408.908 518.334 407.309 518.637 C 404.69 519.127 402.071 519.475 399.506 519.885 C 398.611 520.027 397.721 520.131 396.869 520.267 C 396.443 520.335 396.051 520.407 395.648 520.497 C 395.422 520.549 395.044 520.656 394.756 520.74 L 394.728 520.747 L 394.702 520.758 C 392.694 521.593 390.674 522.396 388.667 523.189 C 387.898 523.494 387.12 523.769 386.371 524.035 C 385.618 524.303 384.131 524.867 384.131 524.867 C 383.655 525.062 383.252 524.999 382.821 524.774 C 382.388 524.549 382.086 524.235 381.939 523.707 C 381.753 523.19 381.813 522.738 382.031 522.275 C 382.235 521.842 382.506 521.537 382.949 521.376 L 382.96 521.376 L 383.037 521.347 L 383.035 521.347 C 383.006 521.356 382.977 521.366 382.949 521.376 C 382.949 521.376 382.867 521.376 382.867 521.376 C 382.867 521.376 382.867 521.376 382.867 521.376 C 382.867 521.376 382.867 521.376 382.867 521.376 C 382.867 521.376 382.867 521.376 382.867 521.376 C 382.867 521.376 382.867 521.376 382.867 521.376 C 382.867 521.376 382.867 521.376 382.867 521.376 C 382.867 521.376 382.867 521.376 382.867 521.376 C 382.867 521.376 382.867 521.376 382.867 521.376 C 382.867 521.376 384.717 520.376 385.662 520.376 C 385.534 520.422 385.404 520.468 385.273 520.514 C 384.527 520.779 383.046 521.343 383.046 521.343 L 383.037 521.347 L 386.206 520.376 C 386.206 520.376 385.987 520.376 385.662 520.376 C 386.276 520.158 386.872 519.943 387.46 519.71 C 387.968 519.51 388.473 519.309 388.977 519.107 L 389.105 519.056 L 389.184 518.954 C 389.343 518.746 389.494 518.616 389.715 518.503 C 389.851 518.442 391.207 517.844 391.906 517.496 C 392.602 517.15 393.271 516.792 393.954 516.405 C 395.234 515.679 396.47 514.906 397.705 514.084 L 401.217 511.747 L 397.256 513.199 C 394.637 514.158 391.967 514.938 389.237 515.469 C 386.679 515.956 384.108 516.229 381.561 516.411 C 381.514 516.413 381.483 516.415 381.48 516.415 L 381.432 516.409 L 381.334 516.445 C 379.779 517.023 378.214 517.535 376.616 517.976 C 375.559 518.262 374.533 518.483 373.553 518.672 C 373.309 518.718 373.007 518.776 372.69 518.836 L 372.66 518.841 L 372.631 518.851 C 370.742 519.455 368.844 519.967 366.947 520.438 C 366.875 520.455 366.802 520.473 366.728 520.491 L 366.666 520.506 L 366.609 520.537 C 366.515 520.587 366.422 520.638 366.33 520.687 C 363.765 522.059 361.139 523.342 358.53 524.582 C 358.289 524.697 358.048 524.811 357.806 524.925 L 357.733 524.96 L 357.674 525.016 C 350.377 532.022 342.786 538.751 334.218 544.108 C 330.496 546.415 328.096 547.56 323.943 549.601 C 317.075 552.973 310.058 556.036 302.978 558.848 C 295.761 561.714 288.455 564.374 281.088 566.788 C 272.591 569.572 264.02 572.045 255.096 573.287 C 244.865 574.691 234.492 574.675 224.281 574.239 C 216.143 573.891 207.941 573.227 199.858 571.759 C 190.54 570.059 181.478 567.335 172.448 564.846 C 167.746 563.551 163.044 562.254 158.344 560.955 C 153.798 559.691 152.461 559.471 148.344 558.011 C 138.171 554.356 128.421 549.307 118.926 544.291 C 108.997 539.045 99.017 533.415 90.013 526.321 C 85.015 522.368 80.459 517.827 75.929 513.495 C 71.508 509.268 66.831 505.058 62.673 500.345 C 60.017 497.323 57.549 494.072 55.272 490.753 C 49.057 481.688 42.378 472.055 38.924 461.026 C 36.563 453.311 35.776 445.233 35.568 437.305 C 35.462 433.2 35.46 429.032 35.714 424.894 C 36.005 420.187 36.115 417.017 36.865 412.526 C 37.586 408.296 38.763 404.137 40.247 400.165 C 41.32 397.304 42.406 394.867 43.666 392.145 C 45.939 387.235 48.476 382.273 51.78 377.861 C 54.428 374.368 57.706 371.292 61.229 368.888 C 64.748 366.478 68.725 364.579 72.729 363.286 C 76.637 362.042 80.837 361.352 84.8 360.892 C 89.464 360.352 94.524 360.158 99.308 361.637 C 101.19 362.253 103.123 363.233 104.735 364.093 C 106.299 364.93 108.52 366.241 110.013 367.535 C 111.927 369.24 115.03 373.06 116.247 374.534 C 121.19 380.523 125.926 386.707 130.707 392.779 L 130.672 392.728 C 130.986 393.198 131.853 393.717 132.652 394.42 C 133.075 394.787 133.643 395.375 133.913 395.96 C 134.079 396.291 134.243 396.946 134.217 397.388 C 134.217 397.388 134.217 397.567 134.217 397.568 L 134.329 397.706 C 138.888 403.31 139.596 404.247 143.765 410.237 C 144.856 411.805 145.913 413.305 146.919 414.828 C 147.921 416.346 149.72 419.481 149.72 419.481 C 150.125 420.064 150.165 420.72 149.833 421.352 C 149.562 422.008 149.061 422.362 148.391 422.371 C 147.725 422.452 147.202 422.191 146.854 421.58 C 146.817 421.513 145.933 419.923 145.484 419.182 C 145.028 418.429 144.566 417.705 144.077 416.967 C 143.102 415.488 142.071 414.025 140.975 412.448 C 136.847 406.517 136.223 405.689 131.705 400.138 C 130.028 398.078 128.312 396.047 126.595 393.994 C 126.241 393.572 125.883 393.141 125.548 392.734 C 124.285 391.346 122.957 390.041 121.53 388.836 C 119.832 387.395 118.113 386.186 116.169 385.257 C 113.152 383.767 109.268 383.061 105.951 382.271 C 104.628 381.954 103.355 381.663 102.058 381.461 C 97.324 380.689 92.412 381.327 87.461 381.817 C 84.457 382.114 83.535 382.228 80.824 383.305 C 76.681 384.904 72.859 387.263 69.115 389.871 C 64.943 392.764 61.95 395.59 59.308 399.953 C 57.888 402.197 57.13 405.113 56.415 407.871 C 56.013 409.405 55.408 413.052 55.175 414.613 C 54.544 418.827 54.054 422.977 53.994 427.181 C 53.81 436.978 56.028 445.731 59.808 454.735 C 61.31 458.323 62.917 461.822 64.791 465.163 C 69.268 473.185 75.015 480.404 81.59 486.648 C 86.295 491.135 91.524 494.934 96.9 498.637 C 102.218 502.301 104.639 503.816 110.218 507.078 C 116.986 511.032 123.736 514.805 130.999 517.292 C 134.641 518.548 138.342 519.486 142.129 520.244 C 147.084 521.236 151.957 522.105 156.934 522.596 C 170.861 523.977 184.904 524.562 198.551 521.671 C 204.684 520.389 210.553 518.379 216.39 515.92 C 222.475 513.359 228.368 510.491 234.113 507.199 C 239.701 504.004 244.853 500.265 250.102 496.347 C 250.98 495.692 251.841 495.059 252.678 494.406 L 253.372 493.865 L 252.552 493.546 C 251.37 493.087 250.075 492.731 248.741 492.222 C 245.319 490.874 242.099 488.653 239.43 486.175 C 237.814 484.662 235.182 481.701 233.787 480.012 C 230.397 475.896 227.301 471.266 224.938 466.364 C 223.163 462.655 221.736 458.649 220.573 454.742 C 218.582 448.006 217.623 441.52 217.938 434.401 C 218.069 431.608 218.318 428.586 218.878 425.76 C 219.644 422.01 220.893 418.764 222.461 415.432 C 224.061 412.04 225.919 408.602 228.161 405.524 C 229.673 403.464 231.716 401.107 233.368 399.279 C 233.975 398.608 239.296 392.781 240.819 391.387 C 246.004 386.697 252.273 383.438 258.457 380.896 C 262.93 379.061 266.888 377.799 271.515 376.222 C 273.189 375.651 274.867 375.087 276.544 374.529 C 276.591 374.509 277.068 374.457 277.587 374.441 L 277.667 374.438 L 277.743 374.41 C 279.346 373.82 280.962 373.263 282.61 372.791 C 284.725 372.194 286.902 371.766 289.025 371.428 C 290.085 371.257 291.152 371.105 292.206 370.957 C 293.182 370.822 295.044 370.559 295.321 370.52 C 295.32 370.52 295.289 370.52 295.287 370.52 C 295.287 370.52 295.287 370.52 295.287 370.52 C 295.287 370.52 295.287 370.52 295.287 370.52 C 295.287 370.52 295.287 370.52 295.287 370.52 C 295.287 370.52 295.287 370.52 295.287 370.52 L 295.355 370.515 C 295.858 370.421 296.244 370.565 296.627 370.874 C 297.013 371.185 297.254 371.559 297.303 372.109 C 297.392 372.653 297.251 373.084 296.953 373.492 C 296.657 373.898 296.316 374.147 295.805 374.195 L 295.768 374.198 C 295.768 374.198 295.765 374.199 295.759 374.201 C 295.449 374.245 293.613 374.503 292.657 374.637 C 291.609 374.783 290.574 374.931 289.54 375.097 C 287.471 375.429 285.483 375.812 283.502 376.377 C 279.94 377.381 276.437 378.877 272.831 380.216 C 272.694 380.271 272.582 380.296 272.44 380.31 L 272.38 380.316 L 272.319 380.339 C 270.878 380.881 269.534 381.413 268.374 382.24 C 261.996 386.634 255.752 391.011 250.08 396.221 C 249.187 397.039 244.893 400.629 243.313 402.714 C 241.57 404.972 240.632 406.395 239.298 408.988 C 238.114 411.282 236.245 414.794 235.339 417.578 C 234.079 421.299 233.823 425.162 234.178 429.223 C 234.539 433.286 235.523 437.204 236.945 440.895 C 238.57 445.203 240.89 448.605 244.004 451.977 C 246.114 454.295 248.675 456.164 251.396 457.749 C 252.835 458.593 254.755 459.589 256.379 460.113 C 260.131 461.356 263.77 462.029 267.724 462.412 C 277.079 463.33 286.534 463.427 295.22 459.905 C 303.177 456.797 309.746 450.534 316.451 444.738 C 326.633 435.941 336.454 426.514 347.165 418.18 C 352.671 413.899 358.431 409.8 364.446 406.264 C 367.712 404.345 371.23 402.359 374.95 401.095 C 377.339 400.299 379.89 399.78 382.386 399.572 C 390.813 398.965 399.196 401.819 406.408 405.785 C 409.016 407.227 412.116 409.243 414.585 410.804 C 416.396 411.949 418.207 413.092 420.017 414.233 C 420.924 414.805 421.831 415.375 422.735 415.944 C 423.326 416.316 424.305 416.929 424.915 417.31 L 425.181 417.476 L 425.446 417.309 C 428.834 415.182 432.218 413.051 435.6 410.914 Z"
    style="fill: none;" />
</svg>