<?xml version="1.0" standalone="no"?>
<!DOCTYPE svg PUBLIC "-//W3C//DTD SVG 20010904//EN"
 "http://www.w3.org/TR/2001/REC-SVG-20010904/DTD/svg10.dtd">
<svg version="1.0" xmlns="http://www.w3.org/2000/svg"
 width="1600.000000pt" height="1131.000000pt" viewBox="0 0 1600.000000 1131.000000"
 preserveAspectRatio="xMidYMid meet">

<g transform="translate(0.000000,1131.000000) scale(0.100000,-0.100000)"
fill="#000000" stroke="none">
<path d="M9745 9250 c-136 -7 -289 -34 -368 -65 -47 -19 -76 -20 -59 -3 7 7
12 22 12 35 0 19 -5 23 -29 23 -55 0 -217 -85 -290 -154 l-34 -31 8 30 c16 58
12 90 -11 93 -37 5 -179 -165 -258 -309 -74 -135 -102 -259 -91 -408 9 -114
24 -137 87 -127 48 8 159 63 212 105 21 17 50 31 63 31 13 0 95 27 181 61 86
34 180 67 207 74 28 7 142 38 255 69 626 170 806 166 1293 -30 89 -36 197 -84
239 -107 43 -22 81 -37 85 -33 5 4 -14 28 -40 52 -27 24 -47 44 -44 44 2 0 24
-7 48 -16 48 -17 129 -26 129 -14 0 9 -185 226 -202 237 -8 4 -78 77 -157 161
-79 84 -157 160 -175 169 -142 77 -258 98 -518 96 -163 -2 -197 1 -202 13 -6
16 -88 17 -341 4z m195 -55 l-45 -24 291 5 c188 3 314 1 360 -6 100 -16 234
-58 271 -86 18 -13 104 -104 192 -202 88 -97 185 -199 217 -226 31 -28 52 -52
45 -54 -6 -2 -64 22 -129 53 -64 32 -133 64 -152 72 -35 15 -35 15 -17 -5 10
-11 36 -33 58 -48 81 -56 38 -52 -103 11 -351 154 -557 189 -855 145 -167 -24
-382 -87 -618 -181 -64 -26 -68 -26 -41 -6 88 67 137 110 156 138 l22 30 -53
-34 c-95 -60 -241 -134 -349 -178 -58 -23 -117 -48 -132 -55 -16 -8 -28 -12
-28 -9 0 4 25 38 55 77 31 39 53 73 51 76 -3 2 -47 -34 -98 -82 -117 -109
-196 -168 -275 -207 -92 -46 -97 -42 -90 89 10 183 71 331 216 525 19 26 38
47 42 47 3 0 2 -19 -3 -42 -5 -24 -12 -61 -15 -83 l-6 -40 99 101 c67 69 120
113 164 137 105 58 107 57 56 -22 -25 -39 -46 -74 -46 -78 0 -4 15 7 33 24 83
80 422 157 712 161 l60 1 -45 -24z"/>
<path d="M5850 9241 c0 -7 -60 -10 -197 -10 -230 1 -332 -13 -446 -61 -87 -36
-126 -66 -211 -160 -32 -36 -107 -114 -166 -175 -114 -117 -230 -250 -230
-264 0 -11 95 4 150 23 l45 16 -45 -39 c-25 -22 -48 -40 -52 -41 -8 0 -11 -30
-4 -30 3 0 37 18 78 39 93 51 397 172 513 206 313 91 545 70 1139 -101 66 -18
121 -32 123 -30 14 13 -445 169 -575 195 -366 74 -582 44 -992 -139 -62 -28
-115 -49 -117 -47 -9 10 11 35 53 65 25 19 43 36 41 39 -3 2 -51 -19 -106 -47
-56 -28 -125 -60 -154 -71 l-52 -20 106 108 c58 59 161 170 229 246 70 78 139
146 160 157 20 10 79 31 131 47 l94 28 332 -1 c183 0 330 2 328 5 -3 2 -22 13
-43 23 l-37 18 140 -5 c77 -4 172 -10 210 -16 155 -21 377 -91 423 -132 31
-29 28 -15 -14 50 -19 30 -33 57 -30 60 3 3 37 -12 77 -33 67 -36 186 -140
244 -214 18 -23 20 -23 23 -6 2 11 -2 46 -8 78 -7 32 -11 61 -8 63 10 10 130
-164 172 -250 55 -113 83 -203 92 -299 8 -94 0 -146 -25 -146 -54 0 -194 96
-360 247 -89 82 -93 72 -9 -28 59 -71 64 -72 -121 6 -136 56 -270 124 -348
176 -24 16 -43 24 -43 20 0 -14 99 -100 170 -147 69 -46 382 -174 425 -174 14
0 46 -16 72 -37 63 -48 169 -97 210 -97 62 0 68 17 68 182 -1 141 -2 150 -33
233 -18 48 -55 122 -82 165 -51 83 -167 228 -201 252 -42 29 -63 -11 -39 -74
6 -15 8 -29 6 -32 -3 -2 -29 17 -58 42 -60 52 -219 136 -260 136 -32 0 -41
-21 -21 -49 21 -31 13 -34 -38 -16 -24 9 -89 28 -144 42 -89 22 -126 26 -342
30 -174 4 -243 2 -243 -6z"/>
<path d="M5476 8749 c-281 -39 -498 -119 -717 -265 -281 -188 -492 -458 -614
-785 -19 -52 -35 -100 -35 -106 0 -9 -21 -13 -72 -13 -107 0 -299 -20 -328
-33 -31 -15 -35 -37 -20 -102 11 -46 10 -53 -10 -88 -22 -36 -22 -37 -5 -110
17 -72 17 -74 -4 -121 -25 -57 -26 -77 -6 -116 15 -29 82 -59 330 -149 78 -28
80 -29 93 -72 91 -307 171 -467 332 -664 203 -248 513 -446 823 -526 741 -190
1509 157 1847 836 101 204 154 396 167 615 4 71 10 100 23 115 55 61 60 82 60
233 0 129 -2 144 -20 162 -12 12 -33 20 -55 20 -19 0 -35 3 -35 7 0 20 65 102
88 112 15 6 68 17 117 25 50 9 149 27 220 41 199 40 362 43 545 11 444 -77
437 -75 475 -135 30 -48 31 -60 8 -59 -40 3 -74 -13 -84 -39 -6 -17 -7 -80 -3
-170 7 -142 7 -145 39 -186 30 -40 33 -51 48 -194 10 -83 28 -194 42 -245 166
-633 701 -1106 1345 -1189 803 -104 1550 395 1766 1180 13 46 25 85 26 86 2 2
75 30 163 64 226 87 240 94 255 132 12 29 11 39 -9 96 -23 63 -23 65 -6 133
17 69 17 70 -6 106 -20 34 -21 40 -10 86 15 55 9 93 -17 107 -23 12 -215 31
-317 31 l-82 0 -28 86 c-39 119 -131 302 -207 409 -81 115 -277 312 -393 394
-49 34 -144 89 -210 122 -626 306 -1358 187 -1845 -300 -125 -126 -224 -258
-292 -389 l-42 -83 -21 63 c-26 80 -40 88 -245 123 -293 51 -365 57 -635 52
-229 -5 -267 -8 -452 -40 -111 -20 -220 -41 -243 -47 -46 -13 -75 -49 -85
-112 -4 -21 -10 -38 -14 -38 -4 0 -21 28 -37 63 -64 137 -210 331 -338 448
-159 146 -394 284 -595 349 -196 63 -496 94 -675 69z m479 -127 c349 -75 666
-272 881 -548 307 -393 399 -917 243 -1389 -194 -587 -726 -994 -1350 -1031
-163 -10 -380 19 -539 73 -102 34 -284 121 -361 174 -343 230 -580 590 -651
989 -70 395 30 827 265 1147 75 102 260 280 362 349 199 135 422 221 655 254
105 14 391 4 495 -18z m4500 18 c326 -37 646 -192 885 -430 262 -261 417 -609
436 -980 39 -741 -468 -1393 -1202 -1546 -175 -37 -394 -39 -561 -6 -619 123
-1081 581 -1203 1192 -33 161 -33 397 -1 558 50 257 159 486 328 691 228 276
614 484 967 521 107 11 250 11 351 0z m-2143 -665 c162 -23 348 -54 383 -65
28 -9 33 -19 57 -98 26 -86 27 -89 10 -135 -18 -51 -27 -58 -37 -27 -9 29 -53
79 -84 95 -15 7 -94 25 -177 39 -436 74 -501 79 -704 46 -346 -57 -437 -74
-461 -86 -32 -16 -89 -79 -89 -99 0 -35 -20 -20 -35 26 -17 50 -17 54 6 136
15 58 29 89 43 98 18 12 205 45 411 74 109 15 554 12 677 -4z m-1017 -441 c14
-14 16 -37 13 -150 -3 -123 -5 -135 -25 -156 l-23 -22 0 34 c0 19 -7 80 -16
135 -30 195 -31 175 4 175 17 0 38 -7 47 -16z m1420 -12 c-9 -24 -35 -209 -35
-251 0 -48 -13 -59 -34 -29 -13 18 -16 51 -16 156 0 127 1 133 22 141 32 12
70 2 63 -17z m-4625 -4 c-1 -7 -7 -38 -14 -68 l-12 -55 -95 -16 c-52 -8 -107
-19 -123 -23 -56 -14 -5 -26 102 -25 57 1 105 -1 108 -3 2 -3 2 -23 -2 -45
l-6 -40 -67 -7 c-66 -7 -197 -44 -187 -53 2 -3 61 -5 130 -4 l126 0 0 -62 0
-62 -133 0 c-72 -1 -146 -4 -162 -7 -50 -11 -59 2 -36 53 24 51 26 87 9 157
-9 44 -9 56 7 88 15 32 16 46 8 89 -6 27 -10 51 -9 52 3 3 298 40 334 42 12 0
22 -5 22 -11z m7960 -14 c80 -8 146 -17 148 -19 2 -1 -2 -23 -8 -48 -10 -39
-9 -51 8 -90 19 -43 19 -49 5 -106 -14 -56 -14 -65 1 -108 34 -95 38 -87 -40
-80 -38 4 -115 7 -171 7 l-103 0 0 60 0 60 124 -6 c83 -5 125 -3 130 4 9 15
-106 51 -186 59 -70 6 -78 13 -78 71 0 21 3 22 108 22 105 0 157 11 116 24
-11 3 -57 13 -104 21 -131 24 -128 22 -134 52 -21 107 -21 106 10 99 16 -3 94
-13 174 -22z m-7986 -570 c4 -31 5 -58 3 -60 -4 -4 -285 101 -294 110 -3 3 59
6 139 6 l145 0 7 -56z m8086 49 c0 -5 -62 -31 -138 -59 -151 -56 -149 -56
-137 22 l6 44 135 0 c74 0 134 -3 134 -7z"/>
<path d="M3888 4960 c-156 -27 -274 -132 -377 -337 -70 -141 -86 -214 -85
-388 1 -130 5 -161 27 -231 42 -137 101 -237 256 -442 139 -184 292 -314 551
-469 188 -113 331 -176 565 -250 299 -94 472 -126 795 -144 241 -14 321 -9
480 30 317 76 483 134 695 241 150 75 219 123 363 249 78 68 113 92 140 96
143 24 199 49 307 137 43 36 46 37 20 9 -16 -18 -67 -60 -112 -94 -46 -33 -81
-63 -78 -65 9 -9 172 41 225 69 l55 28 -50 -45 -50 -46 41 4 c28 2 40 0 37 -8
-7 -18 111 3 180 32 88 37 100 38 143 16 83 -42 267 -81 250 -53 -5 7 4 11 26
11 l33 0 -45 39 -45 40 59 -30 c32 -16 66 -29 76 -29 9 0 37 -7 63 -16 84 -29
83 -12 -2 50 -45 33 -81 62 -81 64 0 3 10 -3 23 -12 87 -63 137 -82 260 -101
27 -4 56 -22 100 -61 121 -106 216 -180 296 -228 134 -81 370 -179 561 -234
289 -83 389 -102 531 -102 246 0 574 35 753 81 192 49 437 134 581 203 224
108 459 261 612 401 78 71 234 272 319 412 165 272 177 574 34 853 -87 168
-171 253 -298 300 -119 45 -276 33 -394 -29 -165 -86 -316 -208 -362 -291 -19
-35 -18 -35 30 11 61 58 153 120 230 156 51 24 71 27 154 27 284 -1 458 -126
516 -371 22 -94 14 -271 -16 -368 -80 -256 -322 -529 -610 -688 -152 -84 -399
-154 -625 -177 -199 -21 -416 9 -611 83 -159 61 -283 129 -392 216 l-53 42 73
48 c275 179 409 571 284 826 -36 72 -110 154 -226 248 -112 91 -308 193 -435
225 -155 39 -151 32 40 -62 203 -101 272 -149 356 -252 90 -108 119 -201 100
-318 -23 -142 -85 -228 -210 -291 -140 -70 -379 -72 -514 -4 -93 47 -285 191
-492 370 -144 123 -216 176 -287 209 -210 98 -474 71 -657 -68 l-54 -41 -51
39 c-229 170 -544 170 -772 -2 -32 -23 -124 -99 -204 -166 -164 -140 -320
-259 -412 -315 -100 -60 -152 -72 -313 -72 -128 1 -145 3 -204 27 -186 78
-267 198 -259 388 5 124 33 179 156 301 96 94 101 98 282 187 101 51 174 92
163 92 -11 0 -61 -11 -109 -25 -160 -46 -324 -138 -474 -264 -170 -144 -223
-243 -224 -416 0 -125 18 -198 85 -334 43 -87 65 -118 133 -186 44 -45 104
-94 133 -110 29 -15 50 -32 47 -37 -15 -24 -169 -129 -252 -171 -375 -194
-700 -223 -1150 -102 -247 66 -474 211 -664 423 -165 184 -238 344 -254 561
-12 158 41 324 134 418 125 127 400 181 556 110 64 -29 163 -95 219 -146 l41
-36 -20 34 c-45 79 -253 234 -383 287 -56 23 -165 45 -211 43 -14 -1 -46 -5
-72 -9z m227 -61 l70 -23 -75 -8 c-117 -12 -169 -26 -250 -66 -136 -66 -222
-181 -266 -352 -24 -95 -15 -266 21 -380 68 -216 242 -448 472 -631 340 -271
945 -379 1352 -243 102 34 259 111 351 172 79 52 204 161 220 192 14 27 2 48
-30 55 -39 9 -137 74 -182 121 -165 176 -241 456 -171 637 18 47 92 157 105
157 4 0 -3 -21 -15 -47 -19 -41 -22 -65 -21 -168 0 -150 20 -208 100 -294 104
-112 241 -165 429 -164 225 1 308 47 753 417 254 212 309 243 469 266 157 23
355 -33 468 -132 24 -21 47 -38 52 -38 5 0 24 13 43 28 58 48 112 78 190 108
69 26 87 28 210 29 124 0 141 -2 210 -28 81 -30 176 -96 340 -237 52 -45 159
-131 237 -191 257 -198 319 -225 528 -223 115 1 138 5 205 29 175 65 275 170
310 326 17 78 9 202 -18 262 -11 26 -17 47 -11 47 17 0 89 -122 106 -180 51
-174 -22 -427 -167 -583 -66 -70 -177 -147 -212 -147 -13 0 -18 -8 -18 -29 0
-23 13 -41 58 -82 219 -201 493 -327 782 -360 236 -27 545 24 798 131 154 66
228 112 357 223 212 183 366 408 420 613 25 95 30 257 11 339 -25 103 -80 211
-140 270 -88 87 -257 154 -390 155 -30 0 -46 4 -40 9 22 21 133 44 214 44 92
1 147 -17 215 -69 71 -54 193 -247 236 -374 27 -81 38 -307 20 -416 -25 -147
-108 -295 -283 -504 -118 -140 -277 -287 -406 -373 -139 -93 -488 -254 -667
-308 -368 -109 -584 -142 -940 -143 -217 0 -247 2 -315 21 -41 12 -104 29
-140 38 -99 25 -350 120 -488 186 -146 69 -224 115 -312 183 -76 58 -267 223
-275 237 -11 16 -27 10 -20 -8 4 -10 9 -24 13 -32 7 -19 -102 52 -169 110 -75
66 -91 64 -44 -5 13 -20 22 -36 19 -36 -10 0 -98 66 -118 89 -23 25 -36 27
-36 4 0 -14 -3 -13 -23 5 -22 20 -47 29 -47 17 0 -13 35 -73 63 -109 38 -48
18 -38 -71 33 -34 28 -67 51 -72 51 -5 0 -21 23 -35 50 -25 50 -45 58 -45 20
0 -25 43 -122 72 -162 24 -34 14 -31 -44 14 -36 28 -58 30 -58 5 0 -7 16 -25
36 -40 50 -41 35 -45 -32 -8 l-56 30 -42 -24 c-22 -13 -54 -29 -71 -34 -27
-10 -25 -7 18 30 46 40 62 79 32 79 -8 0 -15 -4 -15 -9 0 -10 -79 -71 -92 -71
-4 0 6 19 22 43 27 41 70 137 70 157 0 26 -28 5 -53 -40 -16 -28 -32 -48 -37
-45 -5 3 -12 1 -15 -5 -10 -15 -136 -110 -148 -110 -5 0 5 16 23 36 36 42 67
101 57 111 -4 3 -21 -7 -39 -23 -20 -19 -29 -23 -25 -11 9 23 -15 22 -37 -2
-10 -10 -44 -38 -77 -61 l-60 -42 32 45 c43 62 33 76 -21 27 -43 -40 -172
-130 -185 -130 -3 0 -1 9 5 19 25 48 2 35 -105 -59 -170 -150 -267 -219 -400
-287 -188 -95 -413 -186 -560 -225 -38 -10 -104 -28 -145 -39 -57 -15 -118
-22 -251 -26 -455 -14 -891 73 -1324 264 -299 132 -408 203 -610 392 -73 69
-224 243 -287 332 -64 89 -123 216 -149 319 -19 73 -21 103 -16 210 7 155 19
213 67 316 70 151 176 285 259 328 79 41 206 43 326 5z"/>
<path d="M7400 3990 l-25 -7 28 -8 c32 -8 97 2 97 15 0 12 -63 12 -100 0z"/>
<path d="M8430 3991 c0 -14 28 -21 86 -21 59 0 72 14 23 24 -46 9 -109 7 -109
-3z"/>
<path d="M8034 3928 c-4 -5 0 -14 7 -19 38 -24 212 -94 274 -111 76 -20 384
-43 397 -30 4 4 -56 16 -135 26 -180 22 -299 49 -407 93 -47 19 -95 39 -107
43 -14 6 -25 5 -29 -2z"/>
<path d="M7256 3909 c-64 -18 -242 -106 -233 -115 2 -2 46 14 98 35 107 44
199 66 312 76 42 4 77 11 77 16 0 17 -182 9 -254 -12z"/>
<path d="M7775 3889 c-115 -47 -216 -71 -411 -98 l-139 -19 121 -1 c127 -1
241 15 336 48 79 27 218 93 218 102 0 15 -22 9 -125 -32z"/>
<path d="M8420 3921 c0 -10 30 -15 148 -26 75 -7 162 -33 292 -86 105 -43 96
-31 -25 36 -110 60 -206 85 -322 85 -51 0 -93 -4 -93 -9z"/>
<path d="M9815 3663 c-196 -86 -342 -122 -489 -123 -73 0 -45 -20 40 -29 l69
-7 -140 -27 c-77 -15 -169 -30 -205 -33 -121 -12 -248 21 -343 88 -15 11 -35
18 -44 16 -25 -5 24 -58 84 -90 84 -46 164 -61 288 -55 121 6 181 20 318 73
51 19 134 46 185 59 87 22 205 75 294 131 36 23 47 35 31 33 -5 -1 -44 -17
-88 -36z"/>
<path d="M6055 3676 c10 -9 63 -39 116 -66 123 -63 262 -98 378 -95 123 2 123
21 -1 28 -133 9 -200 26 -356 88 -157 63 -162 65 -137 45z"/>
<path d="M7165 3516 c-124 -81 -247 -94 -470 -52 -211 40 -208 40 -160 17 81
-39 218 -73 320 -78 151 -8 266 24 350 98 64 57 39 66 -40 15z"/>
<path d="M6219 3415 c-302 -162 -422 -214 -639 -274 -158 -43 -159 -53 -4 -21
181 37 322 92 551 212 122 65 213 127 187 128 -6 0 -48 -20 -95 -45z"/>
<path d="M9640 3429 c55 -47 432 -231 545 -266 55 -17 143 -38 195 -48 52 -9
106 -18 118 -21 13 -3 21 -1 18 4 -3 6 -23 13 -43 17 -58 10 -234 61 -313 89
-94 34 -254 110 -400 190 -130 72 -179 86 -120 35z"/>
<path d="M6315 3341 c-78 -37 -203 -111 -188 -111 18 0 168 65 218 94 86 51
65 63 -30 17z"/>
<path d="M9540 3361 c0 -20 274 -151 287 -137 4 3 -144 90 -214 125 -45 22
-73 27 -73 12z"/>
<path d="M6601 3274 c-83 -56 -335 -178 -451 -219 -115 -39 -272 -69 -448 -84
-63 -5 -117 -13 -120 -16 -4 -4 70 -5 163 -2 267 8 387 41 665 183 162 83 260
145 260 164 0 17 -13 12 -69 -26z"/>
<path d="M9260 3301 c0 -19 119 -94 270 -171 160 -81 288 -130 400 -156 78
-18 423 -30 460 -16 18 7 -11 10 -110 14 -173 8 -367 40 -493 85 -108 37 -342
151 -442 214 -62 39 -85 47 -85 30z"/>
</g>
</svg>
