<?xml version="1.0" encoding="iso-8859-1"?>
<!-- Uploaded to: SVG Repo, www.svgrepo.com, Generator: SVG Repo Mixer Tools -->
<svg fill="#000000" height="800px" width="800px" version="1.1" id="Layer_1" xmlns="http://www.w3.org/2000/svg" xmlns:xlink="http://www.w3.org/1999/xlink" 
	 viewBox="0 0 503.607 503.607" xml:space="preserve">
<g transform="translate(1 1)">
	<g>
		<g>
			<path d="M376.705-1h-16.787h-218.23h-16.787c-14.269,0-25.18,10.911-25.18,25.18v83.934v33.574v218.23v25.18
				c0,1.117,0.034,2.205,0.084,3.283c0.006,0.117,0.012,0.233,0.019,0.35c0.05,0.953,0.121,1.896,0.217,2.831
				c0.019,0.198,0.036,0.397,0.057,0.595c0.029,0.252,0.064,0.503,0.096,0.754c3.904,33.283,32.387,59.334,66.675,59.334h33.574
				v26.02c0,13.43,10.911,24.341,24.341,24.341h52.039c13.43,0,24.341-10.911,24.341-24.341v-26.02h33.574
				c28.941,0,53.753-18.559,63.137-44.361l1.492-3.482c1.679-5.875,2.518-12.59,2.518-19.305v-25.18v-218.23v-33.574V24.18
				C401.885,9.911,390.974-1,376.705-1z M116.508,116.508h268.59v16.787h-268.59V116.508z M292.771,57.754V15.787h16.787v41.967
				H292.771z M259.197,57.754V15.787h16.787v41.967H259.197z M225.623,57.754V15.787h16.787v41.967H225.623z M192.049,57.754V15.787
				h16.787v41.967H192.049z M326.344,15.787h16.787v41.128c0,0,0,0.839-0.839,0.839h-15.948V15.787z M175.262,15.787v41.967h-15.948
				c0,0-0.839,0-0.839-0.839V15.787H175.262z M124.902,15.787h16.787v41.128c0,10.072,8.393,17.626,17.626,17.626h182.977
				c9.233,0,17.626-7.554,17.626-17.626V15.787h16.787c5.036,0,8.393,3.357,8.393,8.393v75.541h-268.59V24.18
				C116.508,19.144,119.866,15.787,124.902,15.787z M385.098,385.098c0,0.001,0,0.002,0,0.003c0,2.475-0.189,4.907-0.538,7.289
				c-0.087,0.38-0.184,0.75-0.301,1.102H117.348c-0.117-0.351-0.214-0.721-0.301-1.1c-0.35-2.383-0.538-4.817-0.538-7.293v-8.393
				h268.59V385.098z M284.377,478.266c0,4.197-3.357,7.554-7.554,7.554h-52.039c-4.197,0-7.554-3.357-7.554-7.554v-26.02h67.148
				V478.266z M334.738,435.459h-33.574H200.443h-33.574c-18.539,0-34.81-10.16-43.552-25.18H378.29
				C369.548,425.299,353.277,435.459,334.738,435.459z M116.508,359.918V150.082h268.59v209.836H116.508z"/>
			<path d="M292.771,217.23h-83.934c-23.502,0-41.967,18.466-41.967,41.967c0,23.502,18.466,41.967,41.967,41.967h83.934
				c23.502,0,41.967-18.466,41.967-41.967C334.738,235.695,316.272,217.23,292.771,217.23z M183.656,259.197
				c0-14.269,10.911-25.18,25.18-25.18h33.574v50.361h-33.574C194.567,284.377,183.656,273.466,183.656,259.197z M292.771,284.377
				h-33.574v-50.361h33.574c14.269,0,25.18,10.911,25.18,25.18S307.039,284.377,292.771,284.377z"/>
		</g>
	</g>
</g>
</svg>