<?xml version="1.0" standalone="no"?>
<!DOCTYPE svg PUBLIC "-//W3C//DTD SVG 20010904//EN"
 "http://www.w3.org/TR/2001/REC-SVG-20010904/DTD/svg10.dtd">
<svg version="1.0" xmlns="http://www.w3.org/2000/svg"
 width="2133.000000pt" height="2133.000000pt" viewBox="0 0 2133.000000 2133.000000"
 preserveAspectRatio="xMidYMid meet">
<metadata>
Created by potrace 1.14, written by Peter Selinger 2001-2017
</metadata>
<g transform="translate(0.000000,2133.000000) scale(0.100000,-0.100000)"
fill="#000000" stroke="none">
<path d="M13040 15463 c-208 -11 -393 -41 -534 -87 -79 -26 -107 -26 -86 -1 6
8 10 26 8 42 -3 26 -6 28 -43 26 -71 -5 -258 -105 -359 -192 -26 -23 -50 -40
-53 -38 -2 2 1 26 7 53 26 117 -15 125 -115 21 -145 -151 -288 -390 -337 -562
-19 -68 -23 -104 -23 -240 0 -225 20 -263 125 -235 69 19 145 55 236 115 47
30 106 60 131 66 26 5 142 45 257 89 273 101 851 258 1151 311 186 33 473 33
625 0 206 -44 514 -157 802 -292 82 -39 152 -68 155 -65 3 3 -21 32 -52 66
-32 33 -56 60 -53 60 3 0 30 -9 61 -19 66 -23 167 -37 167 -24 0 38 -636 712
-715 759 -65 37 -195 82 -293 100 -58 10 -177 17 -362 21 -209 4 -280 9 -295
19 -18 13 -228 17 -405 7z m260 -48 c0 -2 -21 -15 -47 -29 l-47 -23 419 1
c446 1 453 1 625 -51 160 -48 170 -55 523 -439 86 -94 175 -185 197 -203 22
-17 45 -41 51 -53 10 -19 9 -20 -17 -14 -16 4 -105 43 -198 87 -93 44 -171 77
-173 75 -4 -4 35 -38 107 -95 14 -10 22 -22 18 -26 -9 -10 -61 8 -213 73 -184
78 -351 135 -490 168 -114 27 -132 29 -345 28 -202 0 -239 -3 -362 -27 -183
-36 -412 -103 -632 -186 -100 -38 -183 -67 -185 -64 -3 2 5 11 18 19 52 37
187 156 206 181 l19 27 -34 -21 c-154 -94 -340 -187 -543 -273 -81 -34 -151
-60 -154 -56 -3 3 20 41 52 83 33 43 64 84 69 92 24 31 -25 -7 -139 -109 -64
-58 -154 -131 -198 -164 -85 -61 -208 -126 -239 -126 -26 0 -31 37 -25 164 10
223 83 411 247 641 32 44 67 89 79 99 21 19 21 19 21 0 0 -10 -7 -54 -15 -97
-8 -43 -15 -83 -15 -88 0 -5 28 20 63 57 97 105 229 215 306 257 103 56 111
48 52 -48 -27 -44 -48 -81 -46 -84 2 -2 18 9 36 23 44 38 89 59 199 95 144 46
343 85 540 104 57 6 270 7 270 2z"/>
<path d="M7805 15451 c-11 -5 -138 -11 -282 -15 -144 -4 -304 -13 -355 -21
-185 -28 -324 -92 -433 -200 -199 -196 -595 -629 -595 -650 0 -12 110 2 180
24 35 11 66 19 67 17 2 -2 -26 -27 -62 -56 -36 -30 -65 -59 -65 -67 0 -19 6
-17 79 23 157 87 599 260 778 305 168 42 266 52 458 46 237 -8 428 -44 879
-168 138 -38 251 -67 253 -65 10 10 -355 138 -574 201 -205 60 -356 86 -543
92 -295 11 -492 -35 -900 -208 -102 -44 -191 -79 -197 -79 -32 0 -8 33 72 98
22 17 37 32 34 32 -3 0 -68 -29 -144 -65 -164 -78 -255 -116 -255 -106 0 4 23
29 51 56 28 28 156 163 283 300 128 138 250 265 271 283 46 41 92 61 243 108
l117 36 240 -3 c132 -2 326 -2 430 -1 l190 3 -48 25 c-27 14 -47 27 -45 28 9
7 376 -16 469 -29 210 -30 489 -117 552 -173 30 -27 26 -9 -14 57 -46 77 -50
95 -14 81 97 -37 202 -115 329 -244 l99 -100 -6 64 c-4 36 -10 83 -13 105 l-7
40 32 -30 c46 -43 157 -214 212 -325 83 -168 119 -308 119 -457 0 -95 -10
-123 -44 -123 -60 0 -238 120 -441 298 -58 52 -108 92 -110 90 -2 -2 23 -37
55 -78 33 -41 60 -79 60 -84 0 -13 -46 2 -185 60 -171 73 -350 161 -454 224
-46 28 -85 49 -88 47 -5 -6 85 -86 160 -143 34 -25 105 -68 157 -94 119 -60
360 -155 442 -176 39 -9 88 -32 128 -59 110 -74 217 -120 280 -120 80 0 84 12
83 241 -1 167 -3 186 -28 259 -56 169 -181 371 -325 528 -51 55 -78 77 -96 77
-21 0 -24 -4 -24 -38 0 -20 4 -53 10 -71 5 -19 8 -37 5 -39 -2 -2 -40 23 -84
56 -136 102 -317 191 -362 177 -23 -8 -24 -33 -3 -63 9 -13 13 -26 10 -30 -4
-3 -35 2 -69 11 -246 70 -291 78 -467 87 -213 11 -468 12 -495 1z"/>
<path d="M13550 14800 c-462 -36 -883 -210 -1235 -512 -210 -180 -398 -416
-511 -641 -25 -48 -48 -85 -53 -82 -5 2 -12 17 -16 32 -27 109 -63 146 -166
171 -90 22 -465 81 -593 93 -194 18 -700 6 -876 -20 -162 -25 -442 -78 -488
-92 -42 -14 -77 -61 -94 -128 -8 -30 -19 -56 -25 -58 -6 -2 -30 34 -53 79 -93
181 -224 361 -375 517 -161 167 -360 310 -585 422 -154 77 -251 113 -395 149
-208 51 -326 64 -575 65 -207 0 -236 -2 -362 -28 -682 -138 -1228 -553 -1527
-1161 -32 -66 -78 -175 -102 -241 -24 -66 -44 -122 -46 -124 -1 -2 -74 -7
-163 -12 -239 -11 -347 -27 -378 -54 l-26 -22 13 -84 c13 -81 13 -87 -8 -126
-25 -50 -26 -68 -5 -168 16 -76 16 -77 -10 -146 -31 -84 -32 -104 -6 -147 25
-40 89 -71 327 -161 237 -88 211 -65 267 -238 87 -269 160 -430 269 -593 212
-318 506 -575 851 -745 753 -370 1661 -255 2317 294 407 340 686 864 739 1386
19 189 28 238 50 265 11 14 30 43 42 65 22 38 23 51 23 238 0 197 0 199 -24
218 -13 10 -37 19 -55 19 -17 0 -37 4 -45 9 -21 13 -3 49 55 111 52 56 34 50
380 114 312 58 427 70 594 63 193 -9 761 -108 825 -145 31 -19 95 -104 95
-128 0 -8 -10 -14 -25 -14 -38 0 -92 -25 -104 -48 -13 -24 -14 -217 -2 -338 7
-68 14 -90 45 -140 39 -64 40 -70 76 -333 26 -186 64 -339 119 -483 217 -557
659 -1003 1211 -1222 240 -95 445 -136 720 -143 151 -4 226 -2 330 12 832 105
1520 678 1775 1476 20 63 44 136 53 164 l17 50 221 86 c265 103 303 123 329
171 l19 36 -28 89 -29 89 17 72 c21 93 20 113 -6 167 -21 42 -21 49 -10 119
13 76 6 119 -24 130 -34 13 -196 29 -354 35 l-175 6 -41 115 c-72 205 -184
421 -297 573 -70 94 -296 329 -409 423 -370 310 -967 493 -1478 454z m-5785
-151 c154 -13 242 -31 390 -81 972 -324 1547 -1310 1343 -2303 -143 -697 -662
-1277 -1347 -1501 -233 -77 -510 -112 -736 -94 -311 24 -499 77 -789 221 -519
257 -912 764 -1040 1340 -38 173 -49 302 -43 494 12 385 124 740 334 1059 86
129 371 418 513 518 168 119 424 239 635 298 205 58 454 74 740 49z m6336 -22
c326 -71 637 -222 884 -429 385 -321 629 -759 700 -1258 19 -139 19 -409 -1
-551 -51 -371 -206 -716 -453 -1010 -311 -372 -783 -630 -1267 -694 -144 -19
-398 -19 -529 0 -249 35 -521 131 -739 259 -548 323 -910 882 -977 1511 -14
134 -6 426 15 543 130 712 587 1267 1266 1536 254 100 413 126 740 122 217 -3
258 -7 361 -29z m-3067 -857 c158 -16 528 -79 566 -98 31 -16 37 -26 67 -117
37 -116 38 -126 17 -188 -24 -71 -38 -76 -64 -22 -12 25 -39 60 -61 79 -46 39
-117 56 -454 111 -436 70 -537 71 -925 5 -351 -59 -429 -77 -472 -105 -40 -27
-82 -77 -93 -112 -10 -34 -24 -28 -45 20 -25 54 -25 105 0 196 32 114 42 128
103 145 47 14 430 79 517 89 77 8 751 6 844 -3z m-1307 -593 c21 -21 26 -118
15 -265 -8 -113 -11 -125 -34 -149 l-26 -26 -7 59 c-4 33 -17 131 -29 219 -13
88 -21 166 -18 174 6 17 79 9 99 -12z m1887 -22 c0 -16 -8 -86 -18 -155 -9
-69 -20 -149 -24 -179 -8 -63 -23 -74 -49 -35 -16 24 -18 51 -18 199 0 198 3
208 69 203 38 -3 41 -5 40 -33z m-6164 -12 c-1 -36 -27 -144 -37 -153 -4 -4
-57 -15 -118 -24 -133 -21 -198 -36 -190 -45 4 -3 73 -8 153 -11 l147 -5 3
-36 c5 -57 -12 -89 -47 -89 -40 0 -164 -24 -236 -46 l-60 -19 65 -6 c36 -4
111 -7 168 -8 l102 -1 0 -84 0 -84 -222 -4 c-123 -2 -227 0 -233 4 -6 6 -2 31
13 71 25 70 27 112 10 204 -10 56 -9 70 6 114 15 40 17 65 11 124 -6 69 -5 75
12 76 10 0 97 11 193 24 96 13 194 24 218 24 40 1 42 -1 42 -26z m10605 -3
c99 -12 186 -23 193 -25 10 -4 12 -21 6 -75 -5 -55 -3 -80 11 -116 13 -34 16
-60 11 -97 -18 -145 -18 -151 3 -205 12 -29 21 -62 21 -74 0 -20 -3 -21 -97
-15 -54 4 -155 7 -225 7 l-128 0 0 86 0 86 28 -6 c28 -5 235 -11 287 -7 l30 2
-30 16 c-39 22 -149 50 -225 59 -69 8 -95 25 -103 69 -10 55 -1 59 140 62 70
2 139 6 153 10 25 5 25 5 3 13 -11 5 -80 20 -153 34 -73 14 -138 30 -145 36
-15 12 -35 94 -35 142 0 30 1 30 38 25 20 -4 118 -16 217 -27z m-10641 -722
c3 -18 7 -53 8 -78 3 -40 1 -45 -17 -42 -33 6 -344 124 -363 138 -14 11 14 13
175 14 l192 0 5 -32z m10774 20 c-4 -12 -215 -99 -291 -119 -69 -19 -80 -10
-71 58 3 32 8 61 11 66 2 4 83 7 179 7 131 0 175 -3 172 -12z"/>
<path d="M5163 9735 c-115 -25 -190 -68 -286 -163 -137 -134 -270 -397 -297
-587 -13 -92 -13 -323 1 -405 24 -151 92 -305 214 -487 252 -373 450 -566 815
-793 270 -168 472 -261 792 -365 410 -134 654 -178 1138 -206 301 -17 416 -5
750 82 312 82 528 162 780 290 176 89 255 142 425 284 179 151 195 160 287
179 147 29 233 70 349 167 26 22 50 39 54 39 16 0 -24 -37 -137 -127 -64 -51
-119 -97 -122 -102 -12 -20 222 54 319 101 39 18 39 18 -20 -36 l-60 -56 42 0
c23 0 45 -5 49 -11 11 -19 110 -2 235 41 63 22 125 40 136 40 11 0 47 -12 79
-26 69 -31 232 -74 279 -74 20 0 35 6 39 15 3 8 18 15 33 15 27 0 26 2 -27 50
l-55 51 62 -30 c34 -17 94 -39 135 -50 40 -11 88 -25 107 -31 70 -20 52 5 -65
92 -46 34 -82 64 -79 66 2 3 34 -14 70 -38 78 -51 163 -83 262 -100 81 -13
101 -25 248 -150 218 -183 335 -260 544 -356 263 -120 624 -239 916 -300 153
-32 352 -40 585 -25 522 35 799 94 1280 273 394 147 920 479 1121 709 189 216
380 498 439 648 139 354 108 698 -92 1038 -68 115 -134 191 -215 246 -184 126
-426 140 -642 37 -170 -82 -377 -235 -461 -342 -57 -71 -49 -79 17 -18 74 68
186 143 281 188 l77 37 150 -1 c106 0 170 -5 220 -18 218 -53 369 -194 442
-411 26 -76 27 -90 27 -260 -1 -213 -15 -280 -94 -442 -85 -177 -181 -304
-358 -475 -249 -241 -506 -378 -874 -468 -219 -54 -315 -65 -538 -64 -181 0
-219 4 -331 27 -214 45 -414 121 -607 230 -92 51 -281 185 -282 199 0 4 40 35
90 68 282 194 453 524 437 844 -6 133 -30 217 -88 307 -53 83 -210 236 -330
321 -93 67 -293 175 -399 217 -62 24 -251 73 -257 67 -3 -2 73 -44 167 -92
293 -149 396 -221 501 -352 91 -113 132 -204 137 -308 14 -260 -123 -460 -372
-540 -68 -22 -105 -28 -228 -32 -265 -8 -356 27 -652 250 -77 58 -195 152
-261 207 -353 298 -442 360 -575 405 -276 92 -569 46 -802 -126 l-67 -49 -63
47 c-268 197 -609 228 -903 81 -88 -44 -121 -68 -387 -288 -404 -334 -575
-455 -704 -498 -57 -19 -97 -24 -234 -28 -199 -6 -256 3 -369 59 -221 110
-319 293 -290 544 15 134 48 191 193 342 108 112 168 152 392 266 221 112 233
122 114 90 -288 -76 -582 -252 -794 -475 -92 -97 -144 -188 -165 -287 -15 -74
-13 -264 4 -345 16 -77 69 -206 129 -317 51 -92 207 -254 314 -324 l74 -48
-23 -24 c-38 -40 -217 -158 -330 -218 -210 -110 -420 -179 -641 -212 -286 -42
-758 19 -1051 135 -248 99 -464 247 -666 456 -287 298 -401 562 -388 895 8
210 61 346 181 466 101 100 211 151 399 181 130 22 247 9 345 -37 80 -37 209
-122 276 -181 36 -32 46 -37 36 -19 -19 36 -97 116 -165 170 -278 220 -520
303 -742 255z m242 -50 c103 -22 171 -46 154 -55 -8 -4 -48 -11 -89 -14 -125
-12 -210 -35 -317 -87 -169 -81 -268 -198 -340 -402 -21 -59 -27 -96 -30 -204
-6 -157 7 -264 47 -385 124 -372 492 -785 875 -982 181 -93 427 -173 660 -213
146 -25 552 -25 685 0 207 39 471 152 673 287 127 85 301 247 296 275 -3 12
-34 34 -86 61 -45 23 -110 64 -145 92 -247 198 -387 624 -293 892 18 51 123
212 143 218 10 3 9 -5 -3 -34 -31 -72 -35 -98 -35 -236 0 -160 11 -221 52
-301 44 -82 166 -196 259 -241 116 -55 176 -68 351 -73 322 -11 417 38 1001
517 131 107 279 223 328 256 152 104 290 142 487 131 179 -9 319 -61 463 -169
90 -68 76 -69 177 9 52 40 138 85 232 121 58 22 84 26 230 30 132 3 179 1 230
-12 132 -34 249 -103 445 -265 401 -331 617 -494 730 -551 123 -62 183 -73
375 -72 189 0 245 13 385 85 144 75 240 186 291 337 29 85 26 282 -5 373 -12
37 -21 73 -19 79 6 17 62 -62 105 -146 90 -178 79 -399 -31 -631 -52 -110 -92
-171 -160 -243 -81 -86 -236 -192 -281 -192 -10 0 -15 -10 -15 -34 0 -27 9
-43 48 -81 209 -208 517 -381 816 -459 359 -93 763 -66 1186 79 143 49 348
151 447 221 390 280 686 699 732 1037 14 101 14 257 0 333 -26 143 -122 322
-215 402 -104 89 -298 167 -451 180 -46 4 -84 12 -86 17 -3 15 92 43 192 56
170 22 292 -13 399 -114 104 -99 261 -364 297 -502 8 -33 20 -126 26 -206 23
-315 -22 -485 -199 -750 -182 -271 -481 -575 -730 -742 -170 -114 -620 -324
-862 -402 -172 -55 -436 -120 -605 -148 -233 -39 -397 -49 -740 -45 l-310 4
-175 52 c-391 114 -803 291 -1025 440 -95 64 -296 227 -406 330 -37 34 -70 62
-74 62 -3 0 -4 -13 0 -30 4 -20 3 -30 -5 -30 -16 0 -110 63 -210 142 -47 37
-86 63 -88 58 -2 -5 8 -26 22 -47 56 -82 22 -72 -96 29 -60 51 -75 57 -80 33
-2 -12 -10 -10 -41 11 -20 15 -40 25 -43 22 -7 -8 19 -60 64 -126 19 -28 33
-54 30 -57 -3 -3 -54 31 -114 76 -82 61 -117 95 -142 135 -42 68 -59 71 -52 9
3 -26 63 -157 90 -195 28 -40 16 -38 -54 10 -32 22 -63 40 -67 40 -22 0 -5
-38 33 -77 34 -35 38 -43 23 -43 -11 0 -47 16 -79 35 l-59 33 -77 -39 c-43
-21 -83 -39 -91 -39 -7 0 10 24 39 53 31 32 52 61 52 75 0 29 -11 28 -41 -4
-23 -25 -102 -84 -113 -84 -3 0 22 52 55 116 57 112 74 169 47 159 -7 -3 -29
-30 -48 -60 -19 -30 -38 -55 -41 -55 -3 0 -47 -31 -97 -70 -145 -109 -161
-113 -91 -20 40 53 74 118 66 126 -2 2 -22 -10 -45 -27 -32 -23 -42 -27 -42
-15 0 25 -16 19 -74 -28 -67 -54 -146 -109 -146 -101 0 4 14 26 30 50 30 43
37 65 23 65 -5 0 -39 -26 -78 -57 -88 -70 -196 -143 -213 -143 -10 0 -10 5 -2
21 7 11 9 23 6 26 -6 6 -42 -23 -237 -188 -63 -53 -149 -122 -193 -153 -319
-228 -1008 -495 -1360 -526 -61 -5 -186 -10 -277 -10 -602 0 -1149 125 -1754
402 -262 120 -400 207 -590 370 -255 220 -501 517 -606 733 -107 219 -131 353
-110 599 14 163 30 226 92 355 122 257 278 425 426 460 60 14 192 12 268 -4z"/>
<path d="M9883 8453 c-39 -7 -25 -23 20 -23 50 0 87 9 87 21 0 9 -65 10 -107
2z"/>
<path d="M11246 8452 c-9 -16 19 -22 102 -22 54 0 73 3 65 11 -14 14 -158 25
-167 11z"/>
<path d="M9790 8359 c-106 -13 -159 -30 -298 -98 -127 -63 -160 -86 -69 -49
184 74 330 112 521 133 40 5 55 10 45 16 -17 10 -96 10 -199 -2z"/>
<path d="M10712 8358 c5 -16 182 -96 303 -137 98 -34 250 -55 465 -65 140 -7
137 4 -5 23 -313 42 -445 74 -658 160 -83 33 -111 38 -105 19z"/>
<path d="M11255 8361 l-30 -7 30 -7 c17 -3 77 -12 135 -18 120 -13 221 -40
388 -104 76 -29 108 -38 92 -25 -39 30 -198 107 -269 129 -106 34 -270 49
-346 32z"/>
<path d="M10365 8313 c-152 -58 -307 -96 -510 -127 l-160 -24 105 -1 c226 -2
424 44 625 143 138 68 107 73 -60 9z"/>
<path d="M13080 8009 c-234 -100 -462 -159 -611 -159 -37 0 -70 -4 -74 -9 -6
-10 31 -19 125 -31 30 -4 48 -9 40 -13 -8 -3 -91 -20 -185 -38 -211 -39 -380
-48 -477 -25 -71 17 -180 62 -226 94 -73 52 -99 28 -33 -30 89 -82 235 -128
403 -128 156 0 238 16 458 90 113 38 251 82 307 99 104 32 309 129 372 175 48
36 34 32 -99 -25z"/>
<path d="M8105 8015 c182 -119 427 -196 624 -194 112 1 149 14 66 23 -208 23
-259 31 -335 53 -47 13 -148 49 -225 80 -177 69 -178 70 -130 38z"/>
<path d="M9590 7835 c-178 -100 -236 -117 -394 -116 -100 0 -220 16 -451 60
-27 5 -51 8 -53 6 -7 -7 139 -58 232 -81 273 -68 535 -31 679 96 70 62 64 78
-13 35z"/>
<path d="M8155 7610 c-288 -149 -440 -213 -685 -286 -96 -29 -169 -53 -163
-53 28 -2 264 53 353 81 192 62 502 210 678 324 76 50 94 65 75 64 -5 -1 -120
-59 -258 -130z"/>
<path d="M12843 7716 c80 -73 522 -291 732 -362 103 -34 395 -98 424 -92 9 2
-42 19 -114 37 -310 80 -455 137 -810 320 -115 60 -221 112 -235 115 l-25 7
28 -25z"/>
<path d="M8362 7550 c-75 -39 -148 -80 -162 -91 -24 -19 -24 -19 30 1 77 29
250 115 280 139 51 42 -10 21 -148 -49z"/>
<path d="M12744 7595 c48 -38 331 -173 342 -162 5 5 -229 141 -286 166 -25 11
-54 20 -65 20 -17 0 -16 -3 9 -24z"/>
<path d="M8809 7499 c-163 -106 -508 -268 -675 -317 -127 -38 -298 -69 -499
-92 l-160 -18 120 -1 c242 -2 442 28 621 94 226 84 674 327 674 366 0 16 -15
10 -81 -32z"/>
<path d="M12352 7529 c8 -28 178 -132 373 -229 317 -157 458 -202 682 -219
152 -12 440 -15 430 -5 -4 4 -68 11 -144 15 -286 18 -526 64 -714 139 -131 53
-376 173 -496 244 -105 62 -138 75 -131 55z"/>
</g>
</svg>
